  0
SECTION
  2
HEADER
  9
$ACADVER
  1
AC1024
  9
$ACADMAINTVER
 70
6
  9
$DWGCODEPAGE
  3
ANSI_1252
  9
$LASTSAVEDBY
  1
ezdxf
  9
$INSBASE
 10
0.0
 20
0.0
 30
0.0
  9
$EXTMIN
 10
1e+20
 20
1e+20
 30
1e+20
  9
$EXTMAX
 10
-1e+20
 20
-1e+20
 30
-1e+20
  9
$LIMMIN
 10
0.0
 20
0.0
  9
$LIMMAX
 10
420.0
 20
297.0
  9
$ORTHOMODE
 70
0
  9
$REGENMODE
 70
1
  9
$FILLMODE
 70
1
  9
$QTEXTMODE
 70
0
  9
$MIRRTEXT
 70
1
  9
$LTSCALE
 40
1.0
  9
$ATTMODE
 70
1
  9
$TEXTSIZE
 40
2.5
  9
$TRACEWID
 40
1.0
  9
$TEXTSTYLE
  7
Standard
  9
$CLAYER
  8
0
  9
$CELTYPE
  6
ByLayer
  9
$CECOLOR
 62
256
  9
$CELTSCALE
 40
1.0
  9
$DISPSILH
 70
0
  9
$DIMSCALE
 40
1.0
  9
$DIMASZ
 40
2.5
  9
$DIMEXO
 40
0.625
  9
$DIMDLI
 40
3.75
  9
$DIMRND
 40
0.0
  9
$DIMDLE
 40
0.0
  9
$DIMEXE
 40
1.25
  9
$DIMTP
 40
0.0
  9
$DIMTM
 40
0.0
  9
$DIMTXT
 40
2.5
  9
$DIMCEN
 40
2.5
  9
$DIMTSZ
 40
0.0
  9
$DIMTOL
 70
0
  9
$DIMLIM
 70
0
  9
$DIMTIH
 70
0
  9
$DIMTOH
 70
0
  9
$DIMSE1
 70
0
  9
$DIMSE2
 70
0
  9
$DIMTAD
 70
1
  9
$DIMZIN
 70
8
  9
$DIMBLK
  1

  9
$DIMASO
 70
1
  9
$DIMSHO
 70
1
  9
$DIMPOST
  1

  9
$DIMAPOST
  1

  9
$DIMALT
 70
0
  9
$DIMALTD
 70
3
  9
$DIMALTF
 40
0.03937007874
  9
$DIMLFAC
 40
1.0
  9
$DIMTOFL
 70
1
  9
$DIMTVP
 40
0.0
  9
$DIMTIX
 70
0
  9
$DIMSOXD
 70
0
  9
$DIMSAH
 70
0
  9
$DIMBLK1
  1

  9
$DIMBLK2
  1

  9
$DIMSTYLE
  2
ISO-25
  9
$DIMCLRD
 70
0
  9
$DIMCLRE
 70
0
  9
$DIMCLRT
 70
0
  9
$DIMTFAC
 40
1.0
  9
$DIMGAP
 40
0.625
  9
$DIMJUST
 70
0
  9
$DIMSD1
 70
0
  9
$DIMSD2
 70
0
  9
$DIMTOLJ
 70
0
  9
$DIMTZIN
 70
8
  9
$DIMALTZ
 70
0
  9
$DIMALTTZ
 70
0
  9
$DIMUPT
 70
0
  9
$DIMDEC
 70
2
  9
$DIMTDEC
 70
2
  9
$DIMALTU
 70
2
  9
$DIMALTTD
 70
3
  9
$DIMTXSTY
  7
Standard
  9
$DIMAUNIT
 70
0
  9
$DIMADEC
 70
0
  9
$DIMALTRND
 40
0.0
  9
$DIMAZIN
 70
0
  9
$DIMDSEP
 70
44
  9
$DIMATFIT
 70
3
  9
$DIMFRAC
 70
0
  9
$DIMLDRBLK
  1

  9
$DIMLUNIT
 70
2
  9
$DIMLWD
 70
-2
  9
$DIMLWE
 70
-2
  9
$DIMTMOVE
 70
0
  9
$DIMFXL
 40
1.0
  9
$DIMFXLON
 70
0
  9
$DIMJOGANG
 40
0.785398163397
  9
$DIMTFILL
 70
0
  9
$DIMTFILLCLR
 70
0
  9
$DIMARCSYM
 70
0
  9
$DIMLTYPE
  6

  9
$DIMLTEX1
  6

  9
$DIMLTEX2
  6

  9
$DIMTXTDIRECTION
 70
0
  9
$LUNITS
 70
2
  9
$LUPREC
 70
4
  9
$SKETCHINC
 40
1.0
  9
$FILLETRAD
 40
10.0
  9
$AUNITS
 70
0
  9
$AUPREC
 70
2
  9
$MENU
  1
.
  9
$ELEVATION
 40
0.0
  9
$PELEVATION
 40
0.0
  9
$THICKNESS
 40
0.0
  9
$LIMCHECK
 70
0
  9
$CHAMFERA
 40
0.0
  9
$CHAMFERB
 40
0.0
  9
$CHAMFERC
 40
0.0
  9
$CHAMFERD
 40
0.0
  9
$SKPOLY
 70
0
  9
$TDCREATE
 40
2461098.775740741
  9
$TDUCREATE
 40
2458532.153996898
  9
$TDUPDATE
 40
2461098.775740741
  9
$TDUUPDATE
 40
2458532.1544311
  9
$TDINDWG
 40
0.0
  9
$TDUSRTIMER
 40
0.0
  9
$USRTIMER
 70
1
  9
$ANGBASE
 50
0.0
  9
$ANGDIR
 70
0
  9
$PDMODE
 70
0
  9
$PDSIZE
 40
0.0
  9
$PLINEWID
 40
0.0
  9
$SPLFRAME
 70
0
  9
$SPLINETYPE
 70
6
  9
$SPLINESEGS
 70
8
  9
$HANDSEED
  5
34A
  9
$SURFTAB1
 70
6
  9
$SURFTAB2
 70
6
  9
$SURFTYPE
 70
6
  9
$SURFU
 70
6
  9
$SURFV
 70
6
  9
$UCSBASE
  2

  9
$UCSNAME
  2

  9
$UCSORG
 10
0.0
 20
0.0
 30
0.0
  9
$UCSXDIR
 10
1.0
 20
0.0
 30
0.0
  9
$UCSYDIR
 10
0.0
 20
1.0
 30
0.0
  9
$UCSORTHOREF
  2

  9
$UCSORTHOVIEW
 70
0
  9
$UCSORGTOP
 10
0.0
 20
0.0
 30
0.0
  9
$UCSORGBOTTOM
 10
0.0
 20
0.0
 30
0.0
  9
$UCSORGLEFT
 10
0.0
 20
0.0
 30
0.0
  9
$UCSORGRIGHT
 10
0.0
 20
0.0
 30
0.0
  9
$UCSORGFRONT
 10
0.0
 20
0.0
 30
0.0
  9
$UCSORGBACK
 10
0.0
 20
0.0
 30
0.0
  9
$PUCSBASE
  2

  9
$PUCSNAME
  2

  9
$PUCSORG
 10
0.0
 20
0.0
 30
0.0
  9
$PUCSXDIR
 10
1.0
 20
0.0
 30
0.0
  9
$PUCSYDIR
 10
0.0
 20
1.0
 30
0.0
  9
$PUCSORTHOREF
  2

  9
$PUCSORTHOVIEW
 70
0
  9
$PUCSORGTOP
 10
0.0
 20
0.0
 30
0.0
  9
$PUCSORGBOTTOM
 10
0.0
 20
0.0
 30
0.0
  9
$PUCSORGLEFT
 10
0.0
 20
0.0
 30
0.0
  9
$PUCSORGRIGHT
 10
0.0
 20
0.0
 30
0.0
  9
$PUCSORGFRONT
 10
0.0
 20
0.0
 30
0.0
  9
$PUCSORGBACK
 10
0.0
 20
0.0
 30
0.0
  9
$USERI1
 70
0
  9
$USERI2
 70
0
  9
$USERI3
 70
0
  9
$USERI4
 70
0
  9
$USERI5
 70
0
  9
$USERR1
 40
0.0
  9
$USERR2
 40
0.0
  9
$USERR3
 40
0.0
  9
$USERR4
 40
0.0
  9
$USERR5
 40
0.0
  9
$WORLDVIEW
 70
1
  9
$SHADEDGE
 70
3
  9
$SHADEDIF
 70
70
  9
$TILEMODE
 70
1
  9
$MAXACTVP
 70
64
  9
$PINSBASE
 10
0.0
 20
0.0
 30
0.0
  9
$PLIMCHECK
 70
0
  9
$PEXTMIN
 10
1e+20
 20
1e+20
 30
1e+20
  9
$PEXTMAX
 10
-1e+20
 20
-1e+20
 30
-1e+20
  9
$PLIMMIN
 10
0.0
 20
0.0
  9
$PLIMMAX
 10
420.0
 20
297.0
  9
$UNITMODE
 70
0
  9
$VISRETAIN
 70
1
  9
$PLINEGEN
 70
0
  9
$PSLTSCALE
 70
1
  9
$TREEDEPTH
 70
3020
  9
$CMLSTYLE
  2
Standard
  9
$CMLJUST
 70
0
  9
$CMLSCALE
 40
20.0
  9
$PROXYGRAPHICS
 70
1
  9
$MEASUREMENT
 70
1
  9
$CELWEIGHT
370
-1
  9
$ENDCAPS
280
0
  9
$JOINSTYLE
280
0
  9
$LWDISPLAY
290
0
  9
$INSUNITS
 70
4
  9
$HYPERLINKBASE
  1

  9
$STYLESHEET
  1

  9
$XEDIT
290
1
  9
$CEPSNTYPE
380
0
  9
$PSTYLEMODE
290
1
  9
$FINGERPRINTGUID
  2
{91B09634-2C2F-45A6-89AE-0F7FB3766505}
  9
$VERSIONGUID
  2
{A98EC238-2A6F-47C3-A143-A149D18B3590}
  9
$EXTNAMES
290
1
  9
$PSVPSCALE
 40
0.0
  9
$OLESTARTUP
290
0
  9
$SORTENTS
280
127
  9
$INDEXCTL
280
0
  9
$HIDETEXT
280
1
  9
$XCLIPFRAME
280
0
  9
$HALOGAP
280
0
  9
$OBSCOLOR
 70
257
  9
$OBSLTYPE
280
0
  9
$INTERSECTIONDISPLAY
280
0
  9
$INTERSECTIONCOLOR
 70
257
  9
$DIMASSOC
280
2
  9
$PROJECTNAME
  1

  9
$CAMERADISPLAY
290
0
  9
$LENSLENGTH
 40
50.0
  9
$CAMERAHEIGHT
 40
0.0
  9
$STEPSPERSEC
 40
24.0
  9
$STEPSIZE
 40
100.0
  9
$3DDWFPREC
 40
2.0
  9
$PSOLWIDTH
 40
0.005
  9
$PSOLHEIGHT
 40
0.08
  9
$LOFTANG1
 40
1.570796326795
  9
$LOFTANG2
 40
1.570796326795
  9
$LOFTMAG1
 40
0.0
  9
$LOFTMAG2
 40
0.0
  9
$LOFTPARAM
 70
7
  9
$LOFTNORMALS
280
1
  9
$LATITUDE
 40
37.795
  9
$LONGITUDE
 40
-122.394
  9
$NORTHDIRECTION
 40
0.0
  9
$TIMEZONE
 70
-8000
  9
$LIGHTGLYPHDISPLAY
280
1
  9
$TILEMODELIGHTSYNCH
280
1
  9
$CMATERIAL
347
20
  9
$SOLIDHIST
280
0
  9
$SHOWHIST
280
1
  9
$DWFFRAME
280
2
  9
$DGNFRAME
280
2
  9
$REALWORLDSCALE
290
1
  9
$INTERFERECOLOR
 62
256
  9
$CSHADOW
280
0
  9
$SHADOWPLANELOCATION
 40
0.0
  0
ENDSEC
  0
SECTION
  2
CLASSES
  0
CLASS
  1
ACDBDICTIONARYWDFLT
  2
AcDbDictionaryWithDefault
  3
ObjectDBX Classes
 90
0
 91
0
280
0
281
0
  0
CLASS
  1
SUN
  2
AcDbSun
  3
SCENEOE
 90
1153
 91
0
280
0
281
0
  0
CLASS
  1
VISUALSTYLE
  2
AcDbVisualStyle
  3
ObjectDBX Classes
 90
4095
 91
0
280
0
281
0
  0
CLASS
  1
MATERIAL
  2
AcDbMaterial
  3
ObjectDBX Classes
 90
1153
 91
0
280
0
281
0
  0
CLASS
  1
SCALE
  2
AcDbScale
  3
ObjectDBX Classes
 90
1153
 91
0
280
0
281
0
  0
CLASS
  1
TABLESTYLE
  2
AcDbTableStyle
  3
ObjectDBX Classes
 90
4095
 91
0
280
0
281
0
  0
CLASS
  1
MLEADERSTYLE
  2
AcDbMLeaderStyle
  3
ACDB_MLEADERSTYLE_CLASS
 90
4095
 91
0
280
0
281
0
  0
CLASS
  1
DICTIONARYVAR
  2
AcDbDictionaryVar
  3
ObjectDBX Classes
 90
0
 91
0
280
0
281
0
  0
CLASS
  1
CELLSTYLEMAP
  2
AcDbCellStyleMap
  3
ObjectDBX Classes
 90
1152
 91
0
280
0
281
0
  0
CLASS
  1
MENTALRAYRENDERSETTINGS
  2
AcDbMentalRayRenderSettings
  3
SCENEOE
 90
1024
 91
0
280
0
281
0
  0
CLASS
  1
ACDBDETAILVIEWSTYLE
  2
AcDbDetailViewStyle
  3
ObjectDBX Classes
 90
1025
 91
0
280
0
281
0
  0
CLASS
  1
ACDBSECTIONVIEWSTYLE
  2
AcDbSectionViewStyle
  3
ObjectDBX Classes
 90
1025
 91
0
280
0
281
0
  0
CLASS
  1
RASTERVARIABLES
  2
AcDbRasterVariables
  3
ISM
 90
0
 91
0
280
0
281
0
  0
CLASS
  1
ACDBPLACEHOLDER
  2
AcDbPlaceHolder
  3
ObjectDBX Classes
 90
0
 91
0
280
0
281
0
  0
CLASS
  1
LAYOUT
  2
AcDbLayout
  3
ObjectDBX Classes
 90
0
 91
0
280
0
281
0
  0
ENDSEC
  0
SECTION
  2
TABLES
  0
TABLE
  2
VPORT
  5
8
330
0
100
AcDbSymbolTable
 70
1
  0
VPORT
  5
23
330
8
100
AcDbSymbolTableRecord
100
AcDbViewportTableRecord
  2
*Active
 70
0
 10
0.0
 20
0.0
 11
1.0
 21
1.0
 12
0.0
 22
0.0
 13
0.0
 23
0.0
 14
0.5
 24
0.5
 15
0.5
 25
0.5
 16
0.0
 26
0.0
 36
1.0
 17
0.0
 27
0.0
 37
0.0
 40
1000.0
 41
1.34
 42
50.0
 43
0.0
 44
0.0
 50
0.0
 51
0.0
 71
0
 72
1000
 73
1
 74
3
 75
0
 76
0
 77
0
 78
0
281
0
 65
0
146
0.0
  0
ENDTAB
  0
TABLE
  2
LTYPE
  5
2
330
0
100
AcDbSymbolTable
 70
3
  0
LTYPE
  5
24
330
2
100
AcDbSymbolTableRecord
100
AcDbLinetypeTableRecord
  2
ByBlock
 70
0
  3

 72
65
 73
0
 40
0.0
  0
LTYPE
  5
25
330
2
100
AcDbSymbolTableRecord
100
AcDbLinetypeTableRecord
  2
ByLayer
 70
0
  3

 72
65
 73
0
 40
0.0
  0
LTYPE
  5
26
330
2
100
AcDbSymbolTableRecord
100
AcDbLinetypeTableRecord
  2
Continuous
 70
0
  3

 72
65
 73
0
 40
0.0
  0
ENDTAB
  0
TABLE
  2
LAYER
  5
1
330
0
100
AcDbSymbolTable
 70
9
  0
LAYER
  5
27
330
1
100
AcDbSymbolTableRecord
100
AcDbLayerTableRecord
  2
0
 70
0
 62
7
  6
Continuous
370
-3
390
13
347
21
  0
LAYER
  5
28
330
1
100
AcDbSymbolTableRecord
100
AcDbLayerTableRecord
  2
Defpoints
 70
0
 62
7
  6
Continuous
290
0
370
-3
390
13
347
21
  0
LAYER
  5
2F
330
1
100
AcDbSymbolTableRecord
100
AcDbLayerTableRecord
  2
CONTOUR
 70
0
 62
7
  6
CONTINUOUS
370
50
390
13
347
21
  0
LAYER
  5
30
330
1
100
AcDbSymbolTableRecord
100
AcDbLayerTableRecord
  2
HIDDEN
 70
0
 62
8
  6
DASHED
370
25
390
13
347
21
  0
LAYER
  5
31
330
1
100
AcDbSymbolTableRecord
100
AcDbLayerTableRecord
  2
CENTER
 70
0
 62
1
  6
DASHDOT
370
18
390
13
347
21
  0
LAYER
  5
32
330
1
100
AcDbSymbolTableRecord
100
AcDbLayerTableRecord
  2
DIMENSION
 70
0
 62
3
  6
CONTINUOUS
370
18
390
13
347
21
  0
LAYER
  5
33
330
1
100
AcDbSymbolTableRecord
100
AcDbLayerTableRecord
  2
FRAME
 70
0
 62
7
  6
CONTINUOUS
370
70
390
13
347
21
  0
LAYER
  5
34
330
1
100
AcDbSymbolTableRecord
100
AcDbLayerTableRecord
  2
TEXT
 70
0
 62
7
  6
CONTINUOUS
370
25
390
13
347
21
  0
LAYER
  5
35
330
1
100
AcDbSymbolTableRecord
100
AcDbLayerTableRecord
  2
HATCH
 70
0
 62
8
  6
CONTINUOUS
370
13
390
13
347
21
  0
ENDTAB
  0
TABLE
  2
STYLE
  5
5
330
0
100
AcDbSymbolTable
 70
3
  0
STYLE
  5
29
330
5
100
AcDbSymbolTableRecord
100
AcDbTextStyleTableRecord
  2
Standard
 70
0
 40
0.0
 41
1.0
 50
0.0
 71
0
 42
2.5
  3
txt
  4

  0
STYLE
  5
36
330
5
100
AcDbSymbolTableRecord
100
AcDbTextStyleTableRecord
  2
GOST
 70
0
 40
0.0
 41
1.0
 50
0.0
 71
0
 42
2.5
  3
isocpeur.shx
  4

  0
STYLE
  5
37
330
5
100
AcDbSymbolTableRecord
100
AcDbTextStyleTableRecord
  2
GOST_TTF
 70
0
 40
0.0
 41
1.0
 50
0.0
 71
0
 42
2.5
  3
Arial
  4

  0
ENDTAB
  0
TABLE
  2
VIEW
  5
7
330
0
100
AcDbSymbolTable
 70
0
  0
ENDTAB
  0
TABLE
  2
UCS
  5
6
330
0
100
AcDbSymbolTable
 70
0
  0
ENDTAB
  0
TABLE
  2
APPID
  5
3
330
0
100
AcDbSymbolTable
 70
3
  0
APPID
  5
2A
330
3
100
AcDbSymbolTableRecord
100
AcDbRegAppTableRecord
  2
ACAD
 70
0
  0
APPID
  5
347
330
3
100
AcDbSymbolTableRecord
100
AcDbRegAppTableRecord
  2
HATCHBACKGROUNDCOLOR
 70
0
  0
APPID
  5
348
330
3
100
AcDbSymbolTableRecord
100
AcDbRegAppTableRecord
  2
EZDXF
 70
0
  0
ENDTAB
  0
TABLE
  2
DIMSTYLE
  5
4
330
0
100
AcDbSymbolTable
 70
2
100
AcDbDimStyleTable
  0
DIMSTYLE
105
2B
330
4
100
AcDbSymbolTableRecord
100
AcDbDimStyleTableRecord
  2
Standard
 70
0
 40
1.0
 41
2.5
 42
0.625
 43
3.75
 44
1.25
 45
0.0
 46
0.0
 47
0.0
 48
0.0
 49
2.5
140
2.5
141
2.5
142
0.0
143
0.03937007874
144
1.0
145
0.0
146
1.0
147
0.625
148
0.0
 69
0
 70
0
 71
0
 72
0
 73
0
 74
0
 75
0
 76
0
 77
1
 78
8
 79
3
170
0
171
3
172
1
173
0
174
0
175
0
176
0
177
0
178
0
179
2
271
2
272
2
273
2
274
3
275
0
276
0
277
2
278
44
279
0
280
0
281
0
282
0
283
0
284
8
285
0
286
0
288
0
289
3
290
0
371
-2
372
-2
  0
DIMSTYLE
105
38
330
4
100
AcDbSymbolTableRecord
100
AcDbDimStyleTableRecord
  2
GOST
 70
0
 40
1.0
 41
2.5
 42
1.5
 43
7.0
 44
2.0
 45
0.0
 46
0.0
 47
0.0
 48
0.0
 49
2.5
140
3.5
141
2.5
142
0.0
143
0.03937007874
144
1.0
145
0.0
146
1.0
147
1.0
148
0.0
 69
0
 70
0
 71
0
 72
0
 73
0
 74
0
 75
0
 76
0
 77
1
 78
8
 79
3
170
0
171
3
172
1
173
0
174
0
175
0
176
0
177
0
178
0
179
2
271
1
272
2
273
2
274
3
275
0
276
0
277
2
278
44
279
0
280
0
281
0
282
0
283
0
284
8
285
0
286
0
288
0
289
3
290
0
340
36
371
-2
372
-2
  0
ENDTAB
  0
TABLE
  2
BLOCK_RECORD
  5
9
330
0
100
AcDbSymbolTable
 70
2
  0
BLOCK_RECORD
  5
17
330
9
100
AcDbSymbolTableRecord
100
AcDbBlockTableRecord
  2
*Model_Space
340
1A
 70
0
280
1
281
0
  0
BLOCK_RECORD
  5
1B
330
9
100
AcDbSymbolTableRecord
100
AcDbBlockTableRecord
  2
*Paper_Space
340
1E
 70
0
280
1
281
0
  0
ENDTAB
  0
ENDSEC
  0
SECTION
  2
BLOCKS
  0
BLOCK
  5
18
330
17
100
AcDbEntity
  8
0
100
AcDbBlockBegin
  2
*Model_Space
 70
0
 10
0.0
 20
0.0
 30
0.0
  3
*Model_Space
  1

  0
ENDBLK
  5
19
330
17
100
AcDbEntity
  8
0
100
AcDbBlockEnd
  0
BLOCK
  5
1C
330
1B
100
AcDbEntity
  8
0
100
AcDbBlockBegin
  2
*Paper_Space
 70
0
 10
0.0
 20
0.0
 30
0.0
  3
*Paper_Space
  1

  0
ENDBLK
  5
1D
330
1B
100
AcDbEntity
  8
0
100
AcDbBlockEnd
  0
ENDSEC
  0
SECTION
  2
ENTITIES
  0
LWPOLYLINE
  5
39
330
17
100
AcDbEntity
  8
FRAME
100
AcDbPolyline
 90
4
 70
1
 10
5.0
 20
5.0
 10
836.0
 20
5.0
 10
836.0
 20
589.0
 10
5.0
 20
589.0
  0
LINE
  5
3A
330
17
100
AcDbEntity
  8
CONTOUR
100
AcDbLine
 10
138.0
 20
262.0
 30
0.0
 11
155.48291015625
 21
262.0
 31
0.0
  0
LINE
  5
3B
330
17
100
AcDbEntity
  8
CONTOUR
100
AcDbLine
 10
138.0
 20
287.0
 30
0.0
 11
138.0
 21
262.0
 31
0.0
  0
LINE
  5
3C
330
17
100
AcDbEntity
  8
CONTOUR
100
AcDbLine
 10
155.48291015625
 20
287.0
 30
0.0
 11
138.0
 21
287.0
 31
0.0
  0
LINE
  5
3D
330
17
100
AcDbEntity
  8
CONTOUR
100
AcDbLine
 10
155.5
 20
249.5
 30
0.0
 11
235.5
 21
249.5
 31
0.0
  0
LINE
  5
3E
330
17
100
AcDbEntity
  8
CONTOUR
100
AcDbLine
 10
155.5
 20
284.48291015625
 30
0.0
 11
155.5
 21
249.5
 31
0.0
  0
LINE
  5
3F
330
17
100
AcDbEntity
  8
CONTOUR
100
AcDbLine
 10
155.5
 20
284.5
 30
0.0
 11
195.5
 21
284.5
 31
0.0
  0
LINE
  5
40
330
17
100
AcDbEntity
  8
CONTOUR
100
AcDbLine
 10
155.5
 20
304.5
 30
0.0
 11
155.5
 21
284.5
 31
0.0
  0
LINE
  5
41
330
17
100
AcDbEntity
  8
CONTOUR
100
AcDbLine
 10
155.5
 20
304.5
 30
0.0
 11
235.5
 21
304.5
 31
0.0
  0
LINE
  5
42
330
17
100
AcDbEntity
  8
CONTOUR
100
AcDbLine
 10
180.5
 20
239.5
 30
0.0
 11
190.5
 21
239.5
 31
0.0
  0
LINE
  5
43
330
17
100
AcDbEntity
  8
CONTOUR
100
AcDbLine
 10
180.5
 20
249.48046875
 30
0.0
 11
180.5
 21
239.5
 31
0.0
  0
LINE
  5
44
330
17
100
AcDbEntity
  8
CONTOUR
100
AcDbLine
 10
183.0
 20
234.5
 30
0.0
 11
188.0
 21
234.5
 31
0.0
  0
LINE
  5
45
330
17
100
AcDbEntity
  8
CONTOUR
100
AcDbLine
 10
183.0
 20
239.48046875
 30
0.0
 11
183.0
 21
234.5
 31
0.0
  0
LINE
  5
46
330
17
100
AcDbEntity
  8
CONTOUR
100
AcDbLine
 10
188.0
 20
239.48046875
 30
0.0
 11
188.0
 21
234.5
 31
0.0
  0
LINE
  5
47
330
17
100
AcDbEntity
  8
CONTOUR
100
AcDbLine
 10
190.5
 20
249.48046875
 30
0.0
 11
190.5
 21
239.5
 31
0.0
  0
LINE
  5
48
330
17
100
AcDbEntity
  8
CONTOUR
100
AcDbLine
 10
195.5
 20
284.5
 30
0.0
 11
195.5
 21
249.5
 31
0.0
  0
LINE
  5
49
330
17
100
AcDbEntity
  8
CONTOUR
100
AcDbLine
 10
235.5
 20
304.5
 30
0.0
 11
235.5
 21
249.5
 31
0.0
  0
LINE
  5
4A
330
17
100
AcDbEntity
  8
CONTOUR
100
AcDbLine
 10
235.5146484375
 20
284.5
 30
0.0
 11
250.5
 21
284.5
 31
0.0
  0
LINE
  5
4B
330
17
100
AcDbEntity
  8
CONTOUR
100
AcDbLine
 10
235.5146484375
 20
304.5
 30
0.0
 11
250.5
 21
304.5
 31
0.0
  0
LINE
  5
4C
330
17
100
AcDbEntity
  8
CONTOUR
100
AcDbLine
 10
235.51708984375
 20
262.0
 30
0.0
 11
253.0
 21
262.0
 31
0.0
  0
LINE
  5
4D
330
17
100
AcDbEntity
  8
CONTOUR
100
AcDbLine
 10
250.5
 20
304.5
 30
0.0
 11
250.5
 21
284.5
 31
0.0
  0
LINE
  5
4E
330
17
100
AcDbEntity
  8
CONTOUR
100
AcDbLine
 10
250.5048828125
 20
287.0
 30
0.0
 11
253.0
 21
287.0
 31
0.0
  0
LINE
  5
4F
330
17
100
AcDbEntity
  8
CONTOUR
100
AcDbLine
 10
253.0
 20
287.0
 30
0.0
 11
253.0
 21
262.0
 31
0.0
  0
LINE
  5
50
330
17
100
AcDbEntity
  8
HIDDEN
100
AcDbLine
 10
155.48291015625
 20
262.0
 30
0.0
 11
155.5
 21
262.0
 31
0.0
  0
LINE
  5
51
330
17
100
AcDbEntity
  8
HIDDEN
100
AcDbLine
 10
138.0
 20
269.5
 30
0.0
 11
253.0
 21
269.5
 31
0.0
  0
LINE
  5
52
330
17
100
AcDbEntity
  8
HIDDEN
100
AcDbLine
 10
138.0
 20
279.5
 30
0.0
 11
253.0
 21
279.5
 31
0.0
  0
LINE
  5
53
330
17
100
AcDbEntity
  8
HIDDEN
100
AcDbLine
 10
155.5
 20
284.5
 30
0.0
 11
155.5
 21
284.48291015625
 31
0.0
  0
LINE
  5
54
330
17
100
AcDbEntity
  8
HIDDEN
100
AcDbLine
 10
155.5
 20
287.0
 30
0.0
 11
155.48291015625
 21
287.0
 31
0.0
  0
LINE
  5
55
330
17
100
AcDbEntity
  8
HIDDEN
100
AcDbLine
 10
235.5
 20
304.5
 30
0.0
 11
235.5146484375
 21
304.5
 31
0.0
  0
LINE
  5
56
330
17
100
AcDbEntity
  8
HIDDEN
100
AcDbLine
 10
170.5007781982422
 20
304.5
 30
0.0
 11
170.5007781982422
 21
284.5
 31
0.0
  0
LINE
  5
57
330
17
100
AcDbEntity
  8
HIDDEN
100
AcDbLine
 10
175.4992218017578
 20
304.5
 30
0.0
 11
175.4992218017578
 21
284.5
 31
0.0
  0
LINE
  5
58
330
17
100
AcDbEntity
  8
HIDDEN
100
AcDbLine
 10
180.5
 20
284.5
 30
0.0
 11
180.5
 21
249.48046875
 31
0.0
  0
LINE
  5
59
330
17
100
AcDbEntity
  8
HIDDEN
100
AcDbLine
 10
183.0
 20
239.5
 30
0.0
 11
183.0
 21
239.48046875
 31
0.0
  0
LINE
  5
5A
330
17
100
AcDbEntity
  8
HIDDEN
100
AcDbLine
 10
188.0
 20
239.5
 30
0.0
 11
188.0
 21
239.48046875
 31
0.0
  0
LINE
  5
5B
330
17
100
AcDbEntity
  8
HIDDEN
100
AcDbLine
 10
190.5
 20
249.5
 30
0.0
 11
190.5
 21
249.48046875
 31
0.0
  0
LINE
  5
5C
330
17
100
AcDbEntity
  8
HIDDEN
100
AcDbLine
 10
235.5
 20
262.0
 30
0.0
 11
235.51708984375
 21
262.0
 31
0.0
  0
LINE
  5
5D
330
17
100
AcDbEntity
  8
HIDDEN
100
AcDbLine
 10
235.5
 20
284.5
 30
0.0
 11
235.5146484375
 21
284.5
 31
0.0
  0
LINE
  5
5E
330
17
100
AcDbEntity
  8
HIDDEN
100
AcDbLine
 10
235.5
 20
287.0
 30
0.0
 11
250.5048828125
 21
287.0
 31
0.0
  0
LINE
  5
5F
330
17
100
AcDbEntity
  8
HIDDEN
100
AcDbLine
 10
240.5007781982422
 20
304.5
 30
0.0
 11
240.5007781982422
 21
284.5
 31
0.0
  0
LINE
  5
60
330
17
100
AcDbEntity
  8
HIDDEN
100
AcDbLine
 10
245.4992218017578
 20
304.5
 30
0.0
 11
245.4992218017578
 21
284.5
 31
0.0
  0
LINE
  5
61
330
17
100
AcDbEntity
  8
CENTER
100
AcDbLine
 10
172.99999920785956
 20
291.1666666666667
 30
0.0
 11
172.99999920785956
 21
297.8333333333333
 31
0.0
  0
LINE
  5
62
330
17
100
AcDbEntity
  8
CENTER
100
AcDbLine
 10
172.9999992078611
 20
291.1666666666667
 30
0.0
 11
172.9999992078611
 21
297.8333333333333
 31
0.0
  0
LINE
  5
63
330
17
100
AcDbEntity
  8
CENTER
100
AcDbLine
 10
243.00000002523205
 20
291.1666666666667
 30
0.0
 11
243.00000002523205
 21
297.8333333333333
 31
0.0
  0
LINE
  5
64
330
17
100
AcDbEntity
  8
CENTER
100
AcDbLine
 10
243.00000002523328
 20
291.1666666666667
 30
0.0
 11
243.00000002523328
 21
297.8333333333333
 31
0.0
  0
LINE
  5
65
330
17
100
AcDbEntity
  8
CENTER
100
AcDbLine
 10
176.33333333333331
 20
274.4999998476039
 30
0.0
 11
214.66666666666669
 21
274.4999998476039
 31
0.0
  0
LINE
  5
66
330
17
100
AcDbEntity
  8
CONTOUR
100
AcDbLine
 10
363.0
 20
217.0
 30
0.0
 11
380.4658203125
 21
217.0
 31
0.0
  0
LINE
  5
67
330
17
100
AcDbEntity
  8
CONTOUR
100
AcDbLine
 10
363.0
 20
266.99999237060547
 30
0.0
 11
363.0
 21
217.0
 31
0.0
  0
LINE
  5
68
330
17
100
AcDbEntity
  8
CONTOUR
100
AcDbLine
 10
363.0
 20
266.99999237060547
 30
0.0
 11
380.4658203125
 21
266.99999237060547
 31
0.0
  0
LINE
  5
69
330
17
100
AcDbEntity
  8
CONTOUR
100
AcDbLine
 10
380.5
 20
167.0
 30
0.0
 11
420.4609375
 21
167.0
 31
0.0
  0
LINE
  5
6A
330
17
100
AcDbEntity
  8
CONTOUR
100
AcDbLine
 10
380.5
 20
206.9609375
 30
0.0
 11
380.5
 21
167.0
 31
0.0
  0
LINE
  5
6B
330
17
100
AcDbEntity
  8
CONTOUR
100
AcDbLine
 10
380.5
 20
207.0
 30
0.0
 11
420.5
 21
167.0
 31
0.0
  0
LINE
  5
6C
330
17
100
AcDbEntity
  8
CONTOUR
100
AcDbLine
 10
380.5
 20
281.99999237060547
 30
0.0
 11
380.5
 21
207.0
 31
0.0
  0
LINE
  5
6D
330
17
100
AcDbEntity
  8
CONTOUR
100
AcDbLine
 10
380.5
 20
281.99999237060547
 30
0.0
 11
405.5
 21
281.99999237060547
 31
0.0
  0
LINE
  5
6E
330
17
100
AcDbEntity
  8
CONTOUR
100
AcDbLine
 10
380.5
 20
291.99999237060547
 30
0.0
 11
380.5
 21
282.03905487060547
 31
0.0
  0
LINE
  5
6F
330
17
100
AcDbEntity
  8
CONTOUR
100
AcDbLine
 10
405.4755859375
 20
291.99999237060547
 30
0.0
 11
380.5
 21
291.99999237060547
 31
0.0
  0
LINE
  5
70
330
17
100
AcDbEntity
  8
CONTOUR
100
AcDbLine
 10
395.5007781982422
 20
184.43768310546875
 30
0.0
 11
395.5069885253906
 21
184.3131561279297
 31
0.0
  0
LINE
  5
71
330
17
100
AcDbEntity
  8
CONTOUR
100
AcDbLine
 10
395.5007781982422
 20
184.56231689453125
 30
0.0
 11
395.5007781982422
 21
184.43768310546875
 31
0.0
  0
LINE
  5
72
330
17
100
AcDbEntity
  8
CONTOUR
100
AcDbLine
 10
395.5007781982422
 20
184.56231689453125
 30
0.0
 11
395.5069885253906
 21
184.68682861328125
 31
0.0
  0
LINE
  5
73
330
17
100
AcDbEntity
  8
CONTOUR
100
AcDbLine
 10
395.5007781982422
 20
286.9376754760742
 30
0.0
 11
395.5069885253906
 21
286.8131637573242
 31
0.0
  0
LINE
  5
74
330
17
100
AcDbEntity
  8
CONTOUR
100
AcDbLine
 10
395.5007781982422
 20
287.0623245239258
 30
0.0
 11
395.5007781982422
 21
286.9376754760742
 31
0.0
  0
LINE
  5
75
330
17
100
AcDbEntity
  8
CONTOUR
100
AcDbLine
 10
395.5007781982422
 20
287.0623245239258
 30
0.0
 11
395.5069885253906
 21
287.1868209838867
 31
0.0
  0
LINE
  5
76
330
17
100
AcDbEntity
  8
CONTOUR
100
AcDbLine
 10
395.5069885253906
 20
184.3131561279297
 30
0.0
 11
395.51939392089844
 21
184.18914794921875
 31
0.0
  0
LINE
  5
77
330
17
100
AcDbEntity
  8
CONTOUR
100
AcDbLine
 10
395.5069885253906
 20
184.68682861328125
 30
0.0
 11
395.51939392089844
 21
184.81085205078125
 31
0.0
  0
LINE
  5
78
330
17
100
AcDbEntity
  8
CONTOUR
100
AcDbLine
 10
395.5069885253906
 20
286.8131637573242
 30
0.0
 11
395.51939392089844
 21
286.6891403198242
 31
0.0
  0
LINE
  5
79
330
17
100
AcDbEntity
  8
CONTOUR
100
AcDbLine
 10
395.5069885253906
 20
287.1868209838867
 30
0.0
 11
395.51939392089844
 21
287.3108596801758
 31
0.0
  0
LINE
  5
7A
330
17
100
AcDbEntity
  8
CONTOUR
100
AcDbLine
 10
395.51939392089844
 20
184.18914794921875
 30
0.0
 11
395.53797912597656
 21
184.06588745117188
 31
0.0
  0
LINE
  5
7B
330
17
100
AcDbEntity
  8
CONTOUR
100
AcDbLine
 10
395.51939392089844
 20
184.81085205078125
 30
0.0
 11
395.53797912597656
 21
184.93411254882812
 31
0.0
  0
LINE
  5
7C
330
17
100
AcDbEntity
  8
CONTOUR
100
AcDbLine
 10
395.51939392089844
 20
286.6891403198242
 30
0.0
 11
395.53797912597656
 21
286.56587982177734
 31
0.0
  0
LINE
  5
7D
330
17
100
AcDbEntity
  8
CONTOUR
100
AcDbLine
 10
395.51939392089844
 20
287.3108596801758
 30
0.0
 11
395.53797912597656
 21
287.43412017822266
 31
0.0
  0
LINE
  5
7E
330
17
100
AcDbEntity
  8
CONTOUR
100
AcDbLine
 10
395.53797912597656
 20
184.06588745117188
 30
0.0
 11
395.56268310546875
 21
183.94369506835938
 31
0.0
  0
LINE
  5
7F
330
17
100
AcDbEntity
  8
CONTOUR
100
AcDbLine
 10
395.53797912597656
 20
184.93411254882812
 30
0.0
 11
395.56268310546875
 21
185.05630493164062
 31
0.0
  0
LINE
  5
80
330
17
100
AcDbEntity
  8
CONTOUR
100
AcDbLine
 10
395.53797912597656
 20
286.56587982177734
 30
0.0
 11
395.56268310546875
 21
286.44368743896484
 31
0.0
  0
LINE
  5
81
330
17
100
AcDbEntity
  8
CONTOUR
100
AcDbLine
 10
395.53797912597656
 20
287.43412017822266
 30
0.0
 11
395.56268310546875
 21
287.5562973022461
 31
0.0
  0
LINE
  5
82
330
17
100
AcDbEntity
  8
CONTOUR
100
AcDbLine
 10
395.56268310546875
 20
185.05630493164062
 30
0.0
 11
395.59344482421875
 21
185.17709350585938
 31
0.0
  0
LINE
  5
83
330
17
100
AcDbEntity
  8
CONTOUR
100
AcDbLine
 10
395.56268310546875
 20
287.5562973022461
 30
0.0
 11
395.59344482421875
 21
287.6771011352539
 31
0.0
  0
LINE
  5
84
330
17
100
AcDbEntity
  8
CONTOUR
100
AcDbLine
 10
395.59344482421875
 20
183.82290649414062
 30
0.0
 11
395.56268310546875
 21
183.94369506835938
 31
0.0
  0
LINE
  5
85
330
17
100
AcDbEntity
  8
CONTOUR
100
AcDbLine
 10
395.59344482421875
 20
183.82290649414062
 30
0.0
 11
395.63018798828125
 21
183.7037811279297
 31
0.0
  0
LINE
  5
86
330
17
100
AcDbEntity
  8
CONTOUR
100
AcDbLine
 10
395.59344482421875
 20
185.17709350585938
 30
0.0
 11
395.63018798828125
 21
185.29620361328125
 31
0.0
  0
LINE
  5
87
330
17
100
AcDbEntity
  8
CONTOUR
100
AcDbLine
 10
395.59344482421875
 20
286.3228988647461
 30
0.0
 11
395.56268310546875
 21
286.44368743896484
 31
0.0
  0
LINE
  5
88
330
17
100
AcDbEntity
  8
CONTOUR
100
AcDbLine
 10
395.59344482421875
 20
286.3228988647461
 30
0.0
 11
395.63018798828125
 21
286.20377349853516
 31
0.0
  0
LINE
  5
89
330
17
100
AcDbEntity
  8
CONTOUR
100
AcDbLine
 10
395.59344482421875
 20
287.6771011352539
 30
0.0
 11
395.63018798828125
 21
287.7962112426758
 31
0.0
  0
LINE
  5
8A
330
17
100
AcDbEntity
  8
CONTOUR
100
AcDbLine
 10
395.63018798828125
 20
183.7037811279297
 30
0.0
 11
395.6728210449219
 21
183.58663940429688
 31
0.0
  0
LINE
  5
8B
330
17
100
AcDbEntity
  8
CONTOUR
100
AcDbLine
 10
395.63018798828125
 20
185.29620361328125
 30
0.0
 11
395.6728210449219
 21
185.41336059570312
 31
0.0
  0
LINE
  5
8C
330
17
100
AcDbEntity
  8
CONTOUR
100
AcDbLine
 10
395.63018798828125
 20
286.20377349853516
 30
0.0
 11
395.6728210449219
 21
286.0866470336914
 31
0.0
  0
LINE
  5
8D
330
17
100
AcDbEntity
  8
CONTOUR
100
AcDbLine
 10
395.63018798828125
 20
287.7962112426758
 30
0.0
 11
395.6728210449219
 21
287.9133529663086
 31
0.0
  0
LINE
  5
8E
330
17
100
AcDbEntity
  8
CONTOUR
100
AcDbLine
 10
395.6728210449219
 20
183.58663940429688
 30
0.0
 11
395.7212371826172
 21
183.4717559814453
 31
0.0
  0
LINE
  5
8F
330
17
100
AcDbEntity
  8
CONTOUR
100
AcDbLine
 10
395.6728210449219
 20
185.41336059570312
 30
0.0
 11
395.7212371826172
 21
185.52821350097656
 31
0.0
  0
LINE
  5
90
330
17
100
AcDbEntity
  8
CONTOUR
100
AcDbLine
 10
395.6728210449219
 20
286.0866470336914
 30
0.0
 11
395.7212371826172
 21
285.9717788696289
 31
0.0
  0
LINE
  5
91
330
17
100
AcDbEntity
  8
CONTOUR
100
AcDbLine
 10
395.6728210449219
 20
287.9133529663086
 30
0.0
 11
395.7212371826172
 21
288.0282211303711
 31
0.0
  0
LINE
  5
92
330
17
100
AcDbEntity
  8
CONTOUR
100
AcDbLine
 10
395.7212371826172
 20
183.4717559814453
 30
0.0
 11
395.7753143310547
 21
183.35946655273438
 31
0.0
  0
LINE
  5
93
330
17
100
AcDbEntity
  8
CONTOUR
100
AcDbLine
 10
395.7212371826172
 20
185.52821350097656
 30
0.0
 11
395.7753143310547
 21
185.64053344726562
 31
0.0
  0
LINE
  5
94
330
17
100
AcDbEntity
  8
CONTOUR
100
AcDbLine
 10
395.7212371826172
 20
285.9717788696289
 30
0.0
 11
395.7753143310547
 21
285.8594741821289
 31
0.0
  0
LINE
  5
95
330
17
100
AcDbEntity
  8
CONTOUR
100
AcDbLine
 10
395.7212371826172
 20
288.0282211303711
 30
0.0
 11
395.7753143310547
 21
288.1405258178711
 31
0.0
  0
LINE
  5
96
330
17
100
AcDbEntity
  8
CONTOUR
100
AcDbLine
 10
395.7753143310547
 20
183.35946655273438
 30
0.0
 11
395.8349304199219
 21
183.25
 31
0.0
  0
LINE
  5
97
330
17
100
AcDbEntity
  8
CONTOUR
100
AcDbLine
 10
395.7753143310547
 20
185.64053344726562
 30
0.0
 11
395.8349304199219
 21
185.75
 31
0.0
  0
LINE
  5
98
330
17
100
AcDbEntity
  8
CONTOUR
100
AcDbLine
 10
395.7753143310547
 20
285.8594741821289
 30
0.0
 11
395.8349304199219
 21
285.74999237060547
 31
0.0
  0
LINE
  5
99
330
17
100
AcDbEntity
  8
CONTOUR
100
AcDbLine
 10
395.7753143310547
 20
288.1405258178711
 30
0.0
 11
395.8349304199219
 21
288.24999237060547
 31
0.0
  0
LINE
  5
9A
330
17
100
AcDbEntity
  8
CONTOUR
100
AcDbLine
 10
395.8349304199219
 20
183.25
 30
0.0
 11
395.8999328613281
 21
183.1436309814453
 31
0.0
  0
LINE
  5
9B
330
17
100
AcDbEntity
  8
CONTOUR
100
AcDbLine
 10
395.8349304199219
 20
185.75
 30
0.0
 11
395.8999328613281
 21
185.85633850097656
 31
0.0
  0
LINE
  5
9C
330
17
100
AcDbEntity
  8
CONTOUR
100
AcDbLine
 10
395.8349304199219
 20
285.74999237060547
 30
0.0
 11
395.8999328613281
 21
285.6436233520508
 31
0.0
  0
LINE
  5
9D
330
17
100
AcDbEntity
  8
CONTOUR
100
AcDbLine
 10
395.8349304199219
 20
288.24999237060547
 30
0.0
 11
395.8999328613281
 21
288.35636138916016
 31
0.0
  0
LINE
  5
9E
330
17
100
AcDbEntity
  8
CONTOUR
100
AcDbLine
 10
395.8999328613281
 20
185.85633850097656
 30
0.0
 11
395.97015380859375
 21
185.9593505859375
 31
0.0
  0
LINE
  5
9F
330
17
100
AcDbEntity
  8
CONTOUR
100
AcDbLine
 10
395.8999328613281
 20
288.35636138916016
 30
0.0
 11
395.97015380859375
 21
288.45935821533203
 31
0.0
  0
LINE
  5
A0
330
17
100
AcDbEntity
  8
CONTOUR
100
AcDbLine
 10
395.8999328613281
 20
183.1436309814453
 30
0.0
 11
395.97015380859375
 21
183.0406494140625
 31
0.0
  0
LINE
  5
A1
330
17
100
AcDbEntity
  8
CONTOUR
100
AcDbLine
 10
395.97015380859375
 20
183.0406494140625
 30
0.0
 11
396.04542541503906
 21
182.94126892089844
 31
0.0
  0
LINE
  5
A2
330
17
100
AcDbEntity
  8
CONTOUR
100
AcDbLine
 10
395.97015380859375
 20
185.9593505859375
 30
0.0
 11
396.04542541503906
 21
186.05870056152344
 31
0.0
  0
LINE
  5
A3
330
17
100
AcDbEntity
  8
CONTOUR
100
AcDbLine
 10
395.97015380859375
 20
285.54064178466797
 30
0.0
 11
395.8999328613281
 21
285.6436233520508
 31
0.0
  0
LINE
  5
A4
330
17
100
AcDbEntity
  8
CONTOUR
100
AcDbLine
 10
395.97015380859375
 20
285.54064178466797
 30
0.0
 11
396.04542541503906
 21
285.44127655029297
 31
0.0
  0
LINE
  5
A5
330
17
100
AcDbEntity
  8
CONTOUR
100
AcDbLine
 10
395.97015380859375
 20
288.45935821533203
 30
0.0
 11
396.04542541503906
 21
288.55872344970703
 31
0.0
  0
LINE
  5
A6
330
17
100
AcDbEntity
  8
CONTOUR
100
AcDbLine
 10
396.04542541503906
 20
186.05870056152344
 30
0.0
 11
396.12554931640625
 21
186.15419006347656
 31
0.0
  0
LINE
  5
A7
330
17
100
AcDbEntity
  8
CONTOUR
100
AcDbLine
 10
396.04542541503906
 20
288.55872344970703
 30
0.0
 11
396.12554931640625
 21
288.65421295166016
 31
0.0
  0
LINE
  5
A8
330
17
100
AcDbEntity
  8
CONTOUR
100
AcDbLine
 10
396.12554931640625
 20
182.8457794189453
 30
0.0
 11
396.04542541503906
 21
182.94126892089844
 31
0.0
  0
LINE
  5
A9
330
17
100
AcDbEntity
  8
CONTOUR
100
AcDbLine
 10
396.12554931640625
 20
182.8457794189453
 30
0.0
 11
396.2103271484375
 21
182.75439453125
 31
0.0
  0
LINE
  5
AA
330
17
100
AcDbEntity
  8
CONTOUR
100
AcDbLine
 10
396.12554931640625
 20
186.15419006347656
 30
0.0
 11
396.2103271484375
 21
186.24560546875
 31
0.0
  0
LINE
  5
AB
330
17
100
AcDbEntity
  8
CONTOUR
100
AcDbLine
 10
396.12554931640625
 20
285.34578704833984
 30
0.0
 11
396.04542541503906
 21
285.44127655029297
 31
0.0
  0
LINE
  5
AC
330
17
100
AcDbEntity
  8
CONTOUR
100
AcDbLine
 10
396.12554931640625
 20
285.34578704833984
 30
0.0
 11
396.2103271484375
 21
285.25440216064453
 31
0.0
  0
LINE
  5
AD
330
17
100
AcDbEntity
  8
CONTOUR
100
AcDbLine
 10
396.12554931640625
 20
288.65421295166016
 30
0.0
 11
396.2103271484375
 21
288.7455825805664
 31
0.0
  0
LINE
  5
AE
330
17
100
AcDbEntity
  8
CONTOUR
100
AcDbLine
 10
396.2103271484375
 20
182.75439453125
 30
0.0
 11
396.299560546875
 21
182.6673583984375
 31
0.0
  0
LINE
  5
AF
330
17
100
AcDbEntity
  8
CONTOUR
100
AcDbLine
 10
396.2103271484375
 20
186.24560546875
 30
0.0
 11
396.299560546875
 21
186.3326416015625
 31
0.0
  0
LINE
  5
B0
330
17
100
AcDbEntity
  8
CONTOUR
100
AcDbLine
 10
396.2103271484375
 20
285.25440216064453
 30
0.0
 11
396.299560546875
 21
285.16736602783203
 31
0.0
  0
LINE
  5
B1
330
17
100
AcDbEntity
  8
CONTOUR
100
AcDbLine
 10
396.2103271484375
 20
288.7455825805664
 30
0.0
 11
396.299560546875
 21
288.8326187133789
 31
0.0
  0
LINE
  5
B2
330
17
100
AcDbEntity
  8
CONTOUR
100
AcDbLine
 10
396.299560546875
 20
182.6673583984375
 30
0.0
 11
396.3930358886719
 21
182.58489990234375
 31
0.0
  0
LINE
  5
B3
330
17
100
AcDbEntity
  8
CONTOUR
100
AcDbLine
 10
396.299560546875
 20
186.3326416015625
 30
0.0
 11
396.3930358886719
 21
186.41510009765625
 31
0.0
  0
LINE
  5
B4
330
17
100
AcDbEntity
  8
CONTOUR
100
AcDbLine
 10
396.299560546875
 20
285.16736602783203
 30
0.0
 11
396.3930358886719
 21
285.08487701416016
 31
0.0
  0
LINE
  5
B5
330
17
100
AcDbEntity
  8
CONTOUR
100
AcDbLine
 10
396.299560546875
 20
288.8326187133789
 30
0.0
 11
396.3930358886719
 21
288.9151077270508
 31
0.0
  0
LINE
  5
B6
330
17
100
AcDbEntity
  8
CONTOUR
100
AcDbLine
 10
396.3930358886719
 20
182.58489990234375
 30
0.0
 11
396.49049377441406
 21
182.5071563720703
 31
0.0
  0
LINE
  5
B7
330
17
100
AcDbEntity
  8
CONTOUR
100
AcDbLine
 10
396.3930358886719
 20
186.41510009765625
 30
0.0
 11
396.49049377441406
 21
186.49281311035156
 31
0.0
  0
LINE
  5
B8
330
17
100
AcDbEntity
  8
CONTOUR
100
AcDbLine
 10
396.3930358886719
 20
285.08487701416016
 30
0.0
 11
396.49049377441406
 21
285.00716400146484
 31
0.0
  0
LINE
  5
B9
330
17
100
AcDbEntity
  8
CONTOUR
100
AcDbLine
 10
396.3930358886719
 20
288.9151077270508
 30
0.0
 11
396.49049377441406
 21
288.9928207397461
 31
0.0
  0
LINE
  5
BA
330
17
100
AcDbEntity
  8
CONTOUR
100
AcDbLine
 10
396.49049377441406
 20
186.49281311035156
 30
0.0
 11
396.5917053222656
 21
186.5655975341797
 31
0.0
  0
LINE
  5
BB
330
17
100
AcDbEntity
  8
CONTOUR
100
AcDbLine
 10
396.49049377441406
 20
288.9928207397461
 30
0.0
 11
396.5917053222656
 21
289.06558990478516
 31
0.0
  0
LINE
  5
BC
330
17
100
AcDbEntity
  8
CONTOUR
100
AcDbLine
 10
396.5917053222656
 20
182.4344024658203
 30
0.0
 11
396.49049377441406
 21
182.5071563720703
 31
0.0
  0
LINE
  5
BD
330
17
100
AcDbEntity
  8
CONTOUR
100
AcDbLine
 10
396.5917053222656
 20
182.4344024658203
 30
0.0
 11
396.6964111328125
 21
182.3667449951172
 31
0.0
  0
LINE
  5
BE
330
17
100
AcDbEntity
  8
CONTOUR
100
AcDbLine
 10
396.5917053222656
 20
186.5655975341797
 30
0.0
 11
396.6964111328125
 21
186.6332244873047
 31
0.0
  0
LINE
  5
BF
330
17
100
AcDbEntity
  8
CONTOUR
100
AcDbLine
 10
396.5917053222656
 20
284.9343948364258
 30
0.0
 11
396.49049377441406
 21
285.00716400146484
 31
0.0
  0
LINE
  5
C0
330
17
100
AcDbEntity
  8
CONTOUR
100
AcDbLine
 10
396.5917053222656
 20
284.9343948364258
 30
0.0
 11
396.6964111328125
 21
284.8667678833008
 31
0.0
  0
LINE
  5
C1
330
17
100
AcDbEntity
  8
CONTOUR
100
AcDbLine
 10
396.5917053222656
 20
289.06558990478516
 30
0.0
 11
396.6964111328125
 21
289.13321685791016
 31
0.0
  0
LINE
  5
C2
330
17
100
AcDbEntity
  8
CONTOUR
100
AcDbLine
 10
396.6964111328125
 20
186.6332244873047
 30
0.0
 11
396.8043670654297
 21
186.69554138183594
 31
0.0
  0
LINE
  5
C3
330
17
100
AcDbEntity
  8
CONTOUR
100
AcDbLine
 10
396.6964111328125
 20
289.13321685791016
 30
0.0
 11
396.8043670654297
 21
289.19554901123047
 31
0.0
  0
LINE
  5
C4
330
17
100
AcDbEntity
  8
CONTOUR
100
AcDbLine
 10
396.8043670654297
 20
182.30442810058594
 30
0.0
 11
396.6964111328125
 21
182.3667449951172
 31
0.0
  0
LINE
  5
C5
330
17
100
AcDbEntity
  8
CONTOUR
100
AcDbLine
 10
396.8043670654297
 20
182.30442810058594
 30
0.0
 11
396.915283203125
 21
182.24758911132812
 31
0.0
  0
LINE
  5
C6
330
17
100
AcDbEntity
  8
CONTOUR
100
AcDbLine
 10
396.8043670654297
 20
186.69554138183594
 30
0.0
 11
396.915283203125
 21
186.7523956298828
 31
0.0
  0
LINE
  5
C7
330
17
100
AcDbEntity
  8
CONTOUR
100
AcDbLine
 10
396.8043670654297
 20
284.80443572998047
 30
0.0
 11
396.6964111328125
 21
284.8667678833008
 31
0.0
  0
LINE
  5
C8
330
17
100
AcDbEntity
  8
CONTOUR
100
AcDbLine
 10
396.8043670654297
 20
284.80443572998047
 30
0.0
 11
396.915283203125
 21
284.74756622314453
 31
0.0
  0
LINE
  5
C9
330
17
100
AcDbEntity
  8
CONTOUR
100
AcDbLine
 10
396.8043670654297
 20
289.19554901123047
 30
0.0
 11
396.915283203125
 21
289.2524185180664
 31
0.0
  0
LINE
  5
CA
330
17
100
AcDbEntity
  8
CONTOUR
100
AcDbLine
 10
396.915283203125
 20
186.7523956298828
 30
0.0
 11
397.02891540527344
 21
186.80368041992188
 31
0.0
  0
LINE
  5
CB
330
17
100
AcDbEntity
  8
CONTOUR
100
AcDbLine
 10
396.915283203125
 20
289.2524185180664
 30
0.0
 11
397.02891540527344
 21
289.3036880493164
 31
0.0
  0
LINE
  5
CC
330
17
100
AcDbEntity
  8
CONTOUR
100
AcDbLine
 10
397.02891540527344
 20
182.19631958007812
 30
0.0
 11
396.915283203125
 21
182.24758911132812
 31
0.0
  0
LINE
  5
CD
330
17
100
AcDbEntity
  8
CONTOUR
100
AcDbLine
 10
397.02891540527344
 20
182.19631958007812
 30
0.0
 11
397.1449432373047
 21
182.15074157714844
 31
0.0
  0
LINE
  5
CE
330
17
100
AcDbEntity
  8
CONTOUR
100
AcDbLine
 10
397.02891540527344
 20
186.80368041992188
 30
0.0
 11
397.1449432373047
 21
186.84922790527344
 31
0.0
  0
LINE
  5
CF
330
17
100
AcDbEntity
  8
CONTOUR
100
AcDbLine
 10
397.02891540527344
 20
284.69629669189453
 30
0.0
 11
396.915283203125
 21
284.74756622314453
 31
0.0
  0
LINE
  5
D0
330
17
100
AcDbEntity
  8
CONTOUR
100
AcDbLine
 10
397.02891540527344
 20
284.69629669189453
 30
0.0
 11
397.1449432373047
 21
284.65076446533203
 31
0.0
  0
LINE
  5
D1
330
17
100
AcDbEntity
  8
CONTOUR
100
AcDbLine
 10
397.02891540527344
 20
289.3036880493164
 30
0.0
 11
397.1449432373047
 21
289.3492202758789
 31
0.0
  0
LINE
  5
D2
330
17
100
AcDbEntity
  8
CONTOUR
100
AcDbLine
 10
397.1449432373047
 20
186.84922790527344
 30
0.0
 11
397.2631072998047
 21
186.88894653320312
 31
0.0
  0
LINE
  5
D3
330
17
100
AcDbEntity
  8
CONTOUR
100
AcDbLine
 10
397.1449432373047
 20
289.3492202758789
 30
0.0
 11
397.2631072998047
 21
289.38892364501953
 31
0.0
  0
LINE
  5
D4
330
17
100
AcDbEntity
  8
CONTOUR
100
AcDbLine
 10
397.2631072998047
 20
182.111083984375
 30
0.0
 11
397.1449432373047
 21
182.15074157714844
 31
0.0
  0
LINE
  5
D5
330
17
100
AcDbEntity
  8
CONTOUR
100
AcDbLine
 10
397.2631072998047
 20
182.111083984375
 30
0.0
 11
397.3831024169922
 21
182.07730102539062
 31
0.0
  0
LINE
  5
D6
330
17
100
AcDbEntity
  8
CONTOUR
100
AcDbLine
 10
397.2631072998047
 20
186.88894653320312
 30
0.0
 11
397.3831024169922
 21
186.92269897460938
 31
0.0
  0
LINE
  5
D7
330
17
100
AcDbEntity
  8
CONTOUR
100
AcDbLine
 10
397.2631072998047
 20
284.6110610961914
 30
0.0
 11
397.1449432373047
 21
284.65076446533203
 31
0.0
  0
LINE
  5
D8
330
17
100
AcDbEntity
  8
CONTOUR
100
AcDbLine
 10
397.2631072998047
 20
284.6110610961914
 30
0.0
 11
397.3831024169922
 21
284.57730865478516
 31
0.0
  0
LINE
  5
D9
330
17
100
AcDbEntity
  8
CONTOUR
100
AcDbLine
 10
397.2631072998047
 20
289.38892364501953
 30
0.0
 11
397.3831024169922
 21
289.42269134521484
 31
0.0
  0
LINE
  5
DA
330
17
100
AcDbEntity
  8
CONTOUR
100
AcDbLine
 10
397.3831024169922
 20
186.92269897460938
 30
0.0
 11
397.504638671875
 21
186.950439453125
 31
0.0
  0
LINE
  5
DB
330
17
100
AcDbEntity
  8
CONTOUR
100
AcDbLine
 10
397.3831024169922
 20
289.42269134521484
 30
0.0
 11
397.504638671875
 21
289.45043182373047
 31
0.0
  0
LINE
  5
DC
330
17
100
AcDbEntity
  8
CONTOUR
100
AcDbLine
 10
397.3831024169922
 20
182.07730102539062
 30
0.0
 11
397.504638671875
 21
182.049560546875
 31
0.0
  0
LINE
  5
DD
330
17
100
AcDbEntity
  8
CONTOUR
100
AcDbLine
 10
397.504638671875
 20
182.049560546875
 30
0.0
 11
397.6273956298828
 21
182.02792358398438
 31
0.0
  0
LINE
  5
DE
330
17
100
AcDbEntity
  8
CONTOUR
100
AcDbLine
 10
397.504638671875
 20
186.950439453125
 30
0.0
 11
397.6273956298828
 21
186.97207641601562
 31
0.0
  0
LINE
  5
DF
330
17
100
AcDbEntity
  8
CONTOUR
100
AcDbLine
 10
397.504638671875
 20
284.54956817626953
 30
0.0
 11
397.3831024169922
 21
284.57730865478516
 31
0.0
  0
LINE
  5
E0
330
17
100
AcDbEntity
  8
CONTOUR
100
AcDbLine
 10
397.504638671875
 20
284.54956817626953
 30
0.0
 11
397.6273956298828
 21
284.52791595458984
 31
0.0
  0
LINE
  5
E1
330
17
100
AcDbEntity
  8
CONTOUR
100
AcDbLine
 10
397.504638671875
 20
289.45043182373047
 30
0.0
 11
397.6273956298828
 21
289.4720687866211
 31
0.0
  0
LINE
  5
E2
330
17
100
AcDbEntity
  8
CONTOUR
100
AcDbLine
 10
397.6273956298828
 20
182.02792358398438
 30
0.0
 11
397.75108337402344
 21
182.0124053955078
 31
0.0
  0
LINE
  5
E3
330
17
100
AcDbEntity
  8
CONTOUR
100
AcDbLine
 10
397.6273956298828
 20
186.97207641601562
 30
0.0
 11
397.75108337402344
 21
186.98756408691406
 31
0.0
  0
LINE
  5
E4
330
17
100
AcDbEntity
  8
CONTOUR
100
AcDbLine
 10
397.6273956298828
 20
284.52791595458984
 30
0.0
 11
397.75108337402344
 21
284.51241302490234
 31
0.0
  0
LINE
  5
E5
330
17
100
AcDbEntity
  8
CONTOUR
100
AcDbLine
 10
397.6273956298828
 20
289.4720687866211
 30
0.0
 11
397.75108337402344
 21
289.4875717163086
 31
0.0
  0
LINE
  5
E6
330
17
100
AcDbEntity
  8
CONTOUR
100
AcDbLine
 10
397.75108337402344
 20
182.0124053955078
 30
0.0
 11
397.87538146972656
 21
182.0030975341797
 31
0.0
  0
LINE
  5
E7
330
17
100
AcDbEntity
  8
CONTOUR
100
AcDbLine
 10
397.75108337402344
 20
186.98756408691406
 30
0.0
 11
397.87538146972656
 21
186.9968719482422
 31
0.0
  0
LINE
  5
E8
330
17
100
AcDbEntity
  8
CONTOUR
100
AcDbLine
 10
397.75108337402344
 20
284.51241302490234
 30
0.0
 11
397.87538146972656
 21
284.5031051635742
 31
0.0
  0
LINE
  5
E9
330
17
100
AcDbEntity
  8
CONTOUR
100
AcDbLine
 10
397.75108337402344
 20
289.4875717163086
 30
0.0
 11
397.87538146972656
 21
289.4968948364258
 31
0.0
  0
LINE
  5
EA
330
17
100
AcDbEntity
  8
CONTOUR
100
AcDbLine
 10
397.87538146972656
 20
182.0030975341797
 30
0.0
 11
398.0
 21
182.0
 31
0.0
  0
LINE
  5
EB
330
17
100
AcDbEntity
  8
CONTOUR
100
AcDbLine
 10
397.87538146972656
 20
186.9968719482422
 30
0.0
 11
398.0
 21
187.0
 31
0.0
  0
LINE
  5
EC
330
17
100
AcDbEntity
  8
CONTOUR
100
AcDbLine
 10
397.87538146972656
 20
284.5031051635742
 30
0.0
 11
398.0
 21
284.49999237060547
 31
0.0
  0
LINE
  5
ED
330
17
100
AcDbEntity
  8
CONTOUR
100
AcDbLine
 10
397.87538146972656
 20
289.4968948364258
 30
0.0
 11
398.0
 21
289.49999237060547
 31
0.0
  0
LINE
  5
EE
330
17
100
AcDbEntity
  8
CONTOUR
100
AcDbLine
 10
398.0
 20
182.0
 30
0.0
 11
398.12461853027344
 21
182.0030975341797
 31
0.0
  0
LINE
  5
EF
330
17
100
AcDbEntity
  8
CONTOUR
100
AcDbLine
 10
398.0
 20
187.0
 30
0.0
 11
398.12461853027344
 21
186.9968719482422
 31
0.0
  0
LINE
  5
F0
330
17
100
AcDbEntity
  8
CONTOUR
100
AcDbLine
 10
398.0
 20
284.49999237060547
 30
0.0
 11
398.12461853027344
 21
284.5031051635742
 31
0.0
  0
LINE
  5
F1
330
17
100
AcDbEntity
  8
CONTOUR
100
AcDbLine
 10
398.0
 20
289.49999237060547
 30
0.0
 11
398.12461853027344
 21
289.4968948364258
 31
0.0
  0
LINE
  5
F2
330
17
100
AcDbEntity
  8
CONTOUR
100
AcDbLine
 10
398.12461853027344
 20
182.0030975341797
 30
0.0
 11
398.24891662597656
 21
182.0124053955078
 31
0.0
  0
LINE
  5
F3
330
17
100
AcDbEntity
  8
CONTOUR
100
AcDbLine
 10
398.12461853027344
 20
186.9968719482422
 30
0.0
 11
398.24891662597656
 21
186.98756408691406
 31
0.0
  0
LINE
  5
F4
330
17
100
AcDbEntity
  8
CONTOUR
100
AcDbLine
 10
398.12461853027344
 20
284.5031051635742
 30
0.0
 11
398.24891662597656
 21
284.51241302490234
 31
0.0
  0
LINE
  5
F5
330
17
100
AcDbEntity
  8
CONTOUR
100
AcDbLine
 10
398.12461853027344
 20
289.4968948364258
 30
0.0
 11
398.24891662597656
 21
289.4875717163086
 31
0.0
  0
LINE
  5
F6
330
17
100
AcDbEntity
  8
CONTOUR
100
AcDbLine
 10
398.24891662597656
 20
182.0124053955078
 30
0.0
 11
398.3726043701172
 21
182.02792358398438
 31
0.0
  0
LINE
  5
F7
330
17
100
AcDbEntity
  8
CONTOUR
100
AcDbLine
 10
398.24891662597656
 20
186.98756408691406
 30
0.0
 11
398.3726043701172
 21
186.97207641601562
 31
0.0
  0
LINE
  5
F8
330
17
100
AcDbEntity
  8
CONTOUR
100
AcDbLine
 10
398.24891662597656
 20
284.51241302490234
 30
0.0
 11
398.3726043701172
 21
284.52791595458984
 31
0.0
  0
LINE
  5
F9
330
17
100
AcDbEntity
  8
CONTOUR
100
AcDbLine
 10
398.24891662597656
 20
289.4875717163086
 30
0.0
 11
398.3726043701172
 21
289.4720687866211
 31
0.0
  0
LINE
  5
FA
330
17
100
AcDbEntity
  8
CONTOUR
100
AcDbLine
 10
398.3726043701172
 20
186.97207641601562
 30
0.0
 11
398.495361328125
 21
186.950439453125
 31
0.0
  0
LINE
  5
FB
330
17
100
AcDbEntity
  8
CONTOUR
100
AcDbLine
 10
398.3726043701172
 20
289.4720687866211
 30
0.0
 11
398.495361328125
 21
289.45043182373047
 31
0.0
  0
LINE
  5
FC
330
17
100
AcDbEntity
  8
CONTOUR
100
AcDbLine
 10
398.495361328125
 20
182.049560546875
 30
0.0
 11
398.3726043701172
 21
182.02792358398438
 31
0.0
  0
LINE
  5
FD
330
17
100
AcDbEntity
  8
CONTOUR
100
AcDbLine
 10
398.495361328125
 20
182.049560546875
 30
0.0
 11
398.6168975830078
 21
182.07730102539062
 31
0.0
  0
LINE
  5
FE
330
17
100
AcDbEntity
  8
CONTOUR
100
AcDbLine
 10
398.495361328125
 20
186.950439453125
 30
0.0
 11
398.6168975830078
 21
186.92269897460938
 31
0.0
  0
LINE
  5
FF
330
17
100
AcDbEntity
  8
CONTOUR
100
AcDbLine
 10
398.495361328125
 20
284.54956817626953
 30
0.0
 11
398.3726043701172
 21
284.52791595458984
 31
0.0
  0
LINE
  5
100
330
17
100
AcDbEntity
  8
CONTOUR
100
AcDbLine
 10
398.495361328125
 20
284.54956817626953
 30
0.0
 11
398.6168975830078
 21
284.57730865478516
 31
0.0
  0
LINE
  5
101
330
17
100
AcDbEntity
  8
CONTOUR
100
AcDbLine
 10
398.495361328125
 20
289.45043182373047
 30
0.0
 11
398.6168975830078
 21
289.42269134521484
 31
0.0
  0
LINE
  5
102
330
17
100
AcDbEntity
  8
CONTOUR
100
AcDbLine
 10
398.6168975830078
 20
182.07730102539062
 30
0.0
 11
398.7368927001953
 21
182.111083984375
 31
0.0
  0
LINE
  5
103
330
17
100
AcDbEntity
  8
CONTOUR
100
AcDbLine
 10
398.6168975830078
 20
186.92269897460938
 30
0.0
 11
398.7368927001953
 21
186.88894653320312
 31
0.0
  0
LINE
  5
104
330
17
100
AcDbEntity
  8
CONTOUR
100
AcDbLine
 10
398.6168975830078
 20
284.57730865478516
 30
0.0
 11
398.7368927001953
 21
284.6110610961914
 31
0.0
  0
LINE
  5
105
330
17
100
AcDbEntity
  8
CONTOUR
100
AcDbLine
 10
398.6168975830078
 20
289.42269134521484
 30
0.0
 11
398.7368927001953
 21
289.38892364501953
 31
0.0
  0
LINE
  5
106
330
17
100
AcDbEntity
  8
CONTOUR
100
AcDbLine
 10
398.7368927001953
 20
182.111083984375
 30
0.0
 11
398.8550567626953
 21
182.15074157714844
 31
0.0
  0
LINE
  5
107
330
17
100
AcDbEntity
  8
CONTOUR
100
AcDbLine
 10
398.7368927001953
 20
186.88894653320312
 30
0.0
 11
398.8550567626953
 21
186.84922790527344
 31
0.0
  0
LINE
  5
108
330
17
100
AcDbEntity
  8
CONTOUR
100
AcDbLine
 10
398.7368927001953
 20
284.6110610961914
 30
0.0
 11
398.8550567626953
 21
284.65076446533203
 31
0.0
  0
LINE
  5
109
330
17
100
AcDbEntity
  8
CONTOUR
100
AcDbLine
 10
398.7368927001953
 20
289.38892364501953
 30
0.0
 11
398.8550567626953
 21
289.3492202758789
 31
0.0
  0
LINE
  5
10A
330
17
100
AcDbEntity
  8
CONTOUR
100
AcDbLine
 10
398.8550567626953
 20
182.15074157714844
 30
0.0
 11
398.97108459472656
 21
182.19631958007812
 31
0.0
  0
LINE
  5
10B
330
17
100
AcDbEntity
  8
CONTOUR
100
AcDbLine
 10
398.8550567626953
 20
186.84922790527344
 30
0.0
 11
398.97108459472656
 21
186.80368041992188
 31
0.0
  0
LINE
  5
10C
330
17
100
AcDbEntity
  8
CONTOUR
100
AcDbLine
 10
398.8550567626953
 20
284.65076446533203
 30
0.0
 11
398.97108459472656
 21
284.69629669189453
 31
0.0
  0
LINE
  5
10D
330
17
100
AcDbEntity
  8
CONTOUR
100
AcDbLine
 10
398.8550567626953
 20
289.3492202758789
 30
0.0
 11
398.97108459472656
 21
289.3036880493164
 31
0.0
  0
LINE
  5
10E
330
17
100
AcDbEntity
  8
CONTOUR
100
AcDbLine
 10
398.97108459472656
 20
182.19631958007812
 30
0.0
 11
399.08470153808594
 21
182.24758911132812
 31
0.0
  0
LINE
  5
10F
330
17
100
AcDbEntity
  8
CONTOUR
100
AcDbLine
 10
398.97108459472656
 20
186.80368041992188
 30
0.0
 11
399.08470153808594
 21
186.7523956298828
 31
0.0
  0
LINE
  5
110
330
17
100
AcDbEntity
  8
CONTOUR
100
AcDbLine
 10
398.97108459472656
 20
284.69629669189453
 30
0.0
 11
399.08470153808594
 21
284.74756622314453
 31
0.0
  0
LINE
  5
111
330
17
100
AcDbEntity
  8
CONTOUR
100
AcDbLine
 10
398.97108459472656
 20
289.3036880493164
 30
0.0
 11
399.08470153808594
 21
289.2524185180664
 31
0.0
  0
LINE
  5
112
330
17
100
AcDbEntity
  8
CONTOUR
100
AcDbLine
 10
399.08470153808594
 20
182.24758911132812
 30
0.0
 11
399.1956329345703
 21
182.30442810058594
 31
0.0
  0
LINE
  5
113
330
17
100
AcDbEntity
  8
CONTOUR
100
AcDbLine
 10
399.08470153808594
 20
186.7523956298828
 30
0.0
 11
399.1956329345703
 21
186.69554138183594
 31
0.0
  0
LINE
  5
114
330
17
100
AcDbEntity
  8
CONTOUR
100
AcDbLine
 10
399.08470153808594
 20
284.74756622314453
 30
0.0
 11
399.1956329345703
 21
284.80443572998047
 31
0.0
  0
LINE
  5
115
330
17
100
AcDbEntity
  8
CONTOUR
100
AcDbLine
 10
399.08470153808594
 20
289.2524185180664
 30
0.0
 11
399.1956329345703
 21
289.19554901123047
 31
0.0
  0
LINE
  5
116
330
17
100
AcDbEntity
  8
CONTOUR
100
AcDbLine
 10
399.1956329345703
 20
182.30442810058594
 30
0.0
 11
399.3035888671875
 21
182.3667449951172
 31
0.0
  0
LINE
  5
117
330
17
100
AcDbEntity
  8
CONTOUR
100
AcDbLine
 10
399.1956329345703
 20
186.69554138183594
 30
0.0
 11
399.3035888671875
 21
186.6332244873047
 31
0.0
  0
LINE
  5
118
330
17
100
AcDbEntity
  8
CONTOUR
100
AcDbLine
 10
399.1956329345703
 20
284.80443572998047
 30
0.0
 11
399.3035888671875
 21
284.8667678833008
 31
0.0
  0
LINE
  5
119
330
17
100
AcDbEntity
  8
CONTOUR
100
AcDbLine
 10
399.1956329345703
 20
289.19554901123047
 30
0.0
 11
399.3035888671875
 21
289.13321685791016
 31
0.0
  0
LINE
  5
11A
330
17
100
AcDbEntity
  8
CONTOUR
100
AcDbLine
 10
399.3035888671875
 20
182.3667449951172
 30
0.0
 11
399.4082946777344
 21
182.4344024658203
 31
0.0
  0
LINE
  5
11B
330
17
100
AcDbEntity
  8
CONTOUR
100
AcDbLine
 10
399.3035888671875
 20
186.6332244873047
 30
0.0
 11
399.4082946777344
 21
186.5655975341797
 31
0.0
  0
LINE
  5
11C
330
17
100
AcDbEntity
  8
CONTOUR
100
AcDbLine
 10
399.3035888671875
 20
284.8667678833008
 30
0.0
 11
399.4082946777344
 21
284.9343948364258
 31
0.0
  0
LINE
  5
11D
330
17
100
AcDbEntity
  8
CONTOUR
100
AcDbLine
 10
399.3035888671875
 20
289.13321685791016
 30
0.0
 11
399.4082946777344
 21
289.06558990478516
 31
0.0
  0
LINE
  5
11E
330
17
100
AcDbEntity
  8
CONTOUR
100
AcDbLine
 10
399.4082946777344
 20
182.4344024658203
 30
0.0
 11
399.50950622558594
 21
182.5071563720703
 31
0.0
  0
LINE
  5
11F
330
17
100
AcDbEntity
  8
CONTOUR
100
AcDbLine
 10
399.4082946777344
 20
186.5655975341797
 30
0.0
 11
399.50950622558594
 21
186.49281311035156
 31
0.0
  0
LINE
  5
120
330
17
100
AcDbEntity
  8
CONTOUR
100
AcDbLine
 10
399.4082946777344
 20
284.9343948364258
 30
0.0
 11
399.50950622558594
 21
285.00716400146484
 31
0.0
  0
LINE
  5
121
330
17
100
AcDbEntity
  8
CONTOUR
100
AcDbLine
 10
399.4082946777344
 20
289.06558990478516
 30
0.0
 11
399.50950622558594
 21
288.9928207397461
 31
0.0
  0
LINE
  5
122
330
17
100
AcDbEntity
  8
CONTOUR
100
AcDbLine
 10
399.50950622558594
 20
182.5071563720703
 30
0.0
 11
399.6069641113281
 21
182.58489990234375
 31
0.0
  0
LINE
  5
123
330
17
100
AcDbEntity
  8
CONTOUR
100
AcDbLine
 10
399.50950622558594
 20
186.49281311035156
 30
0.0
 11
399.6069641113281
 21
186.41510009765625
 31
0.0
  0
LINE
  5
124
330
17
100
AcDbEntity
  8
CONTOUR
100
AcDbLine
 10
399.50950622558594
 20
285.00716400146484
 30
0.0
 11
399.6069641113281
 21
285.08487701416016
 31
0.0
  0
LINE
  5
125
330
17
100
AcDbEntity
  8
CONTOUR
100
AcDbLine
 10
399.50950622558594
 20
288.9928207397461
 30
0.0
 11
399.6069641113281
 21
288.9151077270508
 31
0.0
  0
LINE
  5
126
330
17
100
AcDbEntity
  8
CONTOUR
100
AcDbLine
 10
399.6069641113281
 20
182.58489990234375
 30
0.0
 11
399.70042419433594
 21
182.6673583984375
 31
0.0
  0
LINE
  5
127
330
17
100
AcDbEntity
  8
CONTOUR
100
AcDbLine
 10
399.6069641113281
 20
186.41510009765625
 30
0.0
 11
399.70042419433594
 21
186.3326416015625
 31
0.0
  0
LINE
  5
128
330
17
100
AcDbEntity
  8
CONTOUR
100
AcDbLine
 10
399.6069641113281
 20
285.08487701416016
 30
0.0
 11
399.70042419433594
 21
285.16736602783203
 31
0.0
  0
LINE
  5
129
330
17
100
AcDbEntity
  8
CONTOUR
100
AcDbLine
 10
399.6069641113281
 20
288.9151077270508
 30
0.0
 11
399.70042419433594
 21
288.8326187133789
 31
0.0
  0
LINE
  5
12A
330
17
100
AcDbEntity
  8
CONTOUR
100
AcDbLine
 10
399.70042419433594
 20
182.6673583984375
 30
0.0
 11
399.7896728515625
 21
182.75439453125
 31
0.0
  0
LINE
  5
12B
330
17
100
AcDbEntity
  8
CONTOUR
100
AcDbLine
 10
399.70042419433594
 20
186.3326416015625
 30
0.0
 11
399.7896728515625
 21
186.24560546875
 31
0.0
  0
LINE
  5
12C
330
17
100
AcDbEntity
  8
CONTOUR
100
AcDbLine
 10
399.70042419433594
 20
285.16736602783203
 30
0.0
 11
399.7896728515625
 21
285.25440216064453
 31
0.0
  0
LINE
  5
12D
330
17
100
AcDbEntity
  8
CONTOUR
100
AcDbLine
 10
399.70042419433594
 20
288.8326187133789
 30
0.0
 11
399.7896728515625
 21
288.7455825805664
 31
0.0
  0
LINE
  5
12E
330
17
100
AcDbEntity
  8
CONTOUR
100
AcDbLine
 10
399.7896728515625
 20
182.75439453125
 30
0.0
 11
399.87445068359375
 21
182.8457794189453
 31
0.0
  0
LINE
  5
12F
330
17
100
AcDbEntity
  8
CONTOUR
100
AcDbLine
 10
399.7896728515625
 20
186.24560546875
 30
0.0
 11
399.87445068359375
 21
186.15419006347656
 31
0.0
  0
LINE
  5
130
330
17
100
AcDbEntity
  8
CONTOUR
100
AcDbLine
 10
399.7896728515625
 20
285.25440216064453
 30
0.0
 11
399.87445068359375
 21
285.34578704833984
 31
0.0
  0
LINE
  5
131
330
17
100
AcDbEntity
  8
CONTOUR
100
AcDbLine
 10
399.7896728515625
 20
288.7455825805664
 30
0.0
 11
399.87445068359375
 21
288.65421295166016
 31
0.0
  0
LINE
  5
132
330
17
100
AcDbEntity
  8
CONTOUR
100
AcDbLine
 10
399.87445068359375
 20
182.8457794189453
 30
0.0
 11
399.95457458496094
 21
182.94126892089844
 31
0.0
  0
LINE
  5
133
330
17
100
AcDbEntity
  8
CONTOUR
100
AcDbLine
 10
399.87445068359375
 20
186.15419006347656
 30
0.0
 11
399.95457458496094
 21
186.05870056152344
 31
0.0
  0
LINE
  5
134
330
17
100
AcDbEntity
  8
CONTOUR
100
AcDbLine
 10
399.87445068359375
 20
285.34578704833984
 30
0.0
 11
399.95457458496094
 21
285.44127655029297
 31
0.0
  0
LINE
  5
135
330
17
100
AcDbEntity
  8
CONTOUR
100
AcDbLine
 10
399.87445068359375
 20
288.65421295166016
 30
0.0
 11
399.95457458496094
 21
288.55872344970703
 31
0.0
  0
LINE
  5
136
330
17
100
AcDbEntity
  8
CONTOUR
100
AcDbLine
 10
399.95457458496094
 20
182.94126892089844
 30
0.0
 11
400.02984619140625
 21
183.0406494140625
 31
0.0
  0
LINE
  5
137
330
17
100
AcDbEntity
  8
CONTOUR
100
AcDbLine
 10
399.95457458496094
 20
186.05870056152344
 30
0.0
 11
400.02984619140625
 21
185.9593505859375
 31
0.0
  0
LINE
  5
138
330
17
100
AcDbEntity
  8
CONTOUR
100
AcDbLine
 10
399.95457458496094
 20
285.44127655029297
 30
0.0
 11
400.02984619140625
 21
285.54064178466797
 31
0.0
  0
LINE
  5
139
330
17
100
AcDbEntity
  8
CONTOUR
100
AcDbLine
 10
399.95457458496094
 20
288.55872344970703
 30
0.0
 11
400.02984619140625
 21
288.45935821533203
 31
0.0
  0
LINE
  5
13A
330
17
100
AcDbEntity
  8
CONTOUR
100
AcDbLine
 10
400.02984619140625
 20
183.0406494140625
 30
0.0
 11
400.1000671386719
 21
183.1436309814453
 31
0.0
  0
LINE
  5
13B
330
17
100
AcDbEntity
  8
CONTOUR
100
AcDbLine
 10
400.02984619140625
 20
185.9593505859375
 30
0.0
 11
400.1000671386719
 21
185.85633850097656
 31
0.0
  0
LINE
  5
13C
330
17
100
AcDbEntity
  8
CONTOUR
100
AcDbLine
 10
400.02984619140625
 20
285.54064178466797
 30
0.0
 11
400.1000671386719
 21
285.6436233520508
 31
0.0
  0
LINE
  5
13D
330
17
100
AcDbEntity
  8
CONTOUR
100
AcDbLine
 10
400.02984619140625
 20
288.45935821533203
 30
0.0
 11
400.1000671386719
 21
288.35636138916016
 31
0.0
  0
LINE
  5
13E
330
17
100
AcDbEntity
  8
CONTOUR
100
AcDbLine
 10
400.1000671386719
 20
183.1436309814453
 30
0.0
 11
400.1650695800781
 21
183.25
 31
0.0
  0
LINE
  5
13F
330
17
100
AcDbEntity
  8
CONTOUR
100
AcDbLine
 10
400.1000671386719
 20
185.85633850097656
 30
0.0
 11
400.1650695800781
 21
185.75
 31
0.0
  0
LINE
  5
140
330
17
100
AcDbEntity
  8
CONTOUR
100
AcDbLine
 10
400.1000671386719
 20
285.6436233520508
 30
0.0
 11
400.1650695800781
 21
285.74999237060547
 31
0.0
  0
LINE
  5
141
330
17
100
AcDbEntity
  8
CONTOUR
100
AcDbLine
 10
400.1000671386719
 20
288.35636138916016
 30
0.0
 11
400.1650695800781
 21
288.24999237060547
 31
0.0
  0
LINE
  5
142
330
17
100
AcDbEntity
  8
CONTOUR
100
AcDbLine
 10
400.1650695800781
 20
183.25
 30
0.0
 11
400.2246856689453
 21
183.35946655273438
 31
0.0
  0
LINE
  5
143
330
17
100
AcDbEntity
  8
CONTOUR
100
AcDbLine
 10
400.1650695800781
 20
185.75
 30
0.0
 11
400.2246856689453
 21
185.64053344726562
 31
0.0
  0
LINE
  5
144
330
17
100
AcDbEntity
  8
CONTOUR
100
AcDbLine
 10
400.1650695800781
 20
285.74999237060547
 30
0.0
 11
400.2246856689453
 21
285.8594741821289
 31
0.0
  0
LINE
  5
145
330
17
100
AcDbEntity
  8
CONTOUR
100
AcDbLine
 10
400.1650695800781
 20
288.24999237060547
 30
0.0
 11
400.2246856689453
 21
288.1405258178711
 31
0.0
  0
LINE
  5
146
330
17
100
AcDbEntity
  8
CONTOUR
100
AcDbLine
 10
400.2246856689453
 20
185.64053344726562
 30
0.0
 11
400.2787628173828
 21
185.52821350097656
 31
0.0
  0
LINE
  5
147
330
17
100
AcDbEntity
  8
CONTOUR
100
AcDbLine
 10
400.2246856689453
 20
288.1405258178711
 30
0.0
 11
400.2787628173828
 21
288.0282211303711
 31
0.0
  0
LINE
  5
148
330
17
100
AcDbEntity
  8
CONTOUR
100
AcDbLine
 10
400.2787628173828
 20
183.4717559814453
 30
0.0
 11
400.2246856689453
 21
183.35946655273438
 31
0.0
  0
LINE
  5
149
330
17
100
AcDbEntity
  8
CONTOUR
100
AcDbLine
 10
400.2787628173828
 20
183.4717559814453
 30
0.0
 11
400.3271789550781
 21
183.58663940429688
 31
0.0
  0
LINE
  5
14A
330
17
100
AcDbEntity
  8
CONTOUR
100
AcDbLine
 10
400.2787628173828
 20
185.52821350097656
 30
0.0
 11
400.3271789550781
 21
185.41336059570312
 31
0.0
  0
LINE
  5
14B
330
17
100
AcDbEntity
  8
CONTOUR
100
AcDbLine
 10
400.2787628173828
 20
285.9717788696289
 30
0.0
 11
400.2246856689453
 21
285.8594741821289
 31
0.0
  0
LINE
  5
14C
330
17
100
AcDbEntity
  8
CONTOUR
100
AcDbLine
 10
400.2787628173828
 20
285.9717788696289
 30
0.0
 11
400.3271789550781
 21
286.0866470336914
 31
0.0
  0
LINE
  5
14D
330
17
100
AcDbEntity
  8
CONTOUR
100
AcDbLine
 10
400.2787628173828
 20
288.0282211303711
 30
0.0
 11
400.3271789550781
 21
287.9133529663086
 31
0.0
  0
LINE
  5
14E
330
17
100
AcDbEntity
  8
CONTOUR
100
AcDbLine
 10
400.3271789550781
 20
183.58663940429688
 30
0.0
 11
400.36981201171875
 21
183.7037811279297
 31
0.0
  0
LINE
  5
14F
330
17
100
AcDbEntity
  8
CONTOUR
100
AcDbLine
 10
400.3271789550781
 20
185.41336059570312
 30
0.0
 11
400.36981201171875
 21
185.29620361328125
 31
0.0
  0
LINE
  5
150
330
17
100
AcDbEntity
  8
CONTOUR
100
AcDbLine
 10
400.3271789550781
 20
286.0866470336914
 30
0.0
 11
400.36981201171875
 21
286.20377349853516
 31
0.0
  0
LINE
  5
151
330
17
100
AcDbEntity
  8
CONTOUR
100
AcDbLine
 10
400.3271789550781
 20
287.9133529663086
 30
0.0
 11
400.36981201171875
 21
287.7962112426758
 31
0.0
  0
LINE
  5
152
330
17
100
AcDbEntity
  8
CONTOUR
100
AcDbLine
 10
400.36981201171875
 20
183.7037811279297
 30
0.0
 11
400.40655517578125
 21
183.82290649414062
 31
0.0
  0
LINE
  5
153
330
17
100
AcDbEntity
  8
CONTOUR
100
AcDbLine
 10
400.36981201171875
 20
185.29620361328125
 30
0.0
 11
400.40655517578125
 21
185.17709350585938
 31
0.0
  0
LINE
  5
154
330
17
100
AcDbEntity
  8
CONTOUR
100
AcDbLine
 10
400.36981201171875
 20
286.20377349853516
 30
0.0
 11
400.40655517578125
 21
286.3228988647461
 31
0.0
  0
LINE
  5
155
330
17
100
AcDbEntity
  8
CONTOUR
100
AcDbLine
 10
400.36981201171875
 20
287.7962112426758
 30
0.0
 11
400.40655517578125
 21
287.6771011352539
 31
0.0
  0
LINE
  5
156
330
17
100
AcDbEntity
  8
CONTOUR
100
AcDbLine
 10
400.40655517578125
 20
183.82290649414062
 30
0.0
 11
400.43731689453125
 21
183.94369506835938
 31
0.0
  0
LINE
  5
157
330
17
100
AcDbEntity
  8
CONTOUR
100
AcDbLine
 10
400.40655517578125
 20
185.17709350585938
 30
0.0
 11
400.43731689453125
 21
185.05630493164062
 31
0.0
  0
LINE
  5
158
330
17
100
AcDbEntity
  8
CONTOUR
100
AcDbLine
 10
400.40655517578125
 20
286.3228988647461
 30
0.0
 11
400.43731689453125
 21
286.44368743896484
 31
0.0
  0
LINE
  5
159
330
17
100
AcDbEntity
  8
CONTOUR
100
AcDbLine
 10
400.40655517578125
 20
287.6771011352539
 30
0.0
 11
400.43731689453125
 21
287.5562973022461
 31
0.0
  0
LINE
  5
15A
330
17
100
AcDbEntity
  8
CONTOUR
100
AcDbLine
 10
400.43731689453125
 20
183.94369506835938
 30
0.0
 11
400.46202087402344
 21
184.06588745117188
 31
0.0
  0
LINE
  5
15B
330
17
100
AcDbEntity
  8
CONTOUR
100
AcDbLine
 10
400.43731689453125
 20
185.05630493164062
 30
0.0
 11
400.46202087402344
 21
184.93411254882812
 31
0.0
  0
LINE
  5
15C
330
17
100
AcDbEntity
  8
CONTOUR
100
AcDbLine
 10
400.43731689453125
 20
286.44368743896484
 30
0.0
 11
400.46202087402344
 21
286.56587982177734
 31
0.0
  0
LINE
  5
15D
330
17
100
AcDbEntity
  8
CONTOUR
100
AcDbLine
 10
400.43731689453125
 20
287.5562973022461
 30
0.0
 11
400.46202087402344
 21
287.43412017822266
 31
0.0
  0
LINE
  5
15E
330
17
100
AcDbEntity
  8
CONTOUR
100
AcDbLine
 10
400.46202087402344
 20
184.06588745117188
 30
0.0
 11
400.4805908203125
 21
184.18914794921875
 31
0.0
  0
LINE
  5
15F
330
17
100
AcDbEntity
  8
CONTOUR
100
AcDbLine
 10
400.46202087402344
 20
184.93411254882812
 30
0.0
 11
400.4805908203125
 21
184.81085205078125
 31
0.0
  0
LINE
  5
160
330
17
100
AcDbEntity
  8
CONTOUR
100
AcDbLine
 10
400.46202087402344
 20
286.56587982177734
 30
0.0
 11
400.4805908203125
 21
286.6891403198242
 31
0.0
  0
LINE
  5
161
330
17
100
AcDbEntity
  8
CONTOUR
100
AcDbLine
 10
400.46202087402344
 20
287.43412017822266
 30
0.0
 11
400.4805908203125
 21
287.3108596801758
 31
0.0
  0
LINE
  5
162
330
17
100
AcDbEntity
  8
CONTOUR
100
AcDbLine
 10
400.4805908203125
 20
184.18914794921875
 30
0.0
 11
400.4930114746094
 21
184.3131561279297
 31
0.0
  0
LINE
  5
163
330
17
100
AcDbEntity
  8
CONTOUR
100
AcDbLine
 10
400.4805908203125
 20
184.81085205078125
 30
0.0
 11
400.4930114746094
 21
184.68682861328125
 31
0.0
  0
LINE
  5
164
330
17
100
AcDbEntity
  8
CONTOUR
100
AcDbLine
 10
400.4805908203125
 20
286.6891403198242
 30
0.0
 11
400.4930114746094
 21
286.8131637573242
 31
0.0
  0
LINE
  5
165
330
17
100
AcDbEntity
  8
CONTOUR
100
AcDbLine
 10
400.4805908203125
 20
287.3108596801758
 30
0.0
 11
400.4930114746094
 21
287.1868209838867
 31
0.0
  0
LINE
  5
166
330
17
100
AcDbEntity
  8
CONTOUR
100
AcDbLine
 10
400.4930114746094
 20
184.3131561279297
 30
0.0
 11
400.4992218017578
 21
184.43768310546875
 31
0.0
  0
LINE
  5
167
330
17
100
AcDbEntity
  8
CONTOUR
100
AcDbLine
 10
400.4930114746094
 20
184.68682861328125
 30
0.0
 11
400.4992218017578
 21
184.56231689453125
 31
0.0
  0
LINE
  5
168
330
17
100
AcDbEntity
  8
CONTOUR
100
AcDbLine
 10
400.4930114746094
 20
286.8131637573242
 30
0.0
 11
400.4992218017578
 21
286.9376754760742
 31
0.0
  0
LINE
  5
169
330
17
100
AcDbEntity
  8
CONTOUR
100
AcDbLine
 10
400.4930114746094
 20
287.1868209838867
 30
0.0
 11
400.4992218017578
 21
287.0623245239258
 31
0.0
  0
LINE
  5
16A
330
17
100
AcDbEntity
  8
CONTOUR
100
AcDbLine
 10
400.4992218017578
 20
184.56231689453125
 30
0.0
 11
400.4992218017578
 21
184.43768310546875
 31
0.0
  0
LINE
  5
16B
330
17
100
AcDbEntity
  8
CONTOUR
100
AcDbLine
 10
400.4992218017578
 20
287.0623245239258
 30
0.0
 11
400.4992218017578
 21
286.9376754760742
 31
0.0
  0
LINE
  5
16C
330
17
100
AcDbEntity
  8
CONTOUR
100
AcDbLine
 10
405.5
 20
194.5
 30
0.0
 11
415.5
 21
194.5
 31
0.0
  0
LINE
  5
16D
330
17
100
AcDbEntity
  8
CONTOUR
100
AcDbLine
 10
405.5
 20
204.5
 30
0.0
 11
405.5
 21
194.5
 31
0.0
  0
LINE
  5
16E
330
17
100
AcDbEntity
  8
CONTOUR
100
AcDbLine
 10
405.5
 20
204.5
 30
0.0
 11
407.9609375
 21
204.5
 31
0.0
  0
LINE
  5
16F
330
17
100
AcDbEntity
  8
CONTOUR
100
AcDbLine
 10
405.5
 20
291.99999237060547
 30
0.0
 11
405.5
 21
281.99999237060547
 31
0.0
  0
LINE
  5
170
330
17
100
AcDbEntity
  8
CONTOUR
100
AcDbLine
 10
408.0
 20
197.0
 30
0.0
 11
413.0
 21
197.0
 31
0.0
  0
LINE
  5
171
330
17
100
AcDbEntity
  8
CONTOUR
100
AcDbLine
 10
408.0
 20
372.0
 30
0.0
 11
408.0
 21
197.0
 31
0.0
  0
LINE
  5
172
330
17
100
AcDbEntity
  8
CONTOUR
100
AcDbLine
 10
413.0
 20
372.0
 30
0.0
 11
408.0
 21
372.0
 31
0.0
  0
LINE
  5
173
330
17
100
AcDbEntity
  8
CONTOUR
100
AcDbLine
 10
413.0
 20
372.0
 30
0.0
 11
413.0
 21
197.0
 31
0.0
  0
LINE
  5
174
330
17
100
AcDbEntity
  8
CONTOUR
100
AcDbLine
 10
413.0390625
 20
204.5
 30
0.0
 11
415.5
 21
204.5
 31
0.0
  0
LINE
  5
175
330
17
100
AcDbEntity
  8
CONTOUR
100
AcDbLine
 10
415.5
 20
194.5
 30
0.0
 11
415.5
 21
204.5
 31
0.0
  0
LINE
  5
176
330
17
100
AcDbEntity
  8
CONTOUR
100
AcDbLine
 10
460.5
 20
167.0
 30
0.0
 11
420.5
 21
167.0
 31
0.0
  0
LINE
  5
177
330
17
100
AcDbEntity
  8
CONTOUR
100
AcDbLine
 10
460.5
 20
291.99999237060547
 30
0.0
 11
405.5
 21
291.99999237060547
 31
0.0
  0
LINE
  5
178
330
17
100
AcDbEntity
  8
CONTOUR
100
AcDbLine
 10
460.5
 20
291.99999237060547
 30
0.0
 11
460.5
 21
167.0
 31
0.0
  0
LINE
  5
179
330
17
100
AcDbEntity
  8
CONTOUR
100
AcDbLine
 10
460.529296875
 20
179.5
 30
0.0
 11
475.5
 21
179.5
 31
0.0
  0
LINE
  5
17A
330
17
100
AcDbEntity
  8
CONTOUR
100
AcDbLine
 10
460.529296875
 20
271.99999237060547
 30
0.0
 11
475.5
 21
271.99999237060547
 31
0.0
  0
LINE
  5
17B
330
17
100
AcDbEntity
  8
CONTOUR
100
AcDbLine
 10
460.529296875
 20
281.99999237060547
 30
0.0
 11
475.5
 21
281.99999237060547
 31
0.0
  0
LINE
  5
17C
330
17
100
AcDbEntity
  8
CONTOUR
100
AcDbLine
 10
460.5341796875
 20
217.0
 30
0.0
 11
478.0
 21
217.0
 31
0.0
  0
LINE
  5
17D
330
17
100
AcDbEntity
  8
CONTOUR
100
AcDbLine
 10
460.5341796875
 20
266.99999237060547
 30
0.0
 11
478.0
 21
266.99999237060547
 31
0.0
  0
LINE
  5
17E
330
17
100
AcDbEntity
  8
CONTOUR
100
AcDbLine
 10
475.5
 20
189.5
 30
0.0
 11
460.529296875
 21
189.5
 31
0.0
  0
LINE
  5
17F
330
17
100
AcDbEntity
  8
CONTOUR
100
AcDbLine
 10
465.5007781982422
 20
184.43768310546875
 30
0.0
 11
465.5069885253906
 21
184.3131561279297
 31
0.0
  0
LINE
  5
180
330
17
100
AcDbEntity
  8
CONTOUR
100
AcDbLine
 10
465.5007781982422
 20
184.56231689453125
 30
0.0
 11
465.5007781982422
 21
184.43768310546875
 31
0.0
  0
LINE
  5
181
330
17
100
AcDbEntity
  8
CONTOUR
100
AcDbLine
 10
465.5007781982422
 20
184.56231689453125
 30
0.0
 11
465.5069885253906
 21
184.68682861328125
 31
0.0
  0
LINE
  5
182
330
17
100
AcDbEntity
  8
CONTOUR
100
AcDbLine
 10
465.5007781982422
 20
276.9376754760742
 30
0.0
 11
465.5069885253906
 21
276.8131637573242
 31
0.0
  0
LINE
  5
183
330
17
100
AcDbEntity
  8
CONTOUR
100
AcDbLine
 10
465.5007781982422
 20
277.0623245239258
 30
0.0
 11
465.5007781982422
 21
276.9376754760742
 31
0.0
  0
LINE
  5
184
330
17
100
AcDbEntity
  8
CONTOUR
100
AcDbLine
 10
465.5007781982422
 20
277.0623245239258
 30
0.0
 11
465.5069885253906
 21
277.1868209838867
 31
0.0
  0
LINE
  5
185
330
17
100
AcDbEntity
  8
CONTOUR
100
AcDbLine
 10
465.5069885253906
 20
184.3131561279297
 30
0.0
 11
465.51940155029297
 21
184.18914794921875
 31
0.0
  0
LINE
  5
186
330
17
100
AcDbEntity
  8
CONTOUR
100
AcDbLine
 10
465.5069885253906
 20
184.68682861328125
 30
0.0
 11
465.51940155029297
 21
184.81085205078125
 31
0.0
  0
LINE
  5
187
330
17
100
AcDbEntity
  8
CONTOUR
100
AcDbLine
 10
465.5069885253906
 20
276.8131637573242
 30
0.0
 11
465.51940155029297
 21
276.6891403198242
 31
0.0
  0
LINE
  5
188
330
17
100
AcDbEntity
  8
CONTOUR
100
AcDbLine
 10
465.5069885253906
 20
277.1868209838867
 30
0.0
 11
465.51940155029297
 21
277.3108596801758
 31
0.0
  0
LINE
  5
189
330
17
100
AcDbEntity
  8
CONTOUR
100
AcDbLine
 10
465.51940155029297
 20
184.18914794921875
 30
0.0
 11
465.53797912597656
 21
184.06588745117188
 31
0.0
  0
LINE
  5
18A
330
17
100
AcDbEntity
  8
CONTOUR
100
AcDbLine
 10
465.51940155029297
 20
184.81085205078125
 30
0.0
 11
465.53797912597656
 21
184.93411254882812
 31
0.0
  0
LINE
  5
18B
330
17
100
AcDbEntity
  8
CONTOUR
100
AcDbLine
 10
465.51940155029297
 20
276.6891403198242
 30
0.0
 11
465.53797912597656
 21
276.56587982177734
 31
0.0
  0
LINE
  5
18C
330
17
100
AcDbEntity
  8
CONTOUR
100
AcDbLine
 10
465.51940155029297
 20
277.3108596801758
 30
0.0
 11
465.53797912597656
 21
277.43412017822266
 31
0.0
  0
LINE
  5
18D
330
17
100
AcDbEntity
  8
CONTOUR
100
AcDbLine
 10
465.53797912597656
 20
184.06588745117188
 30
0.0
 11
465.56268310546875
 21
183.94369506835938
 31
0.0
  0
LINE
  5
18E
330
17
100
AcDbEntity
  8
CONTOUR
100
AcDbLine
 10
465.53797912597656
 20
184.93411254882812
 30
0.0
 11
465.56268310546875
 21
185.05630493164062
 31
0.0
  0
LINE
  5
18F
330
17
100
AcDbEntity
  8
CONTOUR
100
AcDbLine
 10
465.53797912597656
 20
276.56587982177734
 30
0.0
 11
465.56268310546875
 21
276.44368743896484
 31
0.0
  0
LINE
  5
190
330
17
100
AcDbEntity
  8
CONTOUR
100
AcDbLine
 10
465.53797912597656
 20
277.43412017822266
 30
0.0
 11
465.56268310546875
 21
277.5562973022461
 31
0.0
  0
LINE
  5
191
330
17
100
AcDbEntity
  8
CONTOUR
100
AcDbLine
 10
465.56268310546875
 20
185.05630493164062
 30
0.0
 11
465.5934371948242
 21
185.17709350585938
 31
0.0
  0
LINE
  5
192
330
17
100
AcDbEntity
  8
CONTOUR
100
AcDbLine
 10
465.56268310546875
 20
276.44368743896484
 30
0.0
 11
465.5934371948242
 21
276.3228988647461
 31
0.0
  0
LINE
  5
193
330
17
100
AcDbEntity
  8
CONTOUR
100
AcDbLine
 10
465.56268310546875
 20
277.5562973022461
 30
0.0
 11
465.5934371948242
 21
277.6771011352539
 31
0.0
  0
LINE
  5
194
330
17
100
AcDbEntity
  8
CONTOUR
100
AcDbLine
 10
465.5934371948242
 20
183.82290649414062
 30
0.0
 11
465.56268310546875
 21
183.94369506835938
 31
0.0
  0
LINE
  5
195
330
17
100
AcDbEntity
  8
CONTOUR
100
AcDbLine
 10
465.5934371948242
 20
183.82290649414062
 30
0.0
 11
465.6301803588867
 21
183.7037811279297
 31
0.0
  0
LINE
  5
196
330
17
100
AcDbEntity
  8
CONTOUR
100
AcDbLine
 10
465.5934371948242
 20
185.17709350585938
 30
0.0
 11
465.6301803588867
 21
185.29620361328125
 31
0.0
  0
LINE
  5
197
330
17
100
AcDbEntity
  8
CONTOUR
100
AcDbLine
 10
465.5934371948242
 20
276.3228988647461
 30
0.0
 11
465.6301803588867
 21
276.20377349853516
 31
0.0
  0
LINE
  5
198
330
17
100
AcDbEntity
  8
CONTOUR
100
AcDbLine
 10
465.5934371948242
 20
277.6771011352539
 30
0.0
 11
465.6301803588867
 21
277.7962112426758
 31
0.0
  0
LINE
  5
199
330
17
100
AcDbEntity
  8
CONTOUR
100
AcDbLine
 10
465.6301803588867
 20
183.7037811279297
 30
0.0
 11
465.67281341552734
 21
183.58663940429688
 31
0.0
  0
LINE
  5
19A
330
17
100
AcDbEntity
  8
CONTOUR
100
AcDbLine
 10
465.6301803588867
 20
185.29620361328125
 30
0.0
 11
465.67281341552734
 21
185.41336059570312
 31
0.0
  0
LINE
  5
19B
330
17
100
AcDbEntity
  8
CONTOUR
100
AcDbLine
 10
465.6301803588867
 20
276.20377349853516
 30
0.0
 11
465.67281341552734
 21
276.0866470336914
 31
0.0
  0
LINE
  5
19C
330
17
100
AcDbEntity
  8
CONTOUR
100
AcDbLine
 10
465.6301803588867
 20
277.7962112426758
 30
0.0
 11
465.67281341552734
 21
277.9133529663086
 31
0.0
  0
LINE
  5
19D
330
17
100
AcDbEntity
  8
CONTOUR
100
AcDbLine
 10
465.67281341552734
 20
183.58663940429688
 30
0.0
 11
465.7212371826172
 21
183.4717559814453
 31
0.0
  0
LINE
  5
19E
330
17
100
AcDbEntity
  8
CONTOUR
100
AcDbLine
 10
465.67281341552734
 20
185.41336059570312
 30
0.0
 11
465.7212371826172
 21
185.52821350097656
 31
0.0
  0
LINE
  5
19F
330
17
100
AcDbEntity
  8
CONTOUR
100
AcDbLine
 10
465.67281341552734
 20
276.0866470336914
 30
0.0
 11
465.7212371826172
 21
275.9717788696289
 31
0.0
  0
LINE
  5
1A0
330
17
100
AcDbEntity
  8
CONTOUR
100
AcDbLine
 10
465.67281341552734
 20
277.9133529663086
 30
0.0
 11
465.7212371826172
 21
278.02820587158203
 31
0.0
  0
LINE
  5
1A1
330
17
100
AcDbEntity
  8
CONTOUR
100
AcDbLine
 10
465.7212371826172
 20
183.4717559814453
 30
0.0
 11
465.7753219604492
 21
183.35946655273438
 31
0.0
  0
LINE
  5
1A2
330
17
100
AcDbEntity
  8
CONTOUR
100
AcDbLine
 10
465.7212371826172
 20
185.52821350097656
 30
0.0
 11
465.7753219604492
 21
185.64053344726562
 31
0.0
  0
LINE
  5
1A3
330
17
100
AcDbEntity
  8
CONTOUR
100
AcDbLine
 10
465.7212371826172
 20
275.9717788696289
 30
0.0
 11
465.7753219604492
 21
275.8594741821289
 31
0.0
  0
LINE
  5
1A4
330
17
100
AcDbEntity
  8
CONTOUR
100
AcDbLine
 10
465.7212371826172
 20
278.02820587158203
 30
0.0
 11
465.7753219604492
 21
278.1405258178711
 31
0.0
  0
LINE
  5
1A5
330
17
100
AcDbEntity
  8
CONTOUR
100
AcDbLine
 10
465.7753219604492
 20
183.35946655273438
 30
0.0
 11
465.8349380493164
 21
183.25
 31
0.0
  0
LINE
  5
1A6
330
17
100
AcDbEntity
  8
CONTOUR
100
AcDbLine
 10
465.7753219604492
 20
185.64053344726562
 30
0.0
 11
465.8349380493164
 21
185.75
 31
0.0
  0
LINE
  5
1A7
330
17
100
AcDbEntity
  8
CONTOUR
100
AcDbLine
 10
465.7753219604492
 20
275.8594741821289
 30
0.0
 11
465.8349380493164
 21
275.74999237060547
 31
0.0
  0
LINE
  5
1A8
330
17
100
AcDbEntity
  8
CONTOUR
100
AcDbLine
 10
465.7753219604492
 20
278.1405258178711
 30
0.0
 11
465.8349380493164
 21
278.24999237060547
 31
0.0
  0
LINE
  5
1A9
330
17
100
AcDbEntity
  8
CONTOUR
100
AcDbLine
 10
465.8349380493164
 20
183.25
 30
0.0
 11
465.8999328613281
 21
183.1436309814453
 31
0.0
  0
LINE
  5
1AA
330
17
100
AcDbEntity
  8
CONTOUR
100
AcDbLine
 10
465.8349380493164
 20
185.75
 30
0.0
 11
465.8999328613281
 21
185.85633850097656
 31
0.0
  0
LINE
  5
1AB
330
17
100
AcDbEntity
  8
CONTOUR
100
AcDbLine
 10
465.8349380493164
 20
275.74999237060547
 30
0.0
 11
465.8999328613281
 21
275.6436233520508
 31
0.0
  0
LINE
  5
1AC
330
17
100
AcDbEntity
  8
CONTOUR
100
AcDbLine
 10
465.8349380493164
 20
278.24999237060547
 30
0.0
 11
465.8999328613281
 21
278.35636138916016
 31
0.0
  0
LINE
  5
1AD
330
17
100
AcDbEntity
  8
CONTOUR
100
AcDbLine
 10
465.8999328613281
 20
185.85633850097656
 30
0.0
 11
465.97015380859375
 21
185.9593505859375
 31
0.0
  0
LINE
  5
1AE
330
17
100
AcDbEntity
  8
CONTOUR
100
AcDbLine
 10
465.8999328613281
 20
275.6436233520508
 30
0.0
 11
465.97015380859375
 21
275.54064178466797
 31
0.0
  0
LINE
  5
1AF
330
17
100
AcDbEntity
  8
CONTOUR
100
AcDbLine
 10
465.8999328613281
 20
278.35636138916016
 30
0.0
 11
465.97015380859375
 21
278.45935821533203
 31
0.0
  0
LINE
  5
1B0
330
17
100
AcDbEntity
  8
CONTOUR
100
AcDbLine
 10
465.8999328613281
 20
183.1436309814453
 30
0.0
 11
465.97015380859375
 21
183.0406494140625
 31
0.0
  0
LINE
  5
1B1
330
17
100
AcDbEntity
  8
CONTOUR
100
AcDbLine
 10
465.97015380859375
 20
183.0406494140625
 30
0.0
 11
466.04542541503906
 21
182.94126892089844
 31
0.0
  0
LINE
  5
1B2
330
17
100
AcDbEntity
  8
CONTOUR
100
AcDbLine
 10
465.97015380859375
 20
185.9593505859375
 30
0.0
 11
466.04542541503906
 21
186.05870056152344
 31
0.0
  0
LINE
  5
1B3
330
17
100
AcDbEntity
  8
CONTOUR
100
AcDbLine
 10
465.97015380859375
 20
275.54064178466797
 30
0.0
 11
466.04542541503906
 21
275.44127655029297
 31
0.0
  0
LINE
  5
1B4
330
17
100
AcDbEntity
  8
CONTOUR
100
AcDbLine
 10
465.97015380859375
 20
278.45935821533203
 30
0.0
 11
466.04542541503906
 21
278.55872344970703
 31
0.0
  0
LINE
  5
1B5
330
17
100
AcDbEntity
  8
CONTOUR
100
AcDbLine
 10
466.04542541503906
 20
186.05870056152344
 30
0.0
 11
466.12554931640625
 21
186.15419006347656
 31
0.0
  0
LINE
  5
1B6
330
17
100
AcDbEntity
  8
CONTOUR
100
AcDbLine
 10
466.04542541503906
 20
275.44127655029297
 30
0.0
 11
466.12554931640625
 21
275.34578704833984
 31
0.0
  0
LINE
  5
1B7
330
17
100
AcDbEntity
  8
CONTOUR
100
AcDbLine
 10
466.04542541503906
 20
278.55872344970703
 30
0.0
 11
466.12554931640625
 21
278.65421295166016
 31
0.0
  0
LINE
  5
1B8
330
17
100
AcDbEntity
  8
CONTOUR
100
AcDbLine
 10
466.12554931640625
 20
182.8457794189453
 30
0.0
 11
466.04542541503906
 21
182.94126892089844
 31
0.0
  0
LINE
  5
1B9
330
17
100
AcDbEntity
  8
CONTOUR
100
AcDbLine
 10
466.12554931640625
 20
182.8457794189453
 30
0.0
 11
466.21033477783203
 21
182.75439453125
 31
0.0
  0
LINE
  5
1BA
330
17
100
AcDbEntity
  8
CONTOUR
100
AcDbLine
 10
466.12554931640625
 20
186.15419006347656
 30
0.0
 11
466.21033477783203
 21
186.24560546875
 31
0.0
  0
LINE
  5
1BB
330
17
100
AcDbEntity
  8
CONTOUR
100
AcDbLine
 10
466.12554931640625
 20
275.34578704833984
 30
0.0
 11
466.21033477783203
 21
275.25440216064453
 31
0.0
  0
LINE
  5
1BC
330
17
100
AcDbEntity
  8
CONTOUR
100
AcDbLine
 10
466.12554931640625
 20
278.65421295166016
 30
0.0
 11
466.21033477783203
 21
278.7455825805664
 31
0.0
  0
LINE
  5
1BD
330
17
100
AcDbEntity
  8
CONTOUR
100
AcDbLine
 10
466.21033477783203
 20
182.75439453125
 30
0.0
 11
466.29956817626953
 21
182.6673583984375
 31
0.0
  0
LINE
  5
1BE
330
17
100
AcDbEntity
  8
CONTOUR
100
AcDbLine
 10
466.21033477783203
 20
186.24560546875
 30
0.0
 11
466.29956817626953
 21
186.3326416015625
 31
0.0
  0
LINE
  5
1BF
330
17
100
AcDbEntity
  8
CONTOUR
100
AcDbLine
 10
466.21033477783203
 20
275.25440216064453
 30
0.0
 11
466.29956817626953
 21
275.16736602783203
 31
0.0
  0
LINE
  5
1C0
330
17
100
AcDbEntity
  8
CONTOUR
100
AcDbLine
 10
466.21033477783203
 20
278.7455825805664
 30
0.0
 11
466.29956817626953
 21
278.8326187133789
 31
0.0
  0
LINE
  5
1C1
330
17
100
AcDbEntity
  8
CONTOUR
100
AcDbLine
 10
466.29956817626953
 20
182.6673583984375
 30
0.0
 11
466.39302825927734
 21
182.58489990234375
 31
0.0
  0
LINE
  5
1C2
330
17
100
AcDbEntity
  8
CONTOUR
100
AcDbLine
 10
466.29956817626953
 20
186.3326416015625
 30
0.0
 11
466.39302825927734
 21
186.41510009765625
 31
0.0
  0
LINE
  5
1C3
330
17
100
AcDbEntity
  8
CONTOUR
100
AcDbLine
 10
466.29956817626953
 20
275.16736602783203
 30
0.0
 11
466.39302825927734
 21
275.08487701416016
 31
0.0
  0
LINE
  5
1C4
330
17
100
AcDbEntity
  8
CONTOUR
100
AcDbLine
 10
466.29956817626953
 20
278.8326187133789
 30
0.0
 11
466.39302825927734
 21
278.9151077270508
 31
0.0
  0
LINE
  5
1C5
330
17
100
AcDbEntity
  8
CONTOUR
100
AcDbLine
 10
466.39302825927734
 20
182.58489990234375
 30
0.0
 11
466.49048614501953
 21
182.5071563720703
 31
0.0
  0
LINE
  5
1C6
330
17
100
AcDbEntity
  8
CONTOUR
100
AcDbLine
 10
466.39302825927734
 20
186.41510009765625
 30
0.0
 11
466.49048614501953
 21
186.49281311035156
 31
0.0
  0
LINE
  5
1C7
330
17
100
AcDbEntity
  8
CONTOUR
100
AcDbLine
 10
466.39302825927734
 20
275.08487701416016
 30
0.0
 11
466.49048614501953
 21
275.00716400146484
 31
0.0
  0
LINE
  5
1C8
330
17
100
AcDbEntity
  8
CONTOUR
100
AcDbLine
 10
466.39302825927734
 20
278.9151077270508
 30
0.0
 11
466.49048614501953
 21
278.9928207397461
 31
0.0
  0
LINE
  5
1C9
330
17
100
AcDbEntity
  8
CONTOUR
100
AcDbLine
 10
466.49048614501953
 20
186.49281311035156
 30
0.0
 11
466.5916976928711
 21
186.5655975341797
 31
0.0
  0
LINE
  5
1CA
330
17
100
AcDbEntity
  8
CONTOUR
100
AcDbLine
 10
466.49048614501953
 20
275.00716400146484
 30
0.0
 11
466.5916976928711
 21
274.9343948364258
 31
0.0
  0
LINE
  5
1CB
330
17
100
AcDbEntity
  8
CONTOUR
100
AcDbLine
 10
466.49048614501953
 20
278.9928207397461
 30
0.0
 11
466.5916976928711
 21
279.06558990478516
 31
0.0
  0
LINE
  5
1CC
330
17
100
AcDbEntity
  8
CONTOUR
100
AcDbLine
 10
466.5916976928711
 20
182.4344024658203
 30
0.0
 11
466.49048614501953
 21
182.5071563720703
 31
0.0
  0
LINE
  5
1CD
330
17
100
AcDbEntity
  8
CONTOUR
100
AcDbLine
 10
466.5916976928711
 20
182.4344024658203
 30
0.0
 11
466.6964111328125
 21
182.3667449951172
 31
0.0
  0
LINE
  5
1CE
330
17
100
AcDbEntity
  8
CONTOUR
100
AcDbLine
 10
466.5916976928711
 20
186.5655975341797
 30
0.0
 11
466.6964111328125
 21
186.6332244873047
 31
0.0
  0
LINE
  5
1CF
330
17
100
AcDbEntity
  8
CONTOUR
100
AcDbLine
 10
466.5916976928711
 20
274.9343948364258
 30
0.0
 11
466.6964111328125
 21
274.8667678833008
 31
0.0
  0
LINE
  5
1D0
330
17
100
AcDbEntity
  8
CONTOUR
100
AcDbLine
 10
466.5916976928711
 20
279.06558990478516
 30
0.0
 11
466.6964111328125
 21
279.13321685791016
 31
0.0
  0
LINE
  5
1D1
330
17
100
AcDbEntity
  8
CONTOUR
100
AcDbLine
 10
466.6964111328125
 20
186.6332244873047
 30
0.0
 11
466.8043670654297
 21
186.69554138183594
 31
0.0
  0
LINE
  5
1D2
330
17
100
AcDbEntity
  8
CONTOUR
100
AcDbLine
 10
466.6964111328125
 20
274.8667678833008
 30
0.0
 11
466.8043670654297
 21
274.80443572998047
 31
0.0
  0
LINE
  5
1D3
330
17
100
AcDbEntity
  8
CONTOUR
100
AcDbLine
 10
466.6964111328125
 20
279.13321685791016
 30
0.0
 11
466.8043670654297
 21
279.19554901123047
 31
0.0
  0
LINE
  5
1D4
330
17
100
AcDbEntity
  8
CONTOUR
100
AcDbLine
 10
466.6964111328125
 20
182.3667449951172
 30
0.0
 11
466.8043670654297
 21
182.30442810058594
 31
0.0
  0
LINE
  5
1D5
330
17
100
AcDbEntity
  8
CONTOUR
100
AcDbLine
 10
466.8043670654297
 20
182.30442810058594
 30
0.0
 11
466.91529083251953
 21
182.24758911132812
 31
0.0
  0
LINE
  5
1D6
330
17
100
AcDbEntity
  8
CONTOUR
100
AcDbLine
 10
466.8043670654297
 20
186.69554138183594
 30
0.0
 11
466.91529083251953
 21
186.7523956298828
 31
0.0
  0
LINE
  5
1D7
330
17
100
AcDbEntity
  8
CONTOUR
100
AcDbLine
 10
466.8043670654297
 20
274.80443572998047
 30
0.0
 11
466.91529083251953
 21
274.74756622314453
 31
0.0
  0
LINE
  5
1D8
330
17
100
AcDbEntity
  8
CONTOUR
100
AcDbLine
 10
466.8043670654297
 20
279.19554901123047
 30
0.0
 11
466.91529083251953
 21
279.2524185180664
 31
0.0
  0
LINE
  5
1D9
330
17
100
AcDbEntity
  8
CONTOUR
100
AcDbLine
 10
466.91529083251953
 20
186.7523956298828
 30
0.0
 11
467.02891540527344
 21
186.80368041992188
 31
0.0
  0
LINE
  5
1DA
330
17
100
AcDbEntity
  8
CONTOUR
100
AcDbLine
 10
466.91529083251953
 20
274.74756622314453
 30
0.0
 11
467.02891540527344
 21
274.69629669189453
 31
0.0
  0
LINE
  5
1DB
330
17
100
AcDbEntity
  8
CONTOUR
100
AcDbLine
 10
466.91529083251953
 20
279.2524185180664
 30
0.0
 11
467.02891540527344
 21
279.3036880493164
 31
0.0
  0
LINE
  5
1DC
330
17
100
AcDbEntity
  8
CONTOUR
100
AcDbLine
 10
467.02891540527344
 20
182.19631958007812
 30
0.0
 11
466.91529083251953
 21
182.24758911132812
 31
0.0
  0
LINE
  5
1DD
330
17
100
AcDbEntity
  8
CONTOUR
100
AcDbLine
 10
467.02891540527344
 20
182.19631958007812
 30
0.0
 11
467.1449508666992
 21
182.15074157714844
 31
0.0
  0
LINE
  5
1DE
330
17
100
AcDbEntity
  8
CONTOUR
100
AcDbLine
 10
467.02891540527344
 20
186.80368041992188
 30
0.0
 11
467.1449508666992
 21
186.84922790527344
 31
0.0
  0
LINE
  5
1DF
330
17
100
AcDbEntity
  8
CONTOUR
100
AcDbLine
 10
467.02891540527344
 20
274.69629669189453
 30
0.0
 11
467.1449508666992
 21
274.65076446533203
 31
0.0
  0
LINE
  5
1E0
330
17
100
AcDbEntity
  8
CONTOUR
100
AcDbLine
 10
467.02891540527344
 20
279.3036880493164
 30
0.0
 11
467.1449508666992
 21
279.3492202758789
 31
0.0
  0
LINE
  5
1E1
330
17
100
AcDbEntity
  8
CONTOUR
100
AcDbLine
 10
467.1449508666992
 20
186.84922790527344
 30
0.0
 11
467.2631149291992
 21
186.88894653320312
 31
0.0
  0
LINE
  5
1E2
330
17
100
AcDbEntity
  8
CONTOUR
100
AcDbLine
 10
467.1449508666992
 20
274.65076446533203
 30
0.0
 11
467.2631149291992
 21
274.6110610961914
 31
0.0
  0
LINE
  5
1E3
330
17
100
AcDbEntity
  8
CONTOUR
100
AcDbLine
 10
467.1449508666992
 20
279.3492202758789
 30
0.0
 11
467.2631149291992
 21
279.38892364501953
 31
0.0
  0
LINE
  5
1E4
330
17
100
AcDbEntity
  8
CONTOUR
100
AcDbLine
 10
467.2631149291992
 20
182.111083984375
 30
0.0
 11
467.1449508666992
 21
182.15074157714844
 31
0.0
  0
LINE
  5
1E5
330
17
100
AcDbEntity
  8
CONTOUR
100
AcDbLine
 10
467.2631149291992
 20
182.111083984375
 30
0.0
 11
467.3831100463867
 21
182.07730102539062
 31
0.0
  0
LINE
  5
1E6
330
17
100
AcDbEntity
  8
CONTOUR
100
AcDbLine
 10
467.2631149291992
 20
186.88894653320312
 30
0.0
 11
467.3831100463867
 21
186.92269897460938
 31
0.0
  0
LINE
  5
1E7
330
17
100
AcDbEntity
  8
CONTOUR
100
AcDbLine
 10
467.2631149291992
 20
274.6110610961914
 30
0.0
 11
467.3831100463867
 21
274.57730865478516
 31
0.0
  0
LINE
  5
1E8
330
17
100
AcDbEntity
  8
CONTOUR
100
AcDbLine
 10
467.2631149291992
 20
279.38892364501953
 30
0.0
 11
467.3831100463867
 21
279.42269134521484
 31
0.0
  0
LINE
  5
1E9
330
17
100
AcDbEntity
  8
CONTOUR
100
AcDbLine
 10
467.3831100463867
 20
186.92269897460938
 30
0.0
 11
467.504638671875
 21
186.950439453125
 31
0.0
  0
LINE
  5
1EA
330
17
100
AcDbEntity
  8
CONTOUR
100
AcDbLine
 10
467.3831100463867
 20
274.57730865478516
 30
0.0
 11
467.504638671875
 21
274.54956817626953
 31
0.0
  0
LINE
  5
1EB
330
17
100
AcDbEntity
  8
CONTOUR
100
AcDbLine
 10
467.3831100463867
 20
279.42269134521484
 30
0.0
 11
467.504638671875
 21
279.45043182373047
 31
0.0
  0
LINE
  5
1EC
330
17
100
AcDbEntity
  8
CONTOUR
100
AcDbLine
 10
467.504638671875
 20
182.049560546875
 30
0.0
 11
467.3831100463867
 21
182.07730102539062
 31
0.0
  0
LINE
  5
1ED
330
17
100
AcDbEntity
  8
CONTOUR
100
AcDbLine
 10
467.504638671875
 20
182.049560546875
 30
0.0
 11
467.6273956298828
 21
182.02792358398438
 31
0.0
  0
LINE
  5
1EE
330
17
100
AcDbEntity
  8
CONTOUR
100
AcDbLine
 10
467.504638671875
 20
186.950439453125
 30
0.0
 11
467.6273956298828
 21
186.97207641601562
 31
0.0
  0
LINE
  5
1EF
330
17
100
AcDbEntity
  8
CONTOUR
100
AcDbLine
 10
467.504638671875
 20
274.54956817626953
 30
0.0
 11
467.6273956298828
 21
274.52791595458984
 31
0.0
  0
LINE
  5
1F0
330
17
100
AcDbEntity
  8
CONTOUR
100
AcDbLine
 10
467.504638671875
 20
279.45043182373047
 30
0.0
 11
467.6273956298828
 21
279.4720687866211
 31
0.0
  0
LINE
  5
1F1
330
17
100
AcDbEntity
  8
CONTOUR
100
AcDbLine
 10
467.6273956298828
 20
182.02792358398438
 30
0.0
 11
467.75108337402344
 21
182.0124053955078
 31
0.0
  0
LINE
  5
1F2
330
17
100
AcDbEntity
  8
CONTOUR
100
AcDbLine
 10
467.6273956298828
 20
186.97207641601562
 30
0.0
 11
467.75108337402344
 21
186.98756408691406
 31
0.0
  0
LINE
  5
1F3
330
17
100
AcDbEntity
  8
CONTOUR
100
AcDbLine
 10
467.6273956298828
 20
274.52791595458984
 30
0.0
 11
467.75108337402344
 21
274.51241302490234
 31
0.0
  0
LINE
  5
1F4
330
17
100
AcDbEntity
  8
CONTOUR
100
AcDbLine
 10
467.6273956298828
 20
279.4720687866211
 30
0.0
 11
467.75108337402344
 21
279.4875717163086
 31
0.0
  0
LINE
  5
1F5
330
17
100
AcDbEntity
  8
CONTOUR
100
AcDbLine
 10
467.75108337402344
 20
182.0124053955078
 30
0.0
 11
467.8753890991211
 21
182.0030975341797
 31
0.0
  0
LINE
  5
1F6
330
17
100
AcDbEntity
  8
CONTOUR
100
AcDbLine
 10
467.75108337402344
 20
186.98756408691406
 30
0.0
 11
467.8753890991211
 21
186.9968719482422
 31
0.0
  0
LINE
  5
1F7
330
17
100
AcDbEntity
  8
CONTOUR
100
AcDbLine
 10
467.75108337402344
 20
274.51241302490234
 30
0.0
 11
467.8753890991211
 21
274.5031051635742
 31
0.0
  0
LINE
  5
1F8
330
17
100
AcDbEntity
  8
CONTOUR
100
AcDbLine
 10
467.75108337402344
 20
279.4875717163086
 30
0.0
 11
467.8753890991211
 21
279.4968795776367
 31
0.0
  0
LINE
  5
1F9
330
17
100
AcDbEntity
  8
CONTOUR
100
AcDbLine
 10
467.8753890991211
 20
182.0030975341797
 30
0.0
 11
468.0
 21
182.0
 31
0.0
  0
LINE
  5
1FA
330
17
100
AcDbEntity
  8
CONTOUR
100
AcDbLine
 10
467.8753890991211
 20
186.9968719482422
 30
0.0
 11
468.0
 21
187.0
 31
0.0
  0
LINE
  5
1FB
330
17
100
AcDbEntity
  8
CONTOUR
100
AcDbLine
 10
467.8753890991211
 20
274.5031051635742
 30
0.0
 11
468.0
 21
274.49999237060547
 31
0.0
  0
LINE
  5
1FC
330
17
100
AcDbEntity
  8
CONTOUR
100
AcDbLine
 10
467.8753890991211
 20
279.4968795776367
 30
0.0
 11
468.0
 21
279.49999237060547
 31
0.0
  0
LINE
  5
1FD
330
17
100
AcDbEntity
  8
CONTOUR
100
AcDbLine
 10
468.0
 20
182.0
 30
0.0
 11
468.12461853027344
 21
182.0030975341797
 31
0.0
  0
LINE
  5
1FE
330
17
100
AcDbEntity
  8
CONTOUR
100
AcDbLine
 10
468.0
 20
187.0
 30
0.0
 11
468.12461853027344
 21
186.9968719482422
 31
0.0
  0
LINE
  5
1FF
330
17
100
AcDbEntity
  8
CONTOUR
100
AcDbLine
 10
468.0
 20
274.49999237060547
 30
0.0
 11
468.12461853027344
 21
274.5031051635742
 31
0.0
  0
LINE
  5
200
330
17
100
AcDbEntity
  8
CONTOUR
100
AcDbLine
 10
468.0
 20
279.49999237060547
 30
0.0
 11
468.12461853027344
 21
279.4968795776367
 31
0.0
  0
LINE
  5
201
330
17
100
AcDbEntity
  8
CONTOUR
100
AcDbLine
 10
468.12461853027344
 20
182.0030975341797
 30
0.0
 11
468.24891662597656
 21
182.0124053955078
 31
0.0
  0
LINE
  5
202
330
17
100
AcDbEntity
  8
CONTOUR
100
AcDbLine
 10
468.12461853027344
 20
186.9968719482422
 30
0.0
 11
468.24891662597656
 21
186.98756408691406
 31
0.0
  0
LINE
  5
203
330
17
100
AcDbEntity
  8
CONTOUR
100
AcDbLine
 10
468.12461853027344
 20
274.5031051635742
 30
0.0
 11
468.24891662597656
 21
274.51241302490234
 31
0.0
  0
LINE
  5
204
330
17
100
AcDbEntity
  8
CONTOUR
100
AcDbLine
 10
468.12461853027344
 20
279.4968795776367
 30
0.0
 11
468.24891662597656
 21
279.4875717163086
 31
0.0
  0
LINE
  5
205
330
17
100
AcDbEntity
  8
CONTOUR
100
AcDbLine
 10
468.24891662597656
 20
182.0124053955078
 30
0.0
 11
468.3726043701172
 21
182.02792358398438
 31
0.0
  0
LINE
  5
206
330
17
100
AcDbEntity
  8
CONTOUR
100
AcDbLine
 10
468.24891662597656
 20
186.98756408691406
 30
0.0
 11
468.3726043701172
 21
186.97207641601562
 31
0.0
  0
LINE
  5
207
330
17
100
AcDbEntity
  8
CONTOUR
100
AcDbLine
 10
468.24891662597656
 20
274.51241302490234
 30
0.0
 11
468.3726043701172
 21
274.52791595458984
 31
0.0
  0
LINE
  5
208
330
17
100
AcDbEntity
  8
CONTOUR
100
AcDbLine
 10
468.24891662597656
 20
279.4875717163086
 30
0.0
 11
468.3726043701172
 21
279.4720687866211
 31
0.0
  0
LINE
  5
209
330
17
100
AcDbEntity
  8
CONTOUR
100
AcDbLine
 10
468.3726043701172
 20
186.97207641601562
 30
0.0
 11
468.49536895751953
 21
186.950439453125
 31
0.0
  0
LINE
  5
20A
330
17
100
AcDbEntity
  8
CONTOUR
100
AcDbLine
 10
468.3726043701172
 20
274.52791595458984
 30
0.0
 11
468.49536895751953
 21
274.54956817626953
 31
0.0
  0
LINE
  5
20B
330
17
100
AcDbEntity
  8
CONTOUR
100
AcDbLine
 10
468.3726043701172
 20
279.4720687866211
 30
0.0
 11
468.49536895751953
 21
279.45043182373047
 31
0.0
  0
LINE
  5
20C
330
17
100
AcDbEntity
  8
CONTOUR
100
AcDbLine
 10
468.49536895751953
 20
182.049560546875
 30
0.0
 11
468.3726043701172
 21
182.02792358398438
 31
0.0
  0
LINE
  5
20D
330
17
100
AcDbEntity
  8
CONTOUR
100
AcDbLine
 10
468.49536895751953
 20
182.049560546875
 30
0.0
 11
468.6168975830078
 21
182.07730102539062
 31
0.0
  0
LINE
  5
20E
330
17
100
AcDbEntity
  8
CONTOUR
100
AcDbLine
 10
468.49536895751953
 20
186.950439453125
 30
0.0
 11
468.6168975830078
 21
186.92269897460938
 31
0.0
  0
LINE
  5
20F
330
17
100
AcDbEntity
  8
CONTOUR
100
AcDbLine
 10
468.49536895751953
 20
274.54956817626953
 30
0.0
 11
468.6168975830078
 21
274.57730865478516
 31
0.0
  0
LINE
  5
210
330
17
100
AcDbEntity
  8
CONTOUR
100
AcDbLine
 10
468.49536895751953
 20
279.45043182373047
 30
0.0
 11
468.6168975830078
 21
279.42269134521484
 31
0.0
  0
LINE
  5
211
330
17
100
AcDbEntity
  8
CONTOUR
100
AcDbLine
 10
468.6168975830078
 20
182.07730102539062
 30
0.0
 11
468.7368850708008
 21
182.111083984375
 31
0.0
  0
LINE
  5
212
330
17
100
AcDbEntity
  8
CONTOUR
100
AcDbLine
 10
468.6168975830078
 20
186.92269897460938
 30
0.0
 11
468.7368850708008
 21
186.88894653320312
 31
0.0
  0
LINE
  5
213
330
17
100
AcDbEntity
  8
CONTOUR
100
AcDbLine
 10
468.6168975830078
 20
274.57730865478516
 30
0.0
 11
468.7368850708008
 21
274.6110610961914
 31
0.0
  0
LINE
  5
214
330
17
100
AcDbEntity
  8
CONTOUR
100
AcDbLine
 10
468.6168975830078
 20
279.42269134521484
 30
0.0
 11
468.7368850708008
 21
279.38892364501953
 31
0.0
  0
LINE
  5
215
330
17
100
AcDbEntity
  8
CONTOUR
100
AcDbLine
 10
468.7368850708008
 20
182.111083984375
 30
0.0
 11
468.8550491333008
 21
182.15074157714844
 31
0.0
  0
LINE
  5
216
330
17
100
AcDbEntity
  8
CONTOUR
100
AcDbLine
 10
468.7368850708008
 20
186.88894653320312
 30
0.0
 11
468.8550491333008
 21
186.84922790527344
 31
0.0
  0
LINE
  5
217
330
17
100
AcDbEntity
  8
CONTOUR
100
AcDbLine
 10
468.7368850708008
 20
274.6110610961914
 30
0.0
 11
468.8550491333008
 21
274.65076446533203
 31
0.0
  0
LINE
  5
218
330
17
100
AcDbEntity
  8
CONTOUR
100
AcDbLine
 10
468.7368850708008
 20
279.38892364501953
 30
0.0
 11
468.8550491333008
 21
279.3492202758789
 31
0.0
  0
LINE
  5
219
330
17
100
AcDbEntity
  8
CONTOUR
100
AcDbLine
 10
468.8550491333008
 20
182.15074157714844
 30
0.0
 11
468.97108459472656
 21
182.19631958007812
 31
0.0
  0
LINE
  5
21A
330
17
100
AcDbEntity
  8
CONTOUR
100
AcDbLine
 10
468.8550491333008
 20
186.84922790527344
 30
0.0
 11
468.97108459472656
 21
186.80368041992188
 31
0.0
  0
LINE
  5
21B
330
17
100
AcDbEntity
  8
CONTOUR
100
AcDbLine
 10
468.8550491333008
 20
274.65076446533203
 30
0.0
 11
468.97108459472656
 21
274.69629669189453
 31
0.0
  0
LINE
  5
21C
330
17
100
AcDbEntity
  8
CONTOUR
100
AcDbLine
 10
468.8550491333008
 20
279.3492202758789
 30
0.0
 11
468.97108459472656
 21
279.3036880493164
 31
0.0
  0
LINE
  5
21D
330
17
100
AcDbEntity
  8
CONTOUR
100
AcDbLine
 10
468.97108459472656
 20
182.19631958007812
 30
0.0
 11
469.08470916748047
 21
182.24758911132812
 31
0.0
  0
LINE
  5
21E
330
17
100
AcDbEntity
  8
CONTOUR
100
AcDbLine
 10
468.97108459472656
 20
186.80368041992188
 30
0.0
 11
469.08470916748047
 21
186.7523956298828
 31
0.0
  0
LINE
  5
21F
330
17
100
AcDbEntity
  8
CONTOUR
100
AcDbLine
 10
468.97108459472656
 20
274.69629669189453
 30
0.0
 11
469.08470916748047
 21
274.74756622314453
 31
0.0
  0
LINE
  5
220
330
17
100
AcDbEntity
  8
CONTOUR
100
AcDbLine
 10
468.97108459472656
 20
279.3036880493164
 30
0.0
 11
469.08470916748047
 21
279.2524185180664
 31
0.0
  0
LINE
  5
221
330
17
100
AcDbEntity
  8
CONTOUR
100
AcDbLine
 10
469.08470916748047
 20
182.24758911132812
 30
0.0
 11
469.1956329345703
 21
182.30442810058594
 31
0.0
  0
LINE
  5
222
330
17
100
AcDbEntity
  8
CONTOUR
100
AcDbLine
 10
469.08470916748047
 20
186.7523956298828
 30
0.0
 11
469.1956329345703
 21
186.69554138183594
 31
0.0
  0
LINE
  5
223
330
17
100
AcDbEntity
  8
CONTOUR
100
AcDbLine
 10
469.08470916748047
 20
279.2524185180664
 30
0.0
 11
469.1956329345703
 21
279.19554901123047
 31
0.0
  0
LINE
  5
224
330
17
100
AcDbEntity
  8
CONTOUR
100
AcDbLine
 10
469.1956329345703
 20
182.30442810058594
 30
0.0
 11
469.3035888671875
 21
182.3667449951172
 31
0.0
  0
LINE
  5
225
330
17
100
AcDbEntity
  8
CONTOUR
100
AcDbLine
 10
469.1956329345703
 20
186.69554138183594
 30
0.0
 11
469.3035888671875
 21
186.6332244873047
 31
0.0
  0
LINE
  5
226
330
17
100
AcDbEntity
  8
CONTOUR
100
AcDbLine
 10
469.1956329345703
 20
274.80443572998047
 30
0.0
 11
469.08470916748047
 21
274.74756622314453
 31
0.0
  0
LINE
  5
227
330
17
100
AcDbEntity
  8
CONTOUR
100
AcDbLine
 10
469.1956329345703
 20
274.80443572998047
 30
0.0
 11
469.3035888671875
 21
274.8667678833008
 31
0.0
  0
LINE
  5
228
330
17
100
AcDbEntity
  8
CONTOUR
100
AcDbLine
 10
469.1956329345703
 20
279.19554901123047
 30
0.0
 11
469.3035888671875
 21
279.13321685791016
 31
0.0
  0
LINE
  5
229
330
17
100
AcDbEntity
  8
CONTOUR
100
AcDbLine
 10
469.3035888671875
 20
182.3667449951172
 30
0.0
 11
469.4083023071289
 21
182.4344024658203
 31
0.0
  0
LINE
  5
22A
330
17
100
AcDbEntity
  8
CONTOUR
100
AcDbLine
 10
469.3035888671875
 20
186.6332244873047
 30
0.0
 11
469.4083023071289
 21
186.5655975341797
 31
0.0
  0
LINE
  5
22B
330
17
100
AcDbEntity
  8
CONTOUR
100
AcDbLine
 10
469.3035888671875
 20
274.8667678833008
 30
0.0
 11
469.4083023071289
 21
274.9343948364258
 31
0.0
  0
LINE
  5
22C
330
17
100
AcDbEntity
  8
CONTOUR
100
AcDbLine
 10
469.3035888671875
 20
279.13321685791016
 30
0.0
 11
469.4083023071289
 21
279.06558990478516
 31
0.0
  0
LINE
  5
22D
330
17
100
AcDbEntity
  8
CONTOUR
100
AcDbLine
 10
469.4083023071289
 20
182.4344024658203
 30
0.0
 11
469.50951385498047
 21
182.5071563720703
 31
0.0
  0
LINE
  5
22E
330
17
100
AcDbEntity
  8
CONTOUR
100
AcDbLine
 10
469.4083023071289
 20
186.5655975341797
 30
0.0
 11
469.50951385498047
 21
186.49281311035156
 31
0.0
  0
LINE
  5
22F
330
17
100
AcDbEntity
  8
CONTOUR
100
AcDbLine
 10
469.4083023071289
 20
274.9343948364258
 30
0.0
 11
469.50951385498047
 21
275.00716400146484
 31
0.0
  0
LINE
  5
230
330
17
100
AcDbEntity
  8
CONTOUR
100
AcDbLine
 10
469.4083023071289
 20
279.06558990478516
 30
0.0
 11
469.50951385498047
 21
278.9928207397461
 31
0.0
  0
LINE
  5
231
330
17
100
AcDbEntity
  8
CONTOUR
100
AcDbLine
 10
469.50951385498047
 20
182.5071563720703
 30
0.0
 11
469.60697174072266
 21
182.58489990234375
 31
0.0
  0
LINE
  5
232
330
17
100
AcDbEntity
  8
CONTOUR
100
AcDbLine
 10
469.50951385498047
 20
186.49281311035156
 30
0.0
 11
469.60697174072266
 21
186.41510009765625
 31
0.0
  0
LINE
  5
233
330
17
100
AcDbEntity
  8
CONTOUR
100
AcDbLine
 10
469.50951385498047
 20
275.00716400146484
 30
0.0
 11
469.60697174072266
 21
275.08487701416016
 31
0.0
  0
LINE
  5
234
330
17
100
AcDbEntity
  8
CONTOUR
100
AcDbLine
 10
469.50951385498047
 20
278.9928207397461
 30
0.0
 11
469.60697174072266
 21
278.9151077270508
 31
0.0
  0
LINE
  5
235
330
17
100
AcDbEntity
  8
CONTOUR
100
AcDbLine
 10
469.60697174072266
 20
182.58489990234375
 30
0.0
 11
469.70043182373047
 21
182.6673583984375
 31
0.0
  0
LINE
  5
236
330
17
100
AcDbEntity
  8
CONTOUR
100
AcDbLine
 10
469.60697174072266
 20
186.41510009765625
 30
0.0
 11
469.70043182373047
 21
186.3326416015625
 31
0.0
  0
LINE
  5
237
330
17
100
AcDbEntity
  8
CONTOUR
100
AcDbLine
 10
469.60697174072266
 20
275.08487701416016
 30
0.0
 11
469.70043182373047
 21
275.16736602783203
 31
0.0
  0
LINE
  5
238
330
17
100
AcDbEntity
  8
CONTOUR
100
AcDbLine
 10
469.60697174072266
 20
278.9151077270508
 30
0.0
 11
469.70043182373047
 21
278.8326187133789
 31
0.0
  0
LINE
  5
239
330
17
100
AcDbEntity
  8
CONTOUR
100
AcDbLine
 10
469.70043182373047
 20
182.6673583984375
 30
0.0
 11
469.78966522216797
 21
182.75439453125
 31
0.0
  0
LINE
  5
23A
330
17
100
AcDbEntity
  8
CONTOUR
100
AcDbLine
 10
469.70043182373047
 20
186.3326416015625
 30
0.0
 11
469.78966522216797
 21
186.24560546875
 31
0.0
  0
LINE
  5
23B
330
17
100
AcDbEntity
  8
CONTOUR
100
AcDbLine
 10
469.70043182373047
 20
275.16736602783203
 30
0.0
 11
469.78966522216797
 21
275.25440216064453
 31
0.0
  0
LINE
  5
23C
330
17
100
AcDbEntity
  8
CONTOUR
100
AcDbLine
 10
469.70043182373047
 20
278.8326187133789
 30
0.0
 11
469.78966522216797
 21
278.7455825805664
 31
0.0
  0
LINE
  5
23D
330
17
100
AcDbEntity
  8
CONTOUR
100
AcDbLine
 10
469.78966522216797
 20
182.75439453125
 30
0.0
 11
469.87445068359375
 21
182.8457794189453
 31
0.0
  0
LINE
  5
23E
330
17
100
AcDbEntity
  8
CONTOUR
100
AcDbLine
 10
469.78966522216797
 20
186.24560546875
 30
0.0
 11
469.87445068359375
 21
186.15419006347656
 31
0.0
  0
LINE
  5
23F
330
17
100
AcDbEntity
  8
CONTOUR
100
AcDbLine
 10
469.78966522216797
 20
275.25440216064453
 30
0.0
 11
469.87445068359375
 21
275.34578704833984
 31
0.0
  0
LINE
  5
240
330
17
100
AcDbEntity
  8
CONTOUR
100
AcDbLine
 10
469.78966522216797
 20
278.7455825805664
 30
0.0
 11
469.87445068359375
 21
278.65421295166016
 31
0.0
  0
LINE
  5
241
330
17
100
AcDbEntity
  8
CONTOUR
100
AcDbLine
 10
469.87445068359375
 20
182.8457794189453
 30
0.0
 11
469.95457458496094
 21
182.94126892089844
 31
0.0
  0
LINE
  5
242
330
17
100
AcDbEntity
  8
CONTOUR
100
AcDbLine
 10
469.87445068359375
 20
186.15419006347656
 30
0.0
 11
469.95457458496094
 21
186.05870056152344
 31
0.0
  0
LINE
  5
243
330
17
100
AcDbEntity
  8
CONTOUR
100
AcDbLine
 10
469.87445068359375
 20
275.34578704833984
 30
0.0
 11
469.95457458496094
 21
275.44127655029297
 31
0.0
  0
LINE
  5
244
330
17
100
AcDbEntity
  8
CONTOUR
100
AcDbLine
 10
469.87445068359375
 20
278.65421295166016
 30
0.0
 11
469.95457458496094
 21
278.55872344970703
 31
0.0
  0
LINE
  5
245
330
17
100
AcDbEntity
  8
CONTOUR
100
AcDbLine
 10
469.95457458496094
 20
182.94126892089844
 30
0.0
 11
470.02984619140625
 21
183.0406494140625
 31
0.0
  0
LINE
  5
246
330
17
100
AcDbEntity
  8
CONTOUR
100
AcDbLine
 10
469.95457458496094
 20
186.05870056152344
 30
0.0
 11
470.02984619140625
 21
185.9593505859375
 31
0.0
  0
LINE
  5
247
330
17
100
AcDbEntity
  8
CONTOUR
100
AcDbLine
 10
469.95457458496094
 20
275.44127655029297
 30
0.0
 11
470.02984619140625
 21
275.54064178466797
 31
0.0
  0
LINE
  5
248
330
17
100
AcDbEntity
  8
CONTOUR
100
AcDbLine
 10
469.95457458496094
 20
278.55872344970703
 30
0.0
 11
470.02984619140625
 21
278.45935821533203
 31
0.0
  0
LINE
  5
249
330
17
100
AcDbEntity
  8
CONTOUR
100
AcDbLine
 10
470.02984619140625
 20
183.0406494140625
 30
0.0
 11
470.1000671386719
 21
183.1436309814453
 31
0.0
  0
LINE
  5
24A
330
17
100
AcDbEntity
  8
CONTOUR
100
AcDbLine
 10
470.02984619140625
 20
185.9593505859375
 30
0.0
 11
470.1000671386719
 21
185.85633850097656
 31
0.0
  0
LINE
  5
24B
330
17
100
AcDbEntity
  8
CONTOUR
100
AcDbLine
 10
470.02984619140625
 20
275.54064178466797
 30
0.0
 11
470.1000671386719
 21
275.6436233520508
 31
0.0
  0
LINE
  5
24C
330
17
100
AcDbEntity
  8
CONTOUR
100
AcDbLine
 10
470.02984619140625
 20
278.45935821533203
 30
0.0
 11
470.1000671386719
 21
278.35636138916016
 31
0.0
  0
LINE
  5
24D
330
17
100
AcDbEntity
  8
CONTOUR
100
AcDbLine
 10
470.1000671386719
 20
183.1436309814453
 30
0.0
 11
470.1650619506836
 21
183.25
 31
0.0
  0
LINE
  5
24E
330
17
100
AcDbEntity
  8
CONTOUR
100
AcDbLine
 10
470.1000671386719
 20
185.85633850097656
 30
0.0
 11
470.1650619506836
 21
185.75
 31
0.0
  0
LINE
  5
24F
330
17
100
AcDbEntity
  8
CONTOUR
100
AcDbLine
 10
470.1000671386719
 20
275.6436233520508
 30
0.0
 11
470.1650619506836
 21
275.74999237060547
 31
0.0
  0
LINE
  5
250
330
17
100
AcDbEntity
  8
CONTOUR
100
AcDbLine
 10
470.1000671386719
 20
278.35636138916016
 30
0.0
 11
470.1650619506836
 21
278.24999237060547
 31
0.0
  0
LINE
  5
251
330
17
100
AcDbEntity
  8
CONTOUR
100
AcDbLine
 10
470.1650619506836
 20
183.25
 30
0.0
 11
470.2246780395508
 21
183.35946655273438
 31
0.0
  0
LINE
  5
252
330
17
100
AcDbEntity
  8
CONTOUR
100
AcDbLine
 10
470.1650619506836
 20
185.75
 30
0.0
 11
470.2246780395508
 21
185.64053344726562
 31
0.0
  0
LINE
  5
253
330
17
100
AcDbEntity
  8
CONTOUR
100
AcDbLine
 10
470.1650619506836
 20
275.74999237060547
 30
0.0
 11
470.2246780395508
 21
275.8594741821289
 31
0.0
  0
LINE
  5
254
330
17
100
AcDbEntity
  8
CONTOUR
100
AcDbLine
 10
470.1650619506836
 20
278.24999237060547
 30
0.0
 11
470.2246780395508
 21
278.1405258178711
 31
0.0
  0
LINE
  5
255
330
17
100
AcDbEntity
  8
CONTOUR
100
AcDbLine
 10
470.2246780395508
 20
185.64053344726562
 30
0.0
 11
470.2787628173828
 21
185.52821350097656
 31
0.0
  0
LINE
  5
256
330
17
100
AcDbEntity
  8
CONTOUR
100
AcDbLine
 10
470.2246780395508
 20
275.8594741821289
 30
0.0
 11
470.2787628173828
 21
275.9717788696289
 31
0.0
  0
LINE
  5
257
330
17
100
AcDbEntity
  8
CONTOUR
100
AcDbLine
 10
470.2246780395508
 20
278.1405258178711
 30
0.0
 11
470.2787628173828
 21
278.02820587158203
 31
0.0
  0
LINE
  5
258
330
17
100
AcDbEntity
  8
CONTOUR
100
AcDbLine
 10
470.2787628173828
 20
183.4717559814453
 30
0.0
 11
470.2246780395508
 21
183.35946655273438
 31
0.0
  0
LINE
  5
259
330
17
100
AcDbEntity
  8
CONTOUR
100
AcDbLine
 10
470.2787628173828
 20
183.4717559814453
 30
0.0
 11
470.32718658447266
 21
183.58663940429688
 31
0.0
  0
LINE
  5
25A
330
17
100
AcDbEntity
  8
CONTOUR
100
AcDbLine
 10
470.2787628173828
 20
185.52821350097656
 30
0.0
 11
470.32718658447266
 21
185.41336059570312
 31
0.0
  0
LINE
  5
25B
330
17
100
AcDbEntity
  8
CONTOUR
100
AcDbLine
 10
470.2787628173828
 20
275.9717788696289
 30
0.0
 11
470.32718658447266
 21
276.0866470336914
 31
0.0
  0
LINE
  5
25C
330
17
100
AcDbEntity
  8
CONTOUR
100
AcDbLine
 10
470.2787628173828
 20
278.02820587158203
 30
0.0
 11
470.32718658447266
 21
277.9133529663086
 31
0.0
  0
LINE
  5
25D
330
17
100
AcDbEntity
  8
CONTOUR
100
AcDbLine
 10
470.32718658447266
 20
183.58663940429688
 30
0.0
 11
470.3698196411133
 21
183.7037811279297
 31
0.0
  0
LINE
  5
25E
330
17
100
AcDbEntity
  8
CONTOUR
100
AcDbLine
 10
470.32718658447266
 20
185.41336059570312
 30
0.0
 11
470.3698196411133
 21
185.29620361328125
 31
0.0
  0
LINE
  5
25F
330
17
100
AcDbEntity
  8
CONTOUR
100
AcDbLine
 10
470.32718658447266
 20
276.0866470336914
 30
0.0
 11
470.3698196411133
 21
276.20377349853516
 31
0.0
  0
LINE
  5
260
330
17
100
AcDbEntity
  8
CONTOUR
100
AcDbLine
 10
470.32718658447266
 20
277.9133529663086
 30
0.0
 11
470.3698196411133
 21
277.7962112426758
 31
0.0
  0
LINE
  5
261
330
17
100
AcDbEntity
  8
CONTOUR
100
AcDbLine
 10
470.3698196411133
 20
183.7037811279297
 30
0.0
 11
470.4065628051758
 21
183.82290649414062
 31
0.0
  0
LINE
  5
262
330
17
100
AcDbEntity
  8
CONTOUR
100
AcDbLine
 10
470.3698196411133
 20
185.29620361328125
 30
0.0
 11
470.4065628051758
 21
185.17709350585938
 31
0.0
  0
LINE
  5
263
330
17
100
AcDbEntity
  8
CONTOUR
100
AcDbLine
 10
470.3698196411133
 20
276.20377349853516
 30
0.0
 11
470.4065628051758
 21
276.3228988647461
 31
0.0
  0
LINE
  5
264
330
17
100
AcDbEntity
  8
CONTOUR
100
AcDbLine
 10
470.3698196411133
 20
277.7962112426758
 30
0.0
 11
470.4065628051758
 21
277.6771011352539
 31
0.0
  0
LINE
  5
265
330
17
100
AcDbEntity
  8
CONTOUR
100
AcDbLine
 10
470.4065628051758
 20
183.82290649414062
 30
0.0
 11
470.43731689453125
 21
183.94369506835938
 31
0.0
  0
LINE
  5
266
330
17
100
AcDbEntity
  8
CONTOUR
100
AcDbLine
 10
470.4065628051758
 20
185.17709350585938
 30
0.0
 11
470.43731689453125
 21
185.05630493164062
 31
0.0
  0
LINE
  5
267
330
17
100
AcDbEntity
  8
CONTOUR
100
AcDbLine
 10
470.4065628051758
 20
276.3228988647461
 30
0.0
 11
470.43731689453125
 21
276.44368743896484
 31
0.0
  0
LINE
  5
268
330
17
100
AcDbEntity
  8
CONTOUR
100
AcDbLine
 10
470.4065628051758
 20
277.6771011352539
 30
0.0
 11
470.43731689453125
 21
277.5562973022461
 31
0.0
  0
LINE
  5
269
330
17
100
AcDbEntity
  8
CONTOUR
100
AcDbLine
 10
470.43731689453125
 20
183.94369506835938
 30
0.0
 11
470.46202087402344
 21
184.06588745117188
 31
0.0
  0
LINE
  5
26A
330
17
100
AcDbEntity
  8
CONTOUR
100
AcDbLine
 10
470.43731689453125
 20
185.05630493164062
 30
0.0
 11
470.46202087402344
 21
184.93411254882812
 31
0.0
  0
LINE
  5
26B
330
17
100
AcDbEntity
  8
CONTOUR
100
AcDbLine
 10
470.43731689453125
 20
276.44368743896484
 30
0.0
 11
470.46202087402344
 21
276.56587982177734
 31
0.0
  0
LINE
  5
26C
330
17
100
AcDbEntity
  8
CONTOUR
100
AcDbLine
 10
470.43731689453125
 20
277.5562973022461
 30
0.0
 11
470.46202087402344
 21
277.43412017822266
 31
0.0
  0
LINE
  5
26D
330
17
100
AcDbEntity
  8
CONTOUR
100
AcDbLine
 10
470.46202087402344
 20
184.06588745117188
 30
0.0
 11
470.48059844970703
 21
184.18914794921875
 31
0.0
  0
LINE
  5
26E
330
17
100
AcDbEntity
  8
CONTOUR
100
AcDbLine
 10
470.46202087402344
 20
184.93411254882812
 30
0.0
 11
470.48059844970703
 21
184.81085205078125
 31
0.0
  0
LINE
  5
26F
330
17
100
AcDbEntity
  8
CONTOUR
100
AcDbLine
 10
470.46202087402344
 20
276.56587982177734
 30
0.0
 11
470.48059844970703
 21
276.6891403198242
 31
0.0
  0
LINE
  5
270
330
17
100
AcDbEntity
  8
CONTOUR
100
AcDbLine
 10
470.46202087402344
 20
277.43412017822266
 30
0.0
 11
470.48059844970703
 21
277.3108596801758
 31
0.0
  0
LINE
  5
271
330
17
100
AcDbEntity
  8
CONTOUR
100
AcDbLine
 10
470.48059844970703
 20
184.18914794921875
 30
0.0
 11
470.4930114746094
 21
184.3131561279297
 31
0.0
  0
LINE
  5
272
330
17
100
AcDbEntity
  8
CONTOUR
100
AcDbLine
 10
470.48059844970703
 20
184.81085205078125
 30
0.0
 11
470.4930114746094
 21
184.68682861328125
 31
0.0
  0
LINE
  5
273
330
17
100
AcDbEntity
  8
CONTOUR
100
AcDbLine
 10
470.48059844970703
 20
276.6891403198242
 30
0.0
 11
470.4930114746094
 21
276.8131637573242
 31
0.0
  0
LINE
  5
274
330
17
100
AcDbEntity
  8
CONTOUR
100
AcDbLine
 10
470.48059844970703
 20
277.3108596801758
 30
0.0
 11
470.4930114746094
 21
277.1868209838867
 31
0.0
  0
LINE
  5
275
330
17
100
AcDbEntity
  8
CONTOUR
100
AcDbLine
 10
470.4930114746094
 20
184.3131561279297
 30
0.0
 11
470.4992218017578
 21
184.43768310546875
 31
0.0
  0
LINE
  5
276
330
17
100
AcDbEntity
  8
CONTOUR
100
AcDbLine
 10
470.4930114746094
 20
184.68682861328125
 30
0.0
 11
470.4992218017578
 21
184.56231689453125
 31
0.0
  0
LINE
  5
277
330
17
100
AcDbEntity
  8
CONTOUR
100
AcDbLine
 10
470.4930114746094
 20
276.8131637573242
 30
0.0
 11
470.4992218017578
 21
276.9376754760742
 31
0.0
  0
LINE
  5
278
330
17
100
AcDbEntity
  8
CONTOUR
100
AcDbLine
 10
470.4930114746094
 20
277.1868209838867
 30
0.0
 11
470.4992218017578
 21
277.0623245239258
 31
0.0
  0
LINE
  5
279
330
17
100
AcDbEntity
  8
CONTOUR
100
AcDbLine
 10
470.4992218017578
 20
184.56231689453125
 30
0.0
 11
470.4992218017578
 21
184.43768310546875
 31
0.0
  0
LINE
  5
27A
330
17
100
AcDbEntity
  8
CONTOUR
100
AcDbLine
 10
470.4992218017578
 20
277.0623245239258
 30
0.0
 11
470.4992218017578
 21
276.9376754760742
 31
0.0
  0
LINE
  5
27B
330
17
100
AcDbEntity
  8
CONTOUR
100
AcDbLine
 10
475.5
 20
189.5
 30
0.0
 11
475.5
 21
179.5
 31
0.0
  0
LINE
  5
27C
330
17
100
AcDbEntity
  8
CONTOUR
100
AcDbLine
 10
475.5
 20
281.99999237060547
 30
0.0
 11
475.5
 21
271.99999237060547
 31
0.0
  0
LINE
  5
27D
330
17
100
AcDbEntity
  8
CONTOUR
100
AcDbLine
 10
478.0
 20
217.0
 30
0.0
 11
478.0
 21
266.99999237060547
 31
0.0
  0
LINE
  5
27E
330
17
100
AcDbEntity
  8
HIDDEN
100
AcDbLine
 10
363.0
 20
237.00155639648438
 30
0.0
 11
478.0
 21
237.00155639648438
 31
0.0
  0
LINE
  5
27F
330
17
100
AcDbEntity
  8
HIDDEN
100
AcDbLine
 10
363.0
 20
246.9984359741211
 30
0.0
 11
478.0
 21
246.9984359741211
 31
0.0
  0
LINE
  5
280
330
17
100
AcDbEntity
  8
HIDDEN
100
AcDbLine
 10
420.4609375
 20
167.0
 30
0.0
 11
420.5
 21
167.0
 31
0.0
  0
LINE
  5
281
330
17
100
AcDbEntity
  8
HIDDEN
100
AcDbLine
 10
380.5
 20
217.0
 30
0.0
 11
380.4658203125
 21
217.0
 31
0.0
  0
LINE
  5
282
330
17
100
AcDbEntity
  8
HIDDEN
100
AcDbLine
 10
380.5
 20
266.99999237060547
 30
0.0
 11
380.4658203125
 21
266.99999237060547
 31
0.0
  0
LINE
  5
283
330
17
100
AcDbEntity
  8
HIDDEN
100
AcDbLine
 10
380.5
 20
282.03905487060547
 30
0.0
 11
380.5
 21
281.99999237060547
 31
0.0
  0
LINE
  5
284
330
17
100
AcDbEntity
  8
HIDDEN
100
AcDbLine
 10
380.5
 20
207.0
 30
0.0
 11
380.5
 21
206.9609375
 31
0.0
  0
LINE
  5
285
330
17
100
AcDbEntity
  8
HIDDEN
100
AcDbLine
 10
405.4755859375
 20
291.99999237060547
 30
0.0
 11
405.5
 21
291.99999237060547
 31
0.0
  0
LINE
  5
286
330
17
100
AcDbEntity
  8
HIDDEN
100
AcDbLine
 10
407.9609375
 20
204.5
 30
0.0
 11
413.0390625
 21
204.5
 31
0.0
  0
LINE
  5
287
330
17
100
AcDbEntity
  8
HIDDEN
100
AcDbLine
 10
460.5
 20
179.5
 30
0.0
 11
460.529296875
 21
179.5
 31
0.0
  0
LINE
  5
288
330
17
100
AcDbEntity
  8
HIDDEN
100
AcDbLine
 10
460.5
 20
189.5
 30
0.0
 11
460.529296875
 21
189.5
 31
0.0
  0
LINE
  5
289
330
17
100
AcDbEntity
  8
HIDDEN
100
AcDbLine
 10
460.5
 20
217.0
 30
0.0
 11
460.5341796875
 21
217.0
 31
0.0
  0
LINE
  5
28A
330
17
100
AcDbEntity
  8
HIDDEN
100
AcDbLine
 10
460.5
 20
266.99999237060547
 30
0.0
 11
460.5341796875
 21
266.99999237060547
 31
0.0
  0
LINE
  5
28B
330
17
100
AcDbEntity
  8
HIDDEN
100
AcDbLine
 10
460.5
 20
271.99999237060547
 30
0.0
 11
460.529296875
 21
271.99999237060547
 31
0.0
  0
LINE
  5
28C
330
17
100
AcDbEntity
  8
HIDDEN
100
AcDbLine
 10
460.5
 20
281.99999237060547
 30
0.0
 11
460.529296875
 21
281.99999237060547
 31
0.0
  0
LINE
  5
28D
330
17
100
AcDbEntity
  8
CENTER
100
AcDbLine
 10
395.00082824155265
 20
286.99999464587523
 30
0.0
 11
400.99917017416647
 21
286.99999464587523
 31
0.0
  0
LINE
  5
28E
330
17
100
AcDbEntity
  8
CENTER
100
AcDbLine
 10
397.99999920785956
 20
284.0008236795683
 30
0.0
 11
397.99999920785956
 21
289.99916561218214
 31
0.0
  0
LINE
  5
28F
330
17
100
AcDbEntity
  8
CENTER
100
AcDbLine
 10
395.0008286011407
 20
184.49999434107596
 30
0.0
 11
400.9991698145815
 21
184.49999434107596
 31
0.0
  0
LINE
  5
290
330
17
100
AcDbEntity
  8
CENTER
100
AcDbLine
 10
397.9999992078611
 20
181.5008237343556
 30
0.0
 11
397.9999992078611
 21
187.49916494779632
 31
0.0
  0
LINE
  5
291
330
17
100
AcDbEntity
  8
CENTER
100
AcDbLine
 10
465.00082903465807
 20
276.999994080821
 30
0.0
 11
470.99917101580604
 21
276.999994080821
 31
0.0
  0
LINE
  5
292
330
17
100
AcDbEntity
  8
CENTER
100
AcDbLine
 10
468.00000002523205
 20
274.00082309024697
 30
0.0
 11
468.00000002523205
 21
279.999165071395
 31
0.0
  0
LINE
  5
293
330
17
100
AcDbEntity
  8
CENTER
100
AcDbLine
 10
465.0008289845383
 20
184.49999434107497
 30
0.0
 11
470.9991710659282
 21
184.49999434107497
 31
0.0
  0
LINE
  5
294
330
17
100
AcDbEntity
  8
CENTER
100
AcDbLine
 10
468.00000002523325
 20
181.50082330038003
 30
0.0
 11
468.00000002523325
 21
187.4991653817699
 31
0.0
  0
LINE
  5
295
330
17
100
AcDbEntity
  8
CENTER
100
AcDbLine
 10
401.3333333333333
 20
241.99999269806463
 30
0.0
 11
439.6666666666667
 21
241.99999269806463
 31
0.0
  0
LINE
  5
296
330
17
100
AcDbEntity
  8
CONTOUR
100
AcDbLine
 10
543.0
 20
304.5
 30
0.0
 11
543.0
 21
249.5
 31
0.0
  0
LINE
  5
297
330
17
100
AcDbEntity
  8
CONTOUR
100
AcDbLine
 10
543.0
 20
304.5
 30
0.0
 11
555.4755859375
 21
304.5
 31
0.0
  0
LINE
  5
298
330
17
100
AcDbEntity
  8
CONTOUR
100
AcDbLine
 10
555.5
 20
304.5
 30
0.0
 11
555.5
 21
284.5
 31
0.0
  0
LINE
  5
299
330
17
100
AcDbEntity
  8
CONTOUR
100
AcDbLine
 10
565.5
 20
284.5
 30
0.0
 11
555.5
 21
284.5
 31
0.0
  0
LINE
  5
29A
330
17
100
AcDbEntity
  8
CONTOUR
100
AcDbLine
 10
565.5
 20
304.5
 30
0.0
 11
555.5
 21
304.5
 31
0.0
  0
LINE
  5
29B
330
17
100
AcDbEntity
  8
CONTOUR
100
AcDbLine
 10
565.5
 20
304.5
 30
0.0
 11
565.5
 21
284.5
 31
0.0
  0
LINE
  5
29C
330
17
100
AcDbEntity
  8
CONTOUR
100
AcDbLine
 10
647.9597091712058
 20
304.5
 30
0.0
 11
565.5402831993997
 21
304.5
 31
0.0
  0
LINE
  5
29D
330
17
100
AcDbEntity
  8
CONTOUR
100
AcDbLine
 10
570.5
 20
239.5
 30
0.0
 11
580.5
 21
239.5
 31
0.0
  0
LINE
  5
29E
330
17
100
AcDbEntity
  8
CONTOUR
100
AcDbLine
 10
570.5
 20
249.4609375
 30
0.0
 11
570.5
 21
239.5
 31
0.0
  0
LINE
  5
29F
330
17
100
AcDbEntity
  8
CONTOUR
100
AcDbLine
 10
573.0
 20
239.4609375
 30
0.0
 11
573.0
 21
234.5
 31
0.0
  0
LINE
  5
2A0
330
17
100
AcDbEntity
  8
CONTOUR
100
AcDbLine
 10
580.5
 20
249.4609375
 30
0.0
 11
580.5
 21
239.5
 31
0.0
  0
LINE
  5
2A1
330
17
100
AcDbEntity
  8
CONTOUR
100
AcDbLine
 10
580.5408935546875
 20
239.5
 30
0.0
 11
748.0
 21
239.5
 31
0.0
  0
LINE
  5
2A2
330
17
100
AcDbEntity
  8
CONTOUR
100
AcDbLine
 10
593.0
 20
262.0
 30
0.0
 11
642.9999923706055
 21
262.0
 31
0.0
  0
LINE
  5
2A3
330
17
100
AcDbEntity
  8
CONTOUR
100
AcDbLine
 10
593.0
 20
287.0
 30
0.0
 11
593.0
 21
262.0
 31
0.0
  0
LINE
  5
2A4
330
17
100
AcDbEntity
  8
CONTOUR
100
AcDbLine
 10
613.0015563964844
 20
274.3753471374512
 30
0.0
 11
613.0139770507812
 21
274.12635040283203
 31
0.0
  0
LINE
  5
2A5
330
17
100
AcDbEntity
  8
CONTOUR
100
AcDbLine
 10
613.0015563964844
 20
274.6246528625488
 30
0.0
 11
613.0015563964844
 21
274.3753471374512
 31
0.0
  0
LINE
  5
2A6
330
17
100
AcDbEntity
  8
CONTOUR
100
AcDbLine
 10
613.0139770507812
 20
274.87364959716797
 30
0.0
 11
613.0015563964844
 21
274.6246528625488
 31
0.0
  0
LINE
  5
2A7
330
17
100
AcDbEntity
  8
CONTOUR
100
AcDbLine
 10
613.0139770507812
 20
274.12635040283203
 30
0.0
 11
613.0388031005859
 21
273.87828063964844
 31
0.0
  0
LINE
  5
2A8
330
17
100
AcDbEntity
  8
CONTOUR
100
AcDbLine
 10
613.0388031005859
 20
273.87828063964844
 30
0.0
 11
613.0759429931641
 21
273.6317596435547
 31
0.0
  0
LINE
  5
2A9
330
17
100
AcDbEntity
  8
CONTOUR
100
AcDbLine
 10
613.0388031005859
 20
275.12171936035156
 30
0.0
 11
613.0139770507812
 21
274.87364959716797
 31
0.0
  0
LINE
  5
2AA
330
17
100
AcDbEntity
  8
CONTOUR
100
AcDbLine
 10
613.0759429931641
 20
273.6317596435547
 30
0.0
 11
613.1253509521484
 21
273.3873977661133
 31
0.0
  0
LINE
  5
2AB
330
17
100
AcDbEntity
  8
CONTOUR
100
AcDbLine
 10
613.0759429931641
 20
275.3682403564453
 30
0.0
 11
613.0388031005859
 21
275.12171936035156
 31
0.0
  0
LINE
  5
2AC
330
17
100
AcDbEntity
  8
CONTOUR
100
AcDbLine
 10
613.1253509521484
 20
273.3873977661133
 30
0.0
 11
613.1868591308594
 21
273.1457977294922
 31
0.0
  0
LINE
  5
2AD
330
17
100
AcDbEntity
  8
CONTOUR
100
AcDbLine
 10
613.1253509521484
 20
275.6126022338867
 30
0.0
 11
613.0759429931641
 21
275.3682403564453
 31
0.0
  0
LINE
  5
2AE
330
17
100
AcDbEntity
  8
CONTOUR
100
AcDbLine
 10
613.1868591308594
 20
275.8542022705078
 30
0.0
 11
613.1253509521484
 21
275.6126022338867
 31
0.0
  0
LINE
  5
2AF
330
17
100
AcDbEntity
  8
CONTOUR
100
AcDbLine
 10
613.1868591308594
 20
273.1457977294922
 30
0.0
 11
613.2603454589844
 21
272.90756607055664
 31
0.0
  0
LINE
  5
2B0
330
17
100
AcDbEntity
  8
CONTOUR
100
AcDbLine
 10
613.2603454589844
 20
272.90756607055664
 30
0.0
 11
613.3456115722656
 21
272.6732940673828
 31
0.0
  0
LINE
  5
2B1
330
17
100
AcDbEntity
  8
CONTOUR
100
AcDbLine
 10
613.2603454589844
 20
276.09243392944336
 30
0.0
 11
613.1868591308594
 21
275.8542022705078
 31
0.0
  0
LINE
  5
2B2
330
17
100
AcDbEntity
  8
CONTOUR
100
AcDbLine
 10
613.3456115722656
 20
272.6732940673828
 30
0.0
 11
613.4424591064453
 21
272.44356536865234
 31
0.0
  0
LINE
  5
2B3
330
17
100
AcDbEntity
  8
CONTOUR
100
AcDbLine
 10
613.3456115722656
 20
276.3267059326172
 30
0.0
 11
613.2603454589844
 21
276.09243392944336
 31
0.0
  0
LINE
  5
2B4
330
17
100
AcDbEntity
  8
CONTOUR
100
AcDbLine
 10
613.4424591064453
 20
272.44356536865234
 30
0.0
 11
613.5506439208984
 21
272.2189483642578
 31
0.0
  0
LINE
  5
2B5
330
17
100
AcDbEntity
  8
CONTOUR
100
AcDbLine
 10
613.4424591064453
 20
276.55643463134766
 30
0.0
 11
613.3456115722656
 21
276.3267059326172
 31
0.0
  0
LINE
  5
2B6
330
17
100
AcDbEntity
  8
CONTOUR
100
AcDbLine
 10
613.5506439208984
 20
272.2189483642578
 30
0.0
 11
613.6698760986328
 21
272.0
 31
0.0
  0
LINE
  5
2B7
330
17
100
AcDbEntity
  8
CONTOUR
100
AcDbLine
 10
613.5506439208984
 20
276.7810516357422
 30
0.0
 11
613.4424591064453
 21
276.55643463134766
 31
0.0
  0
LINE
  5
2B8
330
17
100
AcDbEntity
  8
CONTOUR
100
AcDbLine
 10
613.6698760986328
 20
272.0
 30
0.0
 11
613.7998504638672
 21
271.78726959228516
 31
0.0
  0
LINE
  5
2B9
330
17
100
AcDbEntity
  8
CONTOUR
100
AcDbLine
 10
613.6698760986328
 20
277.0
 30
0.0
 11
613.5506439208984
 21
276.7810516357422
 31
0.0
  0
LINE
  5
2BA
330
17
100
AcDbEntity
  8
CONTOUR
100
AcDbLine
 10
613.7998504638672
 20
271.78726959228516
 30
0.0
 11
613.9403076171875
 21
271.5812797546387
 31
0.0
  0
LINE
  5
2BB
330
17
100
AcDbEntity
  8
CONTOUR
100
AcDbLine
 10
613.7998504638672
 20
277.21273040771484
 30
0.0
 11
613.6698760986328
 21
277.0
 31
0.0
  0
LINE
  5
2BC
330
17
100
AcDbEntity
  8
CONTOUR
100
AcDbLine
 10
613.9403076171875
 20
271.5812797546387
 30
0.0
 11
614.0908355712891
 21
271.3825492858887
 31
0.0
  0
LINE
  5
2BD
330
17
100
AcDbEntity
  8
CONTOUR
100
AcDbLine
 10
613.9403076171875
 20
277.41871643066406
 30
0.0
 11
613.7998504638672
 21
277.21273040771484
 31
0.0
  0
LINE
  5
2BE
330
17
100
AcDbEntity
  8
CONTOUR
100
AcDbLine
 10
614.0908355712891
 20
271.3825492858887
 30
0.0
 11
614.2510833740234
 21
271.1915702819824
 31
0.0
  0
LINE
  5
2BF
330
17
100
AcDbEntity
  8
CONTOUR
100
AcDbLine
 10
614.0908355712891
 20
277.61744689941406
 30
0.0
 11
613.9403076171875
 21
277.41871643066406
 31
0.0
  0
LINE
  5
2C0
330
17
100
AcDbEntity
  8
CONTOUR
100
AcDbLine
 10
614.2510833740234
 20
271.1915702819824
 30
0.0
 11
614.4206695556641
 21
271.00881576538086
 31
0.0
  0
LINE
  5
2C1
330
17
100
AcDbEntity
  8
CONTOUR
100
AcDbLine
 10
614.2510833740234
 20
277.8084297180176
 30
0.0
 11
614.0908355712891
 21
277.61744689941406
 31
0.0
  0
LINE
  5
2C2
330
17
100
AcDbEntity
  8
CONTOUR
100
AcDbLine
 10
614.4206695556641
 20
271.00881576538086
 30
0.0
 11
614.59912109375
 21
270.8347396850586
 31
0.0
  0
LINE
  5
2C3
330
17
100
AcDbEntity
  8
CONTOUR
100
AcDbLine
 10
614.4206695556641
 20
277.99118423461914
 30
0.0
 11
614.2510833740234
 21
277.8084297180176
 31
0.0
  0
LINE
  5
2C4
330
17
100
AcDbEntity
  8
CONTOUR
100
AcDbLine
 10
614.59912109375
 20
270.8347396850586
 30
0.0
 11
614.7860565185547
 21
270.6697769165039
 31
0.0
  0
LINE
  5
2C5
330
17
100
AcDbEntity
  8
CONTOUR
100
AcDbLine
 10
614.59912109375
 20
278.1652603149414
 30
0.0
 11
614.4206695556641
 21
277.99118423461914
 31
0.0
  0
LINE
  5
2C6
330
17
100
AcDbEntity
  8
CONTOUR
100
AcDbLine
 10
614.7860565185547
 20
270.6697769165039
 30
0.0
 11
614.9809875488281
 21
270.5143356323242
 31
0.0
  0
LINE
  5
2C7
330
17
100
AcDbEntity
  8
CONTOUR
100
AcDbLine
 10
614.7860565185547
 20
278.3302230834961
 30
0.0
 11
614.59912109375
 21
278.1652603149414
 31
0.0
  0
LINE
  5
2C8
330
17
100
AcDbEntity
  8
CONTOUR
100
AcDbLine
 10
614.9809875488281
 20
270.5143356323242
 30
0.0
 11
615.1833801269531
 21
270.3688087463379
 31
0.0
  0
LINE
  5
2C9
330
17
100
AcDbEntity
  8
CONTOUR
100
AcDbLine
 10
614.9809875488281
 20
278.4856643676758
 30
0.0
 11
614.7860565185547
 21
278.3302230834961
 31
0.0
  0
LINE
  5
2CA
330
17
100
AcDbEntity
  8
CONTOUR
100
AcDbLine
 10
615.1833801269531
 20
278.6311950683594
 30
0.0
 11
614.9809875488281
 21
278.4856643676758
 31
0.0
  0
LINE
  5
2CB
330
17
100
AcDbEntity
  8
CONTOUR
100
AcDbLine
 10
615.1833801269531
 20
270.3688087463379
 30
0.0
 11
615.3928070068359
 21
270.23354721069336
 31
0.0
  0
LINE
  5
2CC
330
17
100
AcDbEntity
  8
CONTOUR
100
AcDbLine
 10
615.3928070068359
 20
270.23354721069336
 30
0.0
 11
615.6087188720703
 21
270.10889434814453
 31
0.0
  0
LINE
  5
2CD
330
17
100
AcDbEntity
  8
CONTOUR
100
AcDbLine
 10
615.3928070068359
 20
278.7664566040039
 30
0.0
 11
615.1833801269531
 21
278.6311950683594
 31
0.0
  0
LINE
  5
2CE
330
17
100
AcDbEntity
  8
CONTOUR
100
AcDbLine
 10
615.6087188720703
 20
270.10889434814453
 30
0.0
 11
615.83056640625
 21
269.99515533447266
 31
0.0
  0
LINE
  5
2CF
330
17
100
AcDbEntity
  8
CONTOUR
100
AcDbLine
 10
615.6087188720703
 20
278.89110565185547
 30
0.0
 11
615.3928070068359
 21
278.7664566040039
 31
0.0
  0
LINE
  5
2D0
330
17
100
AcDbEntity
  8
CONTOUR
100
AcDbLine
 10
615.83056640625
 20
269.99515533447266
 30
0.0
 11
616.0578155517578
 21
269.89261627197266
 31
0.0
  0
LINE
  5
2D1
330
17
100
AcDbEntity
  8
CONTOUR
100
AcDbLine
 10
615.83056640625
 20
279.00484466552734
 30
0.0
 11
615.6087188720703
 21
278.89110565185547
 31
0.0
  0
LINE
  5
2D2
330
17
100
AcDbEntity
  8
CONTOUR
100
AcDbLine
 10
616.0578155517578
 20
269.89261627197266
 30
0.0
 11
616.2898864746094
 21
269.8015365600586
 31
0.0
  0
LINE
  5
2D3
330
17
100
AcDbEntity
  8
CONTOUR
100
AcDbLine
 10
616.0578155517578
 20
279.10738372802734
 30
0.0
 11
615.83056640625
 21
279.00484466552734
 31
0.0
  0
LINE
  5
2D4
330
17
100
AcDbEntity
  8
CONTOUR
100
AcDbLine
 10
616.2898864746094
 20
269.8015365600586
 30
0.0
 11
616.5262145996094
 21
269.7221336364746
 31
0.0
  0
LINE
  5
2D5
330
17
100
AcDbEntity
  8
CONTOUR
100
AcDbLine
 10
616.2898864746094
 20
279.1984634399414
 30
0.0
 11
616.0578155517578
 21
279.10738372802734
 31
0.0
  0
LINE
  5
2D6
330
17
100
AcDbEntity
  8
CONTOUR
100
AcDbLine
 10
616.5262145996094
 20
279.2778625488281
 30
0.0
 11
616.2898864746094
 21
279.1984634399414
 31
0.0
  0
LINE
  5
2D7
330
17
100
AcDbEntity
  8
CONTOUR
100
AcDbLine
 10
616.5262145996094
 20
269.7221336364746
 30
0.0
 11
616.7662200927734
 21
269.65461349487305
 31
0.0
  0
LINE
  5
2D8
330
17
100
AcDbEntity
  8
CONTOUR
100
AcDbLine
 10
616.7662200927734
 20
279.34538650512695
 30
0.0
 11
616.5262145996094
 21
279.2778625488281
 31
0.0
  0
LINE
  5
2D9
330
17
100
AcDbEntity
  8
CONTOUR
100
AcDbLine
 10
616.7662200927734
 20
269.65461349487305
 30
0.0
 11
617.0092620849609
 21
269.5991401672363
 31
0.0
  0
LINE
  5
2DA
330
17
100
AcDbEntity
  8
CONTOUR
100
AcDbLine
 10
617.0092620849609
 20
269.5991401672363
 30
0.0
 11
617.2547760009766
 21
269.55584716796875
 31
0.0
  0
LINE
  5
2DB
330
17
100
AcDbEntity
  8
CONTOUR
100
AcDbLine
 10
617.0092620849609
 20
279.40086364746094
 30
0.0
 11
616.7662200927734
 21
279.34538650512695
 31
0.0
  0
LINE
  5
2DC
330
17
100
AcDbEntity
  8
CONTOUR
100
AcDbLine
 10
617.2547760009766
 20
279.44415283203125
 30
0.0
 11
617.0092620849609
 21
279.40086364746094
 31
0.0
  0
LINE
  5
2DD
330
17
100
AcDbEntity
  8
CONTOUR
100
AcDbLine
 10
617.2547760009766
 20
269.55584716796875
 30
0.0
 11
617.5021514892578
 21
269.524845123291
 31
0.0
  0
LINE
  5
2DE
330
17
100
AcDbEntity
  8
CONTOUR
100
AcDbLine
 10
617.5021514892578
 20
269.524845123291
 30
0.0
 11
617.7507629394531
 21
269.5062141418457
 31
0.0
  0
LINE
  5
2DF
330
17
100
AcDbEntity
  8
CONTOUR
100
AcDbLine
 10
617.5021514892578
 20
279.4751510620117
 30
0.0
 11
617.2547760009766
 21
279.44415283203125
 31
0.0
  0
LINE
  5
2E0
330
17
100
AcDbEntity
  8
CONTOUR
100
AcDbLine
 10
617.7507629394531
 20
269.5062141418457
 30
0.0
 11
618.0
 21
269.5
 31
0.0
  0
LINE
  5
2E1
330
17
100
AcDbEntity
  8
CONTOUR
100
AcDbLine
 10
617.7507629394531
 20
279.49378204345703
 30
0.0
 11
617.5021514892578
 21
279.4751510620117
 31
0.0
  0
LINE
  5
2E2
330
17
100
AcDbEntity
  8
CONTOUR
100
AcDbLine
 10
618.0
 20
279.5
 30
0.0
 11
617.7507629394531
 21
279.49378204345703
 31
0.0
  0
LINE
  5
2E3
330
17
100
AcDbEntity
  8
CONTOUR
100
AcDbLine
 10
618.0
 20
279.5
 30
0.0
 11
618.2492370605469
 21
279.49378204345703
 31
0.0
  0
LINE
  5
2E4
330
17
100
AcDbEntity
  8
CONTOUR
100
AcDbLine
 10
618.2492370605469
 20
269.5062141418457
 30
0.0
 11
618.0
 21
269.5
 31
0.0
  0
LINE
  5
2E5
330
17
100
AcDbEntity
  8
CONTOUR
100
AcDbLine
 10
618.2492370605469
 20
279.49378204345703
 30
0.0
 11
618.4978485107422
 21
279.4751510620117
 31
0.0
  0
LINE
  5
2E6
330
17
100
AcDbEntity
  8
CONTOUR
100
AcDbLine
 10
618.4978485107422
 20
269.524845123291
 30
0.0
 11
618.2492370605469
 21
269.5062141418457
 31
0.0
  0
LINE
  5
2E7
330
17
100
AcDbEntity
  8
CONTOUR
100
AcDbLine
 10
618.4978485107422
 20
279.4751510620117
 30
0.0
 11
618.7451934814453
 21
279.44415283203125
 31
0.0
  0
LINE
  5
2E8
330
17
100
AcDbEntity
  8
CONTOUR
100
AcDbLine
 10
618.7451934814453
 20
269.55584716796875
 30
0.0
 11
618.4978485107422
 21
269.524845123291
 31
0.0
  0
LINE
  5
2E9
330
17
100
AcDbEntity
  8
CONTOUR
100
AcDbLine
 10
618.7451934814453
 20
279.44415283203125
 30
0.0
 11
618.9907379150391
 21
279.40086364746094
 31
0.0
  0
LINE
  5
2EA
330
17
100
AcDbEntity
  8
CONTOUR
100
AcDbLine
 10
618.9907379150391
 20
269.5991401672363
 30
0.0
 11
618.7451934814453
 21
269.55584716796875
 31
0.0
  0
LINE
  5
2EB
330
17
100
AcDbEntity
  8
CONTOUR
100
AcDbLine
 10
618.9907379150391
 20
279.40086364746094
 30
0.0
 11
619.2337799072266
 21
279.34538650512695
 31
0.0
  0
LINE
  5
2EC
330
17
100
AcDbEntity
  8
CONTOUR
100
AcDbLine
 10
619.2337799072266
 20
269.65461349487305
 30
0.0
 11
618.9907379150391
 21
269.5991401672363
 31
0.0
  0
LINE
  5
2ED
330
17
100
AcDbEntity
  8
CONTOUR
100
AcDbLine
 10
619.2337799072266
 20
279.34538650512695
 30
0.0
 11
619.4737854003906
 21
279.2778625488281
 31
0.0
  0
LINE
  5
2EE
330
17
100
AcDbEntity
  8
CONTOUR
100
AcDbLine
 10
619.4737854003906
 20
269.7221336364746
 30
0.0
 11
619.2337799072266
 21
269.65461349487305
 31
0.0
  0
LINE
  5
2EF
330
17
100
AcDbEntity
  8
CONTOUR
100
AcDbLine
 10
619.4737854003906
 20
279.2778625488281
 30
0.0
 11
619.7100830078125
 21
279.1984634399414
 31
0.0
  0
LINE
  5
2F0
330
17
100
AcDbEntity
  8
CONTOUR
100
AcDbLine
 10
619.7100830078125
 20
269.8015365600586
 30
0.0
 11
619.4737854003906
 21
269.7221336364746
 31
0.0
  0
LINE
  5
2F1
330
17
100
AcDbEntity
  8
CONTOUR
100
AcDbLine
 10
619.7100830078125
 20
279.1984634399414
 30
0.0
 11
619.9421539306641
 21
279.10738372802734
 31
0.0
  0
LINE
  5
2F2
330
17
100
AcDbEntity
  8
CONTOUR
100
AcDbLine
 10
619.9421539306641
 20
269.89261627197266
 30
0.0
 11
619.7100830078125
 21
269.8015365600586
 31
0.0
  0
LINE
  5
2F3
330
17
100
AcDbEntity
  8
CONTOUR
100
AcDbLine
 10
619.9421539306641
 20
279.10738372802734
 30
0.0
 11
620.1694107055664
 21
279.00484466552734
 31
0.0
  0
LINE
  5
2F4
330
17
100
AcDbEntity
  8
CONTOUR
100
AcDbLine
 10
620.1694107055664
 20
269.99515533447266
 30
0.0
 11
619.9421539306641
 21
269.89261627197266
 31
0.0
  0
LINE
  5
2F5
330
17
100
AcDbEntity
  8
CONTOUR
100
AcDbLine
 10
620.1694107055664
 20
279.00484466552734
 30
0.0
 11
620.3912582397461
 21
278.89110565185547
 31
0.0
  0
LINE
  5
2F6
330
17
100
AcDbEntity
  8
CONTOUR
100
AcDbLine
 10
620.3912582397461
 20
270.10889434814453
 30
0.0
 11
620.1694107055664
 21
269.99515533447266
 31
0.0
  0
LINE
  5
2F7
330
17
100
AcDbEntity
  8
CONTOUR
100
AcDbLine
 10
620.3912582397461
 20
278.89110565185547
 30
0.0
 11
620.6071701049805
 21
278.7664566040039
 31
0.0
  0
LINE
  5
2F8
330
17
100
AcDbEntity
  8
CONTOUR
100
AcDbLine
 10
620.6071701049805
 20
270.23354721069336
 30
0.0
 11
620.3912582397461
 21
270.10889434814453
 31
0.0
  0
LINE
  5
2F9
330
17
100
AcDbEntity
  8
CONTOUR
100
AcDbLine
 10
620.6071701049805
 20
278.7664566040039
 30
0.0
 11
620.8165969848633
 21
278.6311950683594
 31
0.0
  0
LINE
  5
2FA
330
17
100
AcDbEntity
  8
CONTOUR
100
AcDbLine
 10
620.8165969848633
 20
270.3688087463379
 30
0.0
 11
620.6071701049805
 21
270.23354721069336
 31
0.0
  0
LINE
  5
2FB
330
17
100
AcDbEntity
  8
CONTOUR
100
AcDbLine
 10
620.8165969848633
 20
278.6311950683594
 30
0.0
 11
621.0190200805664
 21
278.4856643676758
 31
0.0
  0
LINE
  5
2FC
330
17
100
AcDbEntity
  8
CONTOUR
100
AcDbLine
 10
621.0190200805664
 20
270.5143356323242
 30
0.0
 11
620.8165969848633
 21
270.3688087463379
 31
0.0
  0
LINE
  5
2FD
330
17
100
AcDbEntity
  8
CONTOUR
100
AcDbLine
 10
621.0190200805664
 20
278.4856643676758
 30
0.0
 11
621.2139358520508
 21
278.3302230834961
 31
0.0
  0
LINE
  5
2FE
330
17
100
AcDbEntity
  8
CONTOUR
100
AcDbLine
 10
621.2139358520508
 20
270.6697769165039
 30
0.0
 11
621.0190200805664
 21
270.5143356323242
 31
0.0
  0
LINE
  5
2FF
330
17
100
AcDbEntity
  8
CONTOUR
100
AcDbLine
 10
621.2139358520508
 20
278.3302230834961
 30
0.0
 11
621.4008560180664
 21
278.1652603149414
 31
0.0
  0
LINE
  5
300
330
17
100
AcDbEntity
  8
CONTOUR
100
AcDbLine
 10
621.4008560180664
 20
270.8347396850586
 30
0.0
 11
621.2139358520508
 21
270.6697769165039
 31
0.0
  0
LINE
  5
301
330
17
100
AcDbEntity
  8
CONTOUR
100
AcDbLine
 10
621.4008560180664
 20
278.1652603149414
 30
0.0
 11
621.5793228149414
 21
277.99118423461914
 31
0.0
  0
LINE
  5
302
330
17
100
AcDbEntity
  8
CONTOUR
100
AcDbLine
 10
621.5793228149414
 20
271.00881576538086
 30
0.0
 11
621.4008560180664
 21
270.8347396850586
 31
0.0
  0
LINE
  5
303
330
17
100
AcDbEntity
  8
CONTOUR
100
AcDbLine
 10
621.5793228149414
 20
277.99118423461914
 30
0.0
 11
621.748893737793
 21
277.8084297180176
 31
0.0
  0
LINE
  5
304
330
17
100
AcDbEntity
  8
CONTOUR
100
AcDbLine
 10
621.748893737793
 20
271.1915702819824
 30
0.0
 11
621.5793228149414
 21
271.00881576538086
 31
0.0
  0
LINE
  5
305
330
17
100
AcDbEntity
  8
CONTOUR
100
AcDbLine
 10
621.748893737793
 20
277.8084297180176
 30
0.0
 11
621.9091567993164
 21
277.61744689941406
 31
0.0
  0
LINE
  5
306
330
17
100
AcDbEntity
  8
CONTOUR
100
AcDbLine
 10
621.9091567993164
 20
271.3825492858887
 30
0.0
 11
621.748893737793
 21
271.1915702819824
 31
0.0
  0
LINE
  5
307
330
17
100
AcDbEntity
  8
CONTOUR
100
AcDbLine
 10
621.9091567993164
 20
277.61744689941406
 30
0.0
 11
622.059684753418
 21
277.41871643066406
 31
0.0
  0
LINE
  5
308
330
17
100
AcDbEntity
  8
CONTOUR
100
AcDbLine
 10
622.059684753418
 20
271.5812797546387
 30
0.0
 11
621.9091567993164
 21
271.3825492858887
 31
0.0
  0
LINE
  5
309
330
17
100
AcDbEntity
  8
CONTOUR
100
AcDbLine
 10
622.059684753418
 20
277.41871643066406
 30
0.0
 11
622.2001266479492
 21
277.21273040771484
 31
0.0
  0
LINE
  5
30A
330
17
100
AcDbEntity
  8
CONTOUR
100
AcDbLine
 10
622.2001266479492
 20
271.78726959228516
 30
0.0
 11
622.059684753418
 21
271.5812797546387
 31
0.0
  0
LINE
  5
30B
330
17
100
AcDbEntity
  8
CONTOUR
100
AcDbLine
 10
622.2001266479492
 20
277.21273040771484
 30
0.0
 11
622.3301162719727
 21
277.0
 31
0.0
  0
LINE
  5
30C
330
17
100
AcDbEntity
  8
CONTOUR
100
AcDbLine
 10
622.3301162719727
 20
272.0
 30
0.0
 11
622.2001266479492
 21
271.78726959228516
 31
0.0
  0
LINE
  5
30D
330
17
100
AcDbEntity
  8
CONTOUR
100
AcDbLine
 10
622.3301162719727
 20
277.0
 30
0.0
 11
622.449348449707
 21
276.7810516357422
 31
0.0
  0
LINE
  5
30E
330
17
100
AcDbEntity
  8
CONTOUR
100
AcDbLine
 10
622.449348449707
 20
272.2189483642578
 30
0.0
 11
622.3301162719727
 21
272.0
 31
0.0
  0
LINE
  5
30F
330
17
100
AcDbEntity
  8
CONTOUR
100
AcDbLine
 10
622.449348449707
 20
276.7810516357422
 30
0.0
 11
622.5575180053711
 21
276.55643463134766
 31
0.0
  0
LINE
  5
310
330
17
100
AcDbEntity
  8
CONTOUR
100
AcDbLine
 10
622.5575180053711
 20
272.44356536865234
 30
0.0
 11
622.449348449707
 21
272.2189483642578
 31
0.0
  0
LINE
  5
311
330
17
100
AcDbEntity
  8
CONTOUR
100
AcDbLine
 10
622.5575180053711
 20
276.55643463134766
 30
0.0
 11
622.6543655395508
 21
276.3267059326172
 31
0.0
  0
LINE
  5
312
330
17
100
AcDbEntity
  8
CONTOUR
100
AcDbLine
 10
622.6543655395508
 20
272.6732940673828
 30
0.0
 11
622.5575180053711
 21
272.44356536865234
 31
0.0
  0
LINE
  5
313
330
17
100
AcDbEntity
  8
CONTOUR
100
AcDbLine
 10
622.6543655395508
 20
276.3267059326172
 30
0.0
 11
622.739631652832
 21
276.09243392944336
 31
0.0
  0
LINE
  5
314
330
17
100
AcDbEntity
  8
CONTOUR
100
AcDbLine
 10
622.739631652832
 20
272.90756607055664
 30
0.0
 11
622.6543655395508
 21
272.6732940673828
 31
0.0
  0
LINE
  5
315
330
17
100
AcDbEntity
  8
CONTOUR
100
AcDbLine
 10
622.739631652832
 20
276.09243392944336
 30
0.0
 11
622.813117980957
 21
275.8542022705078
 31
0.0
  0
LINE
  5
316
330
17
100
AcDbEntity
  8
CONTOUR
100
AcDbLine
 10
622.813117980957
 20
273.1457977294922
 30
0.0
 11
622.739631652832
 21
272.90756607055664
 31
0.0
  0
LINE
  5
317
330
17
100
AcDbEntity
  8
CONTOUR
100
AcDbLine
 10
622.813117980957
 20
275.8542022705078
 30
0.0
 11
622.874641418457
 21
275.6126022338867
 31
0.0
  0
LINE
  5
318
330
17
100
AcDbEntity
  8
CONTOUR
100
AcDbLine
 10
622.874641418457
 20
273.3873977661133
 30
0.0
 11
622.813117980957
 21
273.1457977294922
 31
0.0
  0
LINE
  5
319
330
17
100
AcDbEntity
  8
CONTOUR
100
AcDbLine
 10
622.874641418457
 20
275.6126022338867
 30
0.0
 11
622.9240341186523
 21
275.3682403564453
 31
0.0
  0
LINE
  5
31A
330
17
100
AcDbEntity
  8
CONTOUR
100
AcDbLine
 10
622.9240341186523
 20
273.6317596435547
 30
0.0
 11
622.874641418457
 21
273.3873977661133
 31
0.0
  0
LINE
  5
31B
330
17
100
AcDbEntity
  8
CONTOUR
100
AcDbLine
 10
622.9240341186523
 20
275.3682403564453
 30
0.0
 11
622.9611892700195
 21
275.12171936035156
 31
0.0
  0
LINE
  5
31C
330
17
100
AcDbEntity
  8
CONTOUR
100
AcDbLine
 10
622.9611892700195
 20
273.87828063964844
 30
0.0
 11
622.9240341186523
 21
273.6317596435547
 31
0.0
  0
LINE
  5
31D
330
17
100
AcDbEntity
  8
CONTOUR
100
AcDbLine
 10
622.9611892700195
 20
275.12171936035156
 30
0.0
 11
622.9860153198242
 21
274.87364959716797
 31
0.0
  0
LINE
  5
31E
330
17
100
AcDbEntity
  8
CONTOUR
100
AcDbLine
 10
622.9860153198242
 20
274.12635040283203
 30
0.0
 11
622.9611892700195
 21
273.87828063964844
 31
0.0
  0
LINE
  5
31F
330
17
100
AcDbEntity
  8
CONTOUR
100
AcDbLine
 10
622.9860153198242
 20
274.87364959716797
 30
0.0
 11
622.9984359741211
 21
274.6246528625488
 31
0.0
  0
LINE
  5
320
330
17
100
AcDbEntity
  8
CONTOUR
100
AcDbLine
 10
622.9984359741211
 20
274.3753471374512
 30
0.0
 11
622.9860153198242
 21
274.12635040283203
 31
0.0
  0
LINE
  5
321
330
17
100
AcDbEntity
  8
CONTOUR
100
AcDbLine
 10
622.9984359741211
 20
274.6246528625488
 30
0.0
 11
622.9984359741211
 21
274.3753471374512
 31
0.0
  0
LINE
  5
322
330
17
100
AcDbEntity
  8
CONTOUR
100
AcDbLine
 10
642.9999923706055
 20
287.0
 30
0.0
 11
593.0
 21
287.0
 31
0.0
  0
LINE
  5
323
330
17
100
AcDbEntity
  8
CONTOUR
100
AcDbLine
 10
642.9999923706055
 20
287.0
 30
0.0
 11
642.9999923706055
 21
262.0
 31
0.0
  0
LINE
  5
324
330
17
100
AcDbEntity
  8
CONTOUR
100
AcDbLine
 10
647.9999923706055
 20
304.5
 30
0.0
 11
647.9999923706055
 21
284.5
 31
0.0
  0
LINE
  5
325
330
17
100
AcDbEntity
  8
CONTOUR
100
AcDbLine
 10
657.9999923706055
 20
284.5
 30
0.0
 11
647.9999923706055
 21
284.5
 31
0.0
  0
LINE
  5
326
330
17
100
AcDbEntity
  8
CONTOUR
100
AcDbLine
 10
657.9999923706055
 20
304.5
 30
0.0
 11
647.9999923706055
 21
304.5
 31
0.0
  0
LINE
  5
327
330
17
100
AcDbEntity
  8
CONTOUR
100
AcDbLine
 10
657.9999923706055
 20
304.5
 30
0.0
 11
657.9999923706055
 21
284.5
 31
0.0
  0
LINE
  5
328
330
17
100
AcDbEntity
  8
CONTOUR
100
AcDbLine
 10
667.9999923706055
 20
304.5
 30
0.0
 11
658.0390548706055
 21
304.5
 31
0.0
  0
LINE
  5
329
330
17
100
AcDbEntity
  8
CONTOUR
100
AcDbLine
 10
667.9999923706055
 20
249.5
 30
0.0
 11
543.0
 21
249.5
 31
0.0
  0
LINE
  5
32A
330
17
100
AcDbEntity
  8
CONTOUR
100
AcDbLine
 10
667.9999923706055
 20
304.5
 30
0.0
 11
667.9999923706055
 21
249.5
 31
0.0
  0
LINE
  5
32B
330
17
100
AcDbEntity
  8
CONTOUR
100
AcDbLine
 10
748.0
 20
234.5
 30
0.0
 11
573.0
 21
234.5
 31
0.0
  0
LINE
  5
32C
330
17
100
AcDbEntity
  8
CONTOUR
100
AcDbLine
 10
748.0
 20
239.5
 30
0.0
 11
748.0
 21
234.5
 31
0.0
  0
LINE
  5
32D
330
17
100
AcDbEntity
  8
HIDDEN
100
AcDbLine
 10
558.0
 20
304.5
 30
0.0
 11
558.0
 21
284.5
 31
0.0
  0
LINE
  5
32E
330
17
100
AcDbEntity
  8
HIDDEN
100
AcDbLine
 10
555.4755859375
 20
304.5
 30
0.0
 11
555.5
 21
304.5
 31
0.0
  0
LINE
  5
32F
330
17
100
AcDbEntity
  8
HIDDEN
100
AcDbLine
 10
565.5
 20
304.5
 30
0.0
 11
565.5402831993997
 21
304.5
 31
0.0
  0
LINE
  5
330
330
17
100
AcDbEntity
  8
HIDDEN
100
AcDbLine
 10
647.9597091712058
 20
304.5
 30
0.0
 11
647.9999923706055
 21
304.5
 31
0.0
  0
LINE
  5
331
330
17
100
AcDbEntity
  8
HIDDEN
100
AcDbLine
 10
657.9999923706055
 20
304.5
 30
0.0
 11
658.0390548706055
 21
304.5
 31
0.0
  0
LINE
  5
332
330
17
100
AcDbEntity
  8
HIDDEN
100
AcDbLine
 10
583.0
 20
284.5
 30
0.0
 11
565.5
 21
284.5
 31
0.0
  0
LINE
  5
333
330
17
100
AcDbEntity
  8
HIDDEN
100
AcDbLine
 10
555.5
 20
284.5
 30
0.0
 11
543.0
 21
284.5
 31
0.0
  0
LINE
  5
334
330
17
100
AcDbEntity
  8
HIDDEN
100
AcDbLine
 10
563.0
 20
304.5
 30
0.0
 11
563.0
 21
284.5
 31
0.0
  0
LINE
  5
335
330
17
100
AcDbEntity
  8
HIDDEN
100
AcDbLine
 10
570.5
 20
249.5
 30
0.0
 11
570.5
 21
249.4609375
 31
0.0
  0
LINE
  5
336
330
17
100
AcDbEntity
  8
HIDDEN
100
AcDbLine
 10
573.0
 20
239.5
 30
0.0
 11
573.0
 21
239.4609375
 31
0.0
  0
LINE
  5
337
330
17
100
AcDbEntity
  8
HIDDEN
100
AcDbLine
 10
580.5408935546875
 20
239.5
 30
0.0
 11
580.5
 21
239.5
 31
0.0
  0
LINE
  5
338
330
17
100
AcDbEntity
  8
HIDDEN
100
AcDbLine
 10
580.5
 20
249.5
 30
0.0
 11
580.5
 21
249.4609375
 31
0.0
  0
LINE
  5
339
330
17
100
AcDbEntity
  8
HIDDEN
100
AcDbLine
 10
583.0
 20
284.5
 30
0.0
 11
583.0
 21
249.5
 31
0.0
  0
LINE
  5
33A
330
17
100
AcDbEntity
  8
HIDDEN
100
AcDbLine
 10
650.4999923706055
 20
304.5
 30
0.0
 11
650.4999923706055
 21
284.5
 31
0.0
  0
LINE
  5
33B
330
17
100
AcDbEntity
  8
HIDDEN
100
AcDbLine
 10
657.9999923706055
 20
284.5
 30
0.0
 11
667.9999923706055
 21
284.5
 31
0.0
  0
LINE
  5
33C
330
17
100
AcDbEntity
  8
HIDDEN
100
AcDbLine
 10
655.4999923706055
 20
304.5
 30
0.0
 11
655.4999923706055
 21
284.5
 31
0.0
  0
LINE
  5
33D
330
17
100
AcDbEntity
  8
HIDDEN
100
AcDbLine
 10
657.9999923706055
 20
284.5
 30
0.0
 11
657.9999923706055
 21
249.5
 31
0.0
  0
LINE
  5
33E
330
17
100
AcDbEntity
  8
HIDDEN
100
AcDbLine
 10
660.4999923706055
 20
304.5
 30
0.0
 11
660.4999923706055
 21
284.5
 31
0.0
  0
LINE
  5
33F
330
17
100
AcDbEntity
  8
HIDDEN
100
AcDbLine
 10
665.4720687866211
 20
284.5
 30
0.0
 11
660.5279159545898
 21
284.5
 31
0.0
  0
LINE
  5
340
330
17
100
AcDbEntity
  8
HIDDEN
100
AcDbLine
 10
665.4999923706055
 20
304.5
 30
0.0
 11
665.4999923706055
 21
284.5
 31
0.0
  0
LINE
  5
341
330
17
100
AcDbEntity
  8
CENTER
100
AcDbLine
 10
662.9999946458752
 20
291.1666666666667
 30
0.0
 11
662.9999946458752
 21
297.8333333333333
 31
0.0
  0
LINE
  5
342
330
17
100
AcDbEntity
  8
CENTER
100
AcDbLine
 10
560.499994341076
 20
291.1666666666667
 30
0.0
 11
560.499994341076
 21
297.8333333333333
 31
0.0
  0
LINE
  5
343
330
17
100
AcDbEntity
  8
CENTER
100
AcDbLine
 10
652.999994080821
 20
291.1666666666667
 30
0.0
 11
652.999994080821
 21
297.8333333333333
 31
0.0
  0
LINE
  5
344
330
17
100
AcDbEntity
  8
CENTER
100
AcDbLine
 10
560.499994341075
 20
291.1666666666667
 30
0.0
 11
560.499994341075
 21
297.8333333333333
 31
0.0
  0
LINE
  5
345
330
17
100
AcDbEntity
  8
CENTER
100
AcDbLine
 10
612.001649442094
 20
274.4999998476039
 30
0.0
 11
623.9983359540353
 21
274.4999998476039
 31
0.0
  0
LINE
  5
346
330
17
100
AcDbEntity
  8
CENTER
100
AcDbLine
 10
617.9999926980646
 20
268.5016565916332
 30
0.0
 11
617.9999926980646
 21
280.4983431035745
 31
0.0
  0
ENDSEC
  0
SECTION
  2
OBJECTS
  0
DICTIONARY
  5
A
330
0
100
AcDbDictionary
280
0
281
1
  3
ACAD_COLOR
350
B
  3
ACAD_GROUP
350
C
  3
ACAD_LAYOUT
350
D
  3
ACAD_MATERIAL
350
E
  3
ACAD_MLEADERSTYLE
350
F
  3
ACAD_MLINESTYLE
350
10
  3
ACAD_PLOTSETTINGS
350
11
  3
ACAD_PLOTSTYLENAME
350
12
  3
ACAD_SCALELIST
350
14
  3
ACAD_TABLESTYLE
350
15
  3
ACAD_VISUALSTYLE
350
16
  3
EZDXF_META
350
2D
  0
DICTIONARY
  5
B
330
A
100
AcDbDictionary
280
0
281
1
  0
DICTIONARY
  5
C
330
A
100
AcDbDictionary
280
0
281
1
  0
DICTIONARY
  5
D
330
A
100
AcDbDictionary
280
0
281
1
  3
Model
350
1A
  3
Layout1
350
1E
  0
DICTIONARY
  5
E
330
A
100
AcDbDictionary
280
0
281
1
  3
ByBlock
350
1F
  3
ByLayer
350
20
  3
Global
350
21
  0
DICTIONARY
  5
F
330
A
100
AcDbDictionary
280
0
281
1
  3
Standard
350
2C
  0
DICTIONARY
  5
10
330
A
100
AcDbDictionary
280
0
281
1
  3
Standard
350
22
  0
DICTIONARY
  5
11
330
A
100
AcDbDictionary
280
0
281
1
  0
ACDBDICTIONARYWDFLT
  5
12
330
A
100
AcDbDictionary
280
0
281
1
  3
Normal
350
13
100
AcDbDictionaryWithDefault
340
13
  0
ACDBPLACEHOLDER
  5
13
330
12
  0
DICTIONARY
  5
14
330
A
100
AcDbDictionary
280
0
281
1
  0
DICTIONARY
  5
15
330
A
100
AcDbDictionary
280
0
281
1
  0
DICTIONARY
  5
16
330
A
100
AcDbDictionary
280
0
281
1
  0
LAYOUT
  5
1A
330
D
100
AcDbPlotSettings
  1

  2
Adobe PDF
  4
A3
  6

 40
7.5
 41
20.0
 42
7.5
 43
20.0
 44
420.0
 45
297.0
 46
0.0
 47
0.0
 48
0.0
 49
0.0
140
0.0
141
0.0
142
1.0
143
1.0
 70
1024
 72
1
 73
0
 74
5
  7

 75
16
 76
0
 77
2
 78
300
147
1.0
148
0.0
149
0.0
100
AcDbLayout
  1
Model
 70
1
 71
0
 10
0.0
 20
0.0
 11
420.0
 21
297.0
 12
0.0
 22
0.0
 32
0.0
 14
1e+20
 24
1e+20
 34
1e+20
 15
-1e+20
 25
-1e+20
 35
-1e+20
146
0.0
 13
0.0
 23
0.0
 33
0.0
 16
1.0
 26
0.0
 36
0.0
 17
0.0
 27
1.0
 37
0.0
 76
1
330
17
  0
LAYOUT
  5
1E
330
D
100
AcDbPlotSettings
  1

  2
Adobe PDF
  4
A3
  6

 40
7.5
 41
20.0
 42
7.5
 43
20.0
 44
420.0
 45
297.0
 46
0.0
 47
0.0
 48
0.0
 49
0.0
140
0.0
141
0.0
142
1.0
143
1.0
 70
0
 72
1
 73
0
 74
5
  7

 75
16
 76
0
 77
2
 78
300
147
1.0
148
0.0
149
0.0
100
AcDbLayout
  1
Layout1
 70
1
 71
1
 10
0.0
 20
0.0
 11
420.0
 21
297.0
 12
0.0
 22
0.0
 32
0.0
 14
1e+20
 24
1e+20
 34
1e+20
 15
-1e+20
 25
-1e+20
 35
-1e+20
146
0.0
 13
0.0
 23
0.0
 33
0.0
 16
1.0
 26
0.0
 36
0.0
 17
0.0
 27
1.0
 37
0.0
 76
1
330
1B
  0
MATERIAL
  5
1F
102
{ACAD_REACTORS
330
E
102
}
330
E
100
AcDbMaterial
  1
ByBlock
  2

 70
0
 40
1.0
 71
1
 41
1.0
 91
-1023410177
 42
1.0
 72
1
  3

 73
1
 74
1
 75
1
 44
0.5
 73
0
 45
1.0
 46
1.0
 77
1
  4

 78
1
 79
1
170
1
 48
1.0
171
1
  6

172
1
173
1
174
1
140
1.0
141
1.0
175
1
  7

176
1
177
1
178
1
143
1.0
179
1
  8

270
1
271
1
272
1
145
1.0
146
1.0
273
1
  9

274
1
275
1
276
1
 42
1.0
 72
1
  3

 73
1
 74
1
 75
1
 94
63
  0
MATERIAL
  5
20
102
{ACAD_REACTORS
330
E
102
}
330
E
100
AcDbMaterial
  1
ByLayer
  2

 70
0
 40
1.0
 71
1
 41
1.0
 91
-1023410177
 42
1.0
 72
1
  3

 73
1
 74
1
 75
1
 44
0.5
 73
0
 45
1.0
 46
1.0
 77
1
  4

 78
1
 79
1
170
1
 48
1.0
171
1
  6

172
1
173
1
174
1
140
1.0
141
1.0
175
1
  7

176
1
177
1
178
1
143
1.0
179
1
  8

270
1
271
1
272
1
145
1.0
146
1.0
273
1
  9

274
1
275
1
276
1
 42
1.0
 72
1
  3

 73
1
 74
1
 75
1
 94
63
  0
MATERIAL
  5
21
102
{ACAD_REACTORS
330
E
102
}
330
E
100
AcDbMaterial
  1
Global
  2

 70
0
 40
1.0
 71
1
 41
1.0
 91
-1023410177
 42
1.0
 72
1
  3

 73
1
 74
1
 75
1
 44
0.5
 73
0
 45
1.0
 46
1.0
 77
1
  4

 78
1
 79
1
170
1
 48
1.0
171
1
  6

172
1
173
1
174
1
140
1.0
141
1.0
175
1
  7

176
1
177
1
178
1
143
1.0
179
1
  8

270
1
271
1
272
1
145
1.0
146
1.0
273
1
  9

274
1
275
1
276
1
 42
1.0
 72
1
  3

 73
1
 74
1
 75
1
 94
63
  0
MLINESTYLE
  5
22
102
{ACAD_REACTORS
330
10
102
}
330
10
100
AcDbMlineStyle
  2
Standard
 70
0
  3

 62
256
 51
90.0
 52
90.0
 71
2
 49
0.5
 62
256
  6
BYLAYER
 49
-0.5
 62
256
  6
BYLAYER
  0
MLEADERSTYLE
  5
2C
102
{ACAD_REACTORS
330
F
102
}
330
F
100
AcDbMLeaderStyle
179
2
170
2
171
1
172
0
 90
2
 40
0.0
 41
0.0
173
1
 91
-1056964608
 92
-2
290
1
 42
2.0
291
1
 43
8.0
  3
Standard
 44
4.0
300

342
29
174
1
175
1
176
0
178
1
 93
-1056964608
 45
4.0
292
0
297
0
 46
4.0
 94
-1056964608
 47
1.0
 49
1.0
140
1.0
294
1
141
0.0
177
0
142
1.0
295
0
296
0
143
3.75
271
0
272
9
273
9
  0
DICTIONARY
  5
2D
330
A
100
AcDbDictionary
281
1
  3
CREATED_BY_EZDXF
350
2E
  3
WRITTEN_BY_EZDXF
350
349
  0
DICTIONARYVAR
  5
2E
330
2D
100
DictionaryVariables
280
0
  1
1.1.4 @ 2026-02-26T15:37:04.291787+00:00
  0
DICTIONARYVAR
  5
349
330
2D
100
DictionaryVariables
280
0
  1
1.1.4 @ 2026-02-26T15:37:04.314788+00:00
  0
ENDSEC
  0
EOF
